<?xml version="1.0" encoding="UTF-8" standalone="no"?>
<!DOCTYPE svg PUBLIC "-//W3C//DTD SVG 1.1//EN" "http://www.w3.org/Graphics/SVG/1.1/DTD/svg11.dtd">
<svg xmlns="http://www.w3.org/2000/svg" version="1.1" viewBox="0.00 0.00 449.00 555.00">
<path fill="#a053ef" d="
  M 134.12 237.32
  A 0.97 0.97 0.0 0 0 134.20 236.06
  Q 129.99 230.57 124.03 223.75
  C 112.69 210.78 105.17 194.98 100.61 178.43
  C 96.36 163.00 96.27 145.65 98.54 129.73
  A 2.23 2.21 17.5 0 0 97.33 127.43
  C 79.17 118.39 63.91 103.36 61.67 82.07
  C 60.61 72.01 61.78 61.87 66.03 52.59
  C 72.52 38.39 85.65 24.99 101.27 20.76
  Q 115.20 16.99 129.31 19.32
  C 144.82 21.88 156.34 30.21 165.17 42.64
  A 2.18 2.16 59.5 0 0 167.87 43.35
  C 190.66 32.64 216.19 28.39 240.63 32.68
  Q 254.47 35.11 262.20 37.83
  Q 266.51 39.35 276.17 43.17
  Q 278.73 44.18 279.90 41.92
  C 284.95 32.14 296.14 23.93 306.73 20.96
  C 317.46 17.96 327.80 17.55 339.24 20.02
  C 361.20 24.75 377.39 43.75 381.25 65.02
  Q 385.43 88.03 372.10 106.37
  Q 361.81 120.52 346.36 127.11
  A 2.18 2.17 76.3 0 0 345.04 129.28
  C 345.36 133.28 346.57 137.83 346.78 142.55
  Q 348.28 175.66 332.57 205.09
  Q 328.29 213.11 326.63 215.12
  Q 322.28 220.38 319.02 224.88
  C 316.13 228.86 313.77 231.32 310.98 234.51
  C 309.82 235.83 309.01 237.66 311.20 238.40
  C 336.33 246.94 361.49 259.07 383.21 274.87
  Q 389.57 279.51 396.84 286.47
  C 406.94 296.15 414.53 302.66 420.30 313.71
  Q 430.43 333.11 420.41 352.37
  Q 410.33 371.73 388.03 373.38
  C 381.57 373.85 375.03 370.65 368.70 367.15
  Q 360.96 362.88 352.96 354.76
  Q 352.41 354.21 351.73 354.02
  A 1.36 1.36 0.0 0 0 350.04 355.58
  L 354.61 379.50
  A 2.03 2.03 0.0 0 0 356.55 381.14
  Q 371.07 381.49 382.17 389.10
  C 395.92 398.51 403.04 418.03 402.79 434.72
  Q 402.56 449.60 398.77 460.85
  C 395.03 471.97 392.66 479.70 387.71 487.70
  Q 376.20 506.32 356.73 519.74
  Q 351.96 523.02 346.06 525.23
  Q 321.92 534.25 299.72 521.81
  C 285.33 513.74 279.47 500.56 275.44 485.49
  A 1.51 1.51 0.0 0 0 273.65 484.41
  Q 267.95 485.73 253.49 487.78
  Q 242.09 489.40 232.98 489.49
  Q 210.28 489.72 202.74 489.01
  Q 186.13 487.45 170.64 484.49
  A 1.25 1.24 12.3 0 0 169.20 485.41
  C 168.00 490.16 167.36 494.34 165.40 498.28
  C 160.68 507.76 154.04 516.30 144.76 521.76
  Q 120.28 536.18 93.03 522.69
  Q 80.20 516.33 70.80 506.19
  C 65.04 499.98 59.75 494.17 56.04 486.88
  Q 47.18 469.48 43.74 456.07
  Q 40.77 444.48 41.28 429.74
  Q 41.58 421.13 43.02 416.87
  C 45.72 408.83 48.87 403.29 54.24 396.51
  C 60.87 388.16 70.39 383.23 80.83 381.61
  Q 83.55 381.19 89.05 380.68
  A 1.68 1.67 -1.2 0 0 90.56 379.11
  Q 90.75 375.83 91.46 372.93
  Q 93.21 365.70 94.58 354.79
  Q 94.63 354.39 94.49 354.13
  A 0.94 0.91 56.4 0 0 93.08 353.82
  C 81.05 364.17 67.83 375.91 50.30 372.57
  C 36.99 370.03 24.80 359.60 21.02 346.41
  Q 16.86 331.87 21.47 319.37
  Q 25.49 308.48 34.18 299.44
  Q 40.20 293.18 52.19 282.20
  Q 65.87 269.67 83.26 260.29
  Q 88.67 257.37 100.95 251.21
  Q 115.44 243.94 130.42 239.43
  Q 132.74 238.73 134.12 237.32
  Z
  M 102.26 115.24
  L 106.10 105.00
  A 2.13 2.13 0.0 0 0 105.55 102.69
  Q 103.51 100.81 99.69 98.26
  Q 96.11 95.87 93.59 90.25
  Q 88.59 79.11 91.82 67.20
  C 93.84 59.73 100.94 52.89 107.54 49.83
  C 118.12 44.93 129.76 46.07 138.55 54.12
  Q 140.72 56.11 141.96 57.14
  A 2.20 2.19 -42.2 0 0 144.62 57.27
  L 155.12 50.07
  A 1.81 1.81 0.0 0 0 155.56 47.51
  C 148.46 37.80 136.52 30.08 124.20 28.97
  C 113.77 28.04 104.19 29.32 95.45 34.85
  C 78.23 45.74 68.01 65.98 73.71 86.54
  C 77.30 99.50 87.18 110.93 99.47 116.41
  A 2.08 2.07 22.2 0 0 102.26 115.24
  Z
  M 343.70 116.17
  C 351.10 113.13 355.04 110.11 360.49 104.01
  C 371.31 91.91 374.54 74.60 368.69 59.40
  C 362.27 42.73 348.35 30.66 330.72 29.02
  Q 305.78 26.71 289.39 46.13
  C 287.47 48.40 287.89 49.48 290.02 51.01
  Q 294.33 54.09 299.14 57.21
  A 2.14 2.13 40.5 0 0 301.72 57.01
  C 304.77 54.31 307.54 51.88 310.89 50.19
  Q 321.10 45.05 332.10 48.19
  C 345.34 51.96 355.87 66.02 353.64 79.85
  Q 351.95 90.37 344.17 98.12
  A 1.35 0.52 -22.5 0 1 344.06 98.22
  L 338.78 102.03
  A 2.83 2.83 0.0 0 0 337.78 105.29
  L 341.37 115.14
  A 1.77 1.76 68.8 0 0 343.70 116.17
  Z
  M 313.35 85.85
  Q 291.84 58.96 258.14 47.97
  C 254.16 46.67 250.47 46.02 245.34 44.76
  C 235.57 42.37 226.60 42.37 215.22 42.71
  Q 208.88 42.90 200.87 44.59
  C 189.09 47.07 182.53 48.36 174.55 52.32
  Q 174.42 52.39 163.60 57.97
  C 151.81 64.06 140.75 73.11 132.91 83.11
  Q 125.40 92.69 119.08 104.08
  C 108.66 122.86 106.66 143.90 108.89 165.32
  C 110.37 179.52 116.97 193.70 124.25 205.94
  C 132.38 219.60 144.21 231.49 157.39 240.30
  Q 166.64 246.49 169.66 248.04
  Q 178.19 252.42 185.24 254.93
  Q 192.06 257.37 202.00 258.51
  C 214.22 259.92 228.75 260.39 241.76 258.39
  Q 251.00 256.96 252.18 256.64
  C 276.51 250.00 296.53 235.36 313.17 216.40
  Q 315.99 213.19 319.87 206.12
  Q 325.89 195.11 328.51 188.50
  Q 337.20 166.49 335.76 142.60
  C 335.51 138.56 334.63 135.07 334.10 131.19
  C 332.67 120.64 328.08 109.76 322.73 100.25
  C 320.79 96.82 316.80 90.17 313.35 85.85
  Z
  M 112.70 92.10
  L 133.33 65.88
  A 2.45 2.45 0.0 0 0 132.92 62.44
  L 132.60 62.20
  A 20.31 19.02 38.2 0 0 104.88 64.58
  L 104.74 64.76
  A 20.31 19.02 38.2 0 0 108.94 92.26
  L 109.25 92.51
  A 2.45 2.45 0.0 0 0 112.70 92.10
  Z
  M 310.29 64.79
  L 331.67 92.85
  A 1.17 1.17 0.0 0 0 333.31 93.07
  L 334.43 92.22
  A 20.46 18.57 -37.3 0 0 339.45 65.05
  L 339.16 64.67
  A 20.46 18.57 -37.3 0 0 311.63 62.29
  L 310.51 63.15
  A 1.17 1.17 0.0 0 0 310.29 64.79
  Z
  M 146.73 246.73
  C 144.04 245.74 135.60 248.47 132.07 250.03
  C 123.06 254.02 112.35 257.16 103.09 261.66
  Q 72.86 276.35 48.81 299.56
  Q 42.73 305.43 36.56 313.84
  Q 25.62 328.75 32.33 345.76
  Q 37.26 358.28 50.83 361.67
  C 59.89 363.93 69.74 359.56 76.58 353.83
  Q 86.40 345.59 96.73 335.36
  C 99.29 332.83 101.99 330.26 103.21 327.15
  Q 110.43 308.83 119.75 291.16
  C 123.83 283.42 129.04 275.99 132.94 268.56
  C 134.31 265.95 136.98 262.29 138.49 260.50
  Q 145.83 251.82 147.56 249.44
  A 1.78 1.78 0.0 0 0 146.73 246.73
  Z
  M 300.28 246.56
  C 298.40 246.32 296.22 247.15 297.49 249.34
  Q 299.01 251.95 302.14 255.75
  C 313.51 269.55 320.37 283.89 328.69 299.81
  Q 334.41 310.77 340.74 327.48
  A 9.27 9.16 -73.7 0 0 341.87 329.57
  C 345.32 334.36 350.98 337.83 355.06 342.29
  Q 362.53 350.48 372.40 357.38
  Q 385.59 366.60 399.81 359.27
  C 411.52 353.24 416.69 337.28 413.58 325.37
  C 412.18 320.00 408.72 315.27 405.23 310.74
  Q 394.88 297.33 380.52 286.43
  Q 366.13 275.52 352.42 267.57
  Q 340.18 260.47 334.73 258.51
  Q 322.91 254.24 314.56 250.78
  C 310.20 248.98 304.45 247.08 300.28 246.56
  Z
  M 285.51 253.91
  L 270.11 261.10
  A 1.74 1.73 64.7 0 0 269.28 263.43
  C 273.94 273.01 278.23 280.88 281.41 289.99
  C 283.82 296.88 288.82 308.40 291.67 317.64
  Q 299.05 341.55 301.32 366.43
  C 303.11 386.09 300.99 407.50 291.79 424.82
  Q 285.33 436.98 275.46 446.46
  Q 269.86 451.83 262.60 454.82
  C 252.92 458.80 244.96 461.77 235.26 462.60
  Q 222.88 463.67 212.67 462.93
  C 198.84 461.92 186.02 457.92 174.81 451.24
  Q 171.42 449.22 168.93 446.61
  C 162.69 440.06 156.83 433.57 153.00 425.80
  C 144.88 409.35 141.97 391.20 142.55 372.99
  C 142.73 367.36 143.28 357.97 144.50 350.70
  Q 148.39 327.63 156.73 305.46
  Q 163.46 287.55 169.67 274.85
  Q 174.55 264.83 175.22 263.33
  A 1.73 1.72 24.2 0 0 174.36 261.07
  L 158.84 253.99
  A 1.56 1.55 38.1 0 0 157.24 254.18
  Q 154.36 256.41 152.30 259.30
  Q 143.75 271.31 136.34 283.27
  C 132.99 288.67 130.98 293.23 127.79 298.81
  C 121.89 309.14 118.17 318.66 112.69 332.19
  Q 109.26 340.66 106.96 349.99
  Q 102.84 366.70 102.63 368.19
  Q 101.82 373.93 101.18 378.77
  Q 100.80 381.61 103.32 382.46
  Q 116.45 386.86 127.12 394.88
  C 130.92 397.73 135.68 402.16 131.27 406.86
  Q 128.44 409.87 125.33 406.96
  Q 118.32 400.42 109.23 396.45
  C 104.78 394.50 98.24 391.93 93.50 391.48
  Q 88.03 390.96 80.63 392.38
  C 66.91 395.03 56.99 405.90 53.83 419.34
  Q 51.20 430.51 52.36 440.94
  C 53.34 449.76 54.79 460.90 58.86 469.69
  Q 65.99 485.08 74.29 494.44
  Q 80.07 500.97 89.90 508.63
  C 97.56 514.60 106.32 518.13 115.73 518.57
  Q 126.22 519.06 133.35 515.90
  C 149.03 508.96 159.36 493.27 159.80 476.23
  Q 159.87 473.48 159.52 466.53
  Q 159.34 462.96 163.05 460.78
  A 2.33 2.26 -60.3 0 1 164.12 460.47
  C 169.45 460.25 169.70 467.06 170.21 471.13
  A 1.83 1.77 20.0 0 0 170.73 472.20
  Q 171.82 473.27 173.62 473.66
  Q 187.20 476.59 203.29 478.19
  C 226.56 480.51 250.66 478.23 273.02 473.19
  A 1.83 1.82 86.5 0 0 274.43 471.59
  Q 274.89 467.00 275.64 464.38
  C 276.76 460.49 281.29 458.72 283.82 462.72
  Q 285.30 465.06 285.09 467.03
  Q 283.54 481.24 289.22 494.62
  C 293.61 504.99 304.63 514.92 315.88 517.42
  Q 325.83 519.64 337.28 517.10
  C 349.38 514.42 355.94 507.50 365.33 498.50
  Q 371.88 492.21 375.54 486.95
  C 387.55 469.66 393.92 450.03 392.81 428.73
  Q 392.26 418.33 386.46 409.07
  Q 380.82 400.05 374.89 396.64
  Q 361.60 389.00 345.77 392.73
  Q 333.99 395.51 324.95 402.44
  Q 320.60 405.77 318.47 407.38
  C 315.45 409.66 311.95 406.59 311.27 403.54
  C 310.81 401.45 312.05 399.37 313.53 398.01
  Q 325.20 387.37 340.54 382.68
  C 342.95 381.94 344.04 381.15 343.51 378.54
  Q 342.42 373.14 341.02 365.48
  Q 339.04 354.62 334.09 339.85
  Q 330.46 329.01 323.22 312.41
  Q 317.68 299.73 309.58 286.31
  Q 299.92 270.30 291.82 259.09
  Q 290.47 257.23 287.57 254.28
  A 1.80 1.80 0.0 0 0 285.51 253.91
  Z
  M 187.40 265.44
  A 1.67 1.66 20.5 0 0 185.54 266.28
  Q 175.25 285.73 168.61 303.07
  Q 165.27 311.79 160.34 328.83
  C 156.72 341.35 155.21 353.31 154.00 366.76
  Q 152.85 379.46 154.39 392.72
  C 155.95 406.23 160.28 417.42 167.17 428.31
  C 180.47 449.31 206.47 454.85 230.00 453.25
  Q 254.96 451.56 272.42 434.40
  C 279.38 427.57 283.72 417.89 286.99 408.56
  Q 289.71 400.79 290.44 389.93
  Q 292.22 363.32 286.52 339.93
  C 284.41 331.24 281.41 317.78 277.37 307.62
  Q 269.19 287.08 258.95 266.42
  A 2.04 2.03 67.9 0 0 256.52 265.38
  Q 242.85 269.72 227.80 270.12
  C 220.06 270.32 211.87 270.33 204.68 269.07
  Q 196.50 267.63 187.40 265.44
  Z"
/>
<circle fill="#a053ef" cx="171.55" cy="142.27" r="11.09"/>
<circle fill="#a053ef" cx="272.50" cy="142.44" r="11.10"/>
<path fill="#a053ef" d="
  M 161.3600 200.2200
  A 60.76 51.64 -180.0 0 1 222.1200 148.5800
  A 60.76 51.64 -180.0 0 1 282.8800 200.2200
  A 60.76 51.64 -180.0 0 1 222.1200 251.8600
  A 60.76 51.64 -180.0 0 1 161.3600 200.2200
  Z
  M 171.4801 200.1218
  A 50.53 40.95 -179.9 0 0 221.9385 241.1599
  A 50.53 40.95 -179.9 0 0 272.5399 200.2982
  A 50.53 40.95 -179.9 0 0 222.0815 159.2601
  A 50.53 40.95 -179.9 0 0 171.4801 200.1218
  Z"
/>
<path fill="#a053ef" d="
  M 216.31 204.85
  A 2.10 2.09 -84.2 0 0 214.84 203.04
  Q 203.62 199.58 199.55 188.73
  C 196.07 179.47 204.59 173.60 212.37 171.62
  Q 222.93 168.93 234.51 172.25
  C 240.98 174.10 246.11 179.01 244.89 186.04
  Q 244.36 189.12 243.23 192.32
  C 241.35 197.67 233.95 201.55 228.96 203.50
  A 1.87 1.87 0.0 0 0 227.78 205.03
  Q 227.27 209.41 227.41 214.52
  C 227.50 217.59 229.61 217.92 232.26 218.16
  C 236.14 218.51 238.08 216.77 241.44 214.46
  Q 244.64 212.25 247.07 215.20
  C 249.59 218.27 248.12 220.82 245.49 223.26
  Q 235.90 232.16 223.27 225.94
  A 2.86 2.85 42.6 0 0 220.57 226.05
  Q 214.77 229.49 208.87 228.13
  C 205.35 227.32 191.90 221.56 197.39 215.28
  C 200.15 212.12 203.04 213.69 205.57 216.00
  C 208.96 219.10 216.38 220.05 216.57 213.74
  Q 216.72 209.20 216.31 204.85
  Z
  M 221.75 193.66
  C 225.54 193.66 232.63 190.97 234.48 186.62
  A 2.80 2.75 31.3 0 0 233.66 183.38
  C 230.66 180.93 225.79 180.62 221.73 180.62
  C 217.68 180.63 212.80 180.95 209.81 183.40
  A 2.80 2.75 -31.4 0 0 209.00 186.65
  C 210.86 190.99 217.96 193.67 221.75 193.66
  Z"
/>
<path fill="#a053ef" d="
  M 147.49 470.89
  C 148.46 487.53 138.57 505.01 121.28 507.42
  C 109.57 509.05 97.74 503.06 88.33 495.28
  Q 83.05 490.92 78.16 484.37
  Q 66.81 469.19 62.85 449.44
  C 60.60 438.22 61.51 424.33 69.26 415.55
  Q 76.44 407.43 86.91 404.96
  C 93.66 403.37 100.40 405.80 107.04 409.01
  C 116.82 413.73 125.72 420.19 131.67 429.04
  Q 135.02 434.02 136.40 436.25
  Q 146.42 452.41 147.49 470.89
  Z
  M 83.4510 416.9169
  A 44.70 26.86 -118.5 0 0 81.1750 469.0165
  A 44.70 26.86 -118.5 0 0 126.1090 495.4831
  A 44.70 26.86 -118.5 0 0 128.3850 443.3835
  A 44.70 26.86 -118.5 0 0 83.4510 416.9169
  Z"
/>
<path fill="#a053ef" d="
  M 366.50 408.41
  C 372.27 411.65 377.24 416.82 379.39 423.71
  Q 383.81 437.87 381.05 450.56
  C 377.34 467.59 368.52 484.18 355.82 495.62
  Q 347.24 503.36 335.43 506.58
  C 327.24 508.81 320.10 507.83 312.90 503.79
  C 305.70 499.74 301.14 494.15 298.79 485.99
  Q 295.40 474.23 297.55 462.88
  C 300.72 446.08 310.30 429.92 322.92 417.89
  Q 332.33 408.94 346.72 405.35
  C 353.72 403.61 360.72 405.16 366.50 408.41
  Z
  M 371.11 435.07
  C 370.66 428.73 366.91 417.59 359.99 416.07
  Q 346.98 413.21 336.52 420.23
  C 328.01 425.94 321.22 433.48 316.20 443.49
  Q 311.85 452.17 309.96 457.66
  C 306.01 469.16 305.51 482.62 313.88 492.18
  Q 318.67 497.66 326.98 497.14
  Q 336.53 496.54 343.47 491.74
  Q 353.48 484.83 359.95 474.20
  Q 366.20 463.94 369.25 453.82
  Q 371.83 445.28 371.11 435.07
  Z"
/>
</svg>
