<?xml version="1.0" encoding="UTF-8" standalone="no"?>
<!DOCTYPE svg PUBLIC "-//W3C//DTD SVG 1.1//EN" "http://www.w3.org/Graphics/SVG/1.1/DTD/svg11.dtd">
<svg xmlns="http://www.w3.org/2000/svg" version="1.1" viewBox="0.00 0.00 458.00 544.00">
<path fill="#9950e4" d="
  M 318.81 49.48
  C 319.86 44.12 321.98 38.94 328.49 39.02
  C 334.92 39.11 337.47 44.10 338.41 49.97
  A 1.17 1.16 -20.6 0 0 340.18 50.77
  Q 341.99 49.64 344.00 49.28
  C 355.01 47.31 360.76 59.26 352.28 66.54
  A 0.71 0.71 0.0 0 0 352.33 67.65
  C 355.75 70.09 360.35 72.10 358.03 77.26
  C 356.78 80.06 355.35 83.19 354.11 85.19
  C 352.18 88.31 349.03 87.00 347.11 90.63
  Q 339.67 104.72 336.47 110.22
  C 334.20 114.12 330.98 112.88 327.49 111.09
  Q 312.29 103.28 294.59 93.71
  C 291.48 92.03 288.83 90.01 290.98 85.96
  Q 298.28 72.26 302.36 65.15
  A 2.25 2.24 -40.2 0 0 302.52 63.28
  C 301.83 61.41 301.69 59.22 302.70 57.19
  C 304.45 53.66 307.71 45.66 312.86 47.41
  Q 315.37 48.26 317.96 49.85
  A 0.56 0.56 0.0 0 0 318.81 49.48
  Z
  M 327.11 45.00
  Q 325.38 45.73 325.01 48.21
  A 1.78 1.75 37.2 0 0 325.16 49.23
  Q 327.09 53.44 330.83 55.78
  Q 330.94 55.85 331.23 55.83
  Q 331.46 55.81 331.64 55.73
  Q 331.83 55.65 332.00 55.51
  Q 332.22 55.31 332.24 55.18
  Q 333.17 50.87 331.50 46.55
  A 1.78 1.75 -83.0 0 0 330.87 45.73
  Q 328.83 44.27 327.11 45.00
  Z
  M 328.5648 64.2718
  A 1.73 1.73 0.0 0 0 327.8699 61.9260
  L 313.3343 54.0338
  A 1.73 1.73 0.0 0 0 310.9884 54.7287
  L 309.1752 58.0682
  A 1.73 1.73 0.0 0 0 309.8701 60.4140
  L 324.4057 68.3062
  A 1.73 1.73 0.0 0 0 326.7516 67.6113
  L 328.5648 64.2718
  Z
  M 350.72 60.85
  L 349.90 54.76
  A 0.10 0.10 0.0 0 0 349.79 54.68
  L 347.81 54.94
  A 9.17 3.17 -7.7 0 0 339.15 59.31
  A 9.17 3.17 -7.7 0 0 348.66 61.23
  L 350.63 60.96
  A 0.10 0.10 0.0 0 0 350.72 60.85
  Z
  M 351.7855 76.8065
  A 1.82 1.82 0.0 0 0 351.0373 74.3438
  L 336.1117 66.3743
  A 1.82 1.82 0.0 0 0 333.6490 67.1225
  L 331.9345 70.3335
  A 1.82 1.82 0.0 0 0 332.6827 72.7962
  L 347.6083 80.7657
  A 1.82 1.82 0.0 0 0 350.0710 80.0175
  L 351.7855 76.8065
  Z
  M 309.64 67.60
  A 1.87 1.87 0.0 0 0 307.11 68.39
  L 297.50 86.79
  A 1.87 1.87 0.0 0 0 298.29 89.32
  L 310.17 95.52
  A 1.87 1.87 0.0 0 0 312.70 94.73
  L 322.31 76.33
  A 1.87 1.87 0.0 0 0 321.52 73.80
  L 309.64 67.60
  Z
  M 342.6634 86.9358
  A 1.46 1.46 0.0 0 0 342.0839 84.9540
  L 329.7687 78.2117
  A 1.46 1.46 0.0 0 0 327.7870 78.7912
  L 317.5966 97.4042
  A 1.46 1.46 0.0 0 0 318.1761 99.3860
  L 330.4913 106.1283
  A 1.46 1.46 0.0 0 0 332.4730 105.5488
  L 342.6634 86.9358
  Z"
/>
<path fill="#9950e4" d="
  M 173.25 61.71
  Q 174.01 63.28 172.54 65.10
  Q 168.41 70.24 164.40 75.42
  Q 163.21 76.97 163.80 78.99
  Q 164.34 80.81 167.88 90.44
  C 169.25 94.16 165.90 95.32 163.07 94.24
  Q 154.88 91.13 151.73 90.12
  A 3.92 3.88 -47.5 0 0 148.99 90.25
  C 145.19 91.87 140.55 96.24 137.82 98.10
  C 134.91 100.06 132.92 98.34 132.90 95.24
  Q 132.86 91.62 133.24 82.98
  Q 133.29 81.96 132.95 81.26
  Q 132.61 80.56 131.78 79.97
  Q 124.76 74.92 121.94 72.65
  C 119.52 70.72 119.40 68.09 122.74 67.02
  C 125.89 66.03 132.19 65.08 135.82 63.10
  A 3.92 3.88 -4.3 0 0 137.61 61.03
  Q 138.77 57.93 141.40 49.57
  C 142.30 46.68 145.28 44.77 147.36 48.15
  Q 152.73 56.89 153.83 58.44
  Q 155.05 60.15 157.00 60.17
  Q 163.55 60.23 170.15 60.16
  Q 172.49 60.14 173.25 61.71
  Z
  M 149.13 83.96
  C 151.69 83.61 155.99 85.95 158.21 86.71
  A 1.01 1.00 0.7 0 0 159.49 85.46
  C 158.18 81.23 156.42 77.53 157.83 75.02
  Q 158.48 73.88 162.38 68.11
  A 0.98 0.98 0.0 0 0 161.62 66.58
  L 154.30 66.21
  A 4.72 4.71 -17.9 0 1 150.84 64.45
  Q 150.00 63.46 146.43 58.46
  Q 146.30 58.28 146.07 58.20
  Q 145.76 58.09 145.57 58.12
  Q 145.38 58.14 145.11 58.33
  Q 144.91 58.47 144.83 58.68
  Q 142.75 64.46 142.21 65.64
  A 4.72 4.71 2.2 0 1 139.36 68.27
  L 132.41 70.61
  A 0.98 0.98 0.0 0 0 132.09 72.29
  Q 137.41 76.79 138.34 77.71
  C 140.38 79.74 139.69 83.78 139.57 88.21
  A 1.01 1.00 -16.4 0 0 141.15 89.06
  C 143.07 87.73 146.58 84.31 149.13 83.96
  Z"
/>
<path fill="#9950e4" d="
  M 250.45 106.85
  Q 251.15 107.05 251.54 106.92
  C 262.20 103.32 271.80 111.14 269.94 122.31
  C 268.08 133.52 251.86 140.95 242.00 143.49
  Q 240.79 143.80 239.67 143.48
  Q 238.56 143.15 237.71 142.23
  C 230.80 134.75 221.19 119.72 225.70 109.29
  C 230.18 98.89 242.49 97.52 249.50 106.32
  Q 249.75 106.64 250.45 106.85
  Z
  M 241.66 136.29
  Q 242.36 136.49 242.89 136.36
  C 249.96 134.56 260.21 129.84 263.31 123.04
  C 265.93 117.29 260.96 110.67 254.64 112.60
  A 5.84 5.58 21.4 0 0 253.62 113.02
  C 252.36 113.67 249.83 117.50 247.24 116.76
  C 244.66 116.02 244.53 111.44 243.80 110.21
  A 5.84 5.58 10.5 0 0 243.16 109.32
  C 238.82 104.34 231.10 107.33 230.28 113.60
  C 229.32 121.01 235.53 130.43 240.59 135.70
  Q 240.96 136.09 241.66 136.29
  Z"
/>
<path fill="#9950e4" d="
  M 135.83 220.34
  C 134.11 218.46 131.37 217.17 129.33 215.49
  Q 116.30 204.77 117.56 186.70
  Q 118.66 170.97 123.26 155.75
  C 128.14 139.58 138.43 128.09 157.23 134.14
  Q 174.92 139.84 189.55 151.99
  Q 204.31 164.25 217.08 179.47
  A 2.21 2.21 0.0 0 0 219.26 180.22
  Q 232.13 177.44 245.68 180.15
  A 1.96 1.96 0.0 0 0 247.60 179.46
  Q 260.69 163.21 276.52 150.55
  C 290.84 139.10 322.13 120.60 335.80 143.46
  C 340.80 151.83 343.03 161.65 344.95 172.21
  Q 346.82 182.55 346.96 188.97
  Q 347.32 204.76 336.05 214.71
  C 333.96 216.56 330.49 218.52 328.92 219.67
  A 2.00 1.92 87.1 0 0 328.32 220.36
  L 328.29 220.42
  A 1.05 1.04 -77.5 0 0 329.26 221.95
  Q 331.88 222.09 342.25 222.16
  Q 344.39 222.18 390.02 222.02
  Q 402.53 221.98 406.31 230.68
  Q 408.10 234.80 408.05 246.43
  Q 407.96 268.51 407.99 270.22
  Q 408.17 279.71 406.33 283.13
  C 402.74 289.80 395.57 291.48 388.32 291.21
  A 1.64 1.64 0.0 0 0 386.62 292.85
  Q 386.58 393.78 386.67 474.07
  C 386.68 484.04 381.54 494.86 371.03 496.81
  Q 365.90 497.76 360.27 497.77
  Q 279.39 497.88 126.50 497.80
  Q 103.52 497.79 98.00 497.43
  C 88.16 496.79 79.14 490.57 77.68 480.55
  Q 76.99 475.82 76.98 469.00
  Q 76.89 392.52 77.06 292.85
  A 1.74 1.74 0.0 0 0 75.22 291.11
  Q 70.71 291.36 66.36 289.92
  C 58.52 287.31 56.87 281.24 56.75 273.75
  Q 56.51 258.05 56.53 239.75
  C 56.54 229.90 61.71 222.18 72.04 222.11
  Q 97.47 221.94 105.01 222.04
  Q 121.34 222.27 135.18 221.88
  A 0.92 0.92 0.0 0 0 135.83 220.34
  Z
  M 208.33 219.60
  L 207.30 217.62
  A 2.98 2.97 -18.1 0 0 204.20 216.06
  C 187.80 218.59 165.88 217.69 152.16 206.65
  C 138.37 195.54 141.35 169.23 161.55 167.56
  Q 168.02 167.02 176.98 170.68
  C 187.93 175.14 197.06 181.41 206.30 188.83
  A 1.35 1.34 -47.9 0 0 208.10 188.73
  L 211.38 185.47
  A 1.61 1.61 0.0 0 0 211.50 183.34
  C 199.00 167.86 182.82 153.34 165.22 144.11
  C 159.11 140.91 149.61 137.93 143.41 139.67
  C 135.85 141.80 132.14 149.98 130.09 157.06
  C 126.52 169.49 122.82 183.69 124.90 196.50
  C 126.06 203.64 130.24 208.70 136.60 212.63
  C 150.85 221.44 166.94 222.19 183.82 222.08
  Q 202.50 221.94 207.00 221.85
  A 1.54 1.53 75.8 0 0 208.33 219.60
  Z
  M 255.96 219.59
  A 1.54 1.54 0.0 0 0 257.29 221.84
  Q 261.79 221.94 280.50 222.12
  C 297.40 222.27 313.51 221.56 327.80 212.77
  C 334.18 208.85 338.37 203.79 339.55 196.64
  C 341.66 183.82 337.99 169.59 334.44 157.14
  C 332.41 150.05 328.71 141.85 321.14 139.70
  C 314.94 137.94 305.42 140.90 299.30 144.09
  C 281.65 153.30 265.42 167.80 252.87 183.27
  A 1.61 1.61 0.0 0 0 252.98 185.41
  L 256.26 188.68
  A 1.35 1.34 48.0 0 0 258.06 188.78
  C 267.33 181.37 276.49 175.11 287.46 170.67
  Q 296.44 167.03 302.92 167.58
  C 323.14 169.30 326.07 195.65 312.23 206.74
  C 298.47 217.77 276.52 218.62 260.10 216.05
  A 2.98 2.98 0.0 0 0 257.00 217.61
  L 255.96 219.59
  Z
  M 204.95 208.22
  L 205.00 197.61
  A 2.34 2.34 0.0 0 0 204.19 195.83
  Q 189.82 183.26 173.52 176.44
  Q 169.56 174.79 164.92 174.18
  C 157.08 173.16 151.37 178.57 150.67 186.30
  C 148.39 211.68 188.52 212.02 204.03 209.31
  A 1.11 1.11 0.0 0 0 204.95 208.22
  Z
  M 259.54 208.03
  A 1.11 1.11 0.0 0 0 260.45 209.12
  C 275.95 211.91 316.09 211.78 313.94 186.38
  C 313.28 178.65 307.59 173.21 299.75 174.19
  Q 295.10 174.77 291.14 176.40
  Q 274.80 183.14 260.36 195.64
  A 2.34 2.34 0.0 0 0 259.54 197.42
  L 259.54 208.03
  Z
  M 232.46 221.81
  C 241.02 221.71 248.33 222.22 251.97 213.30
  C 253.50 209.54 252.97 202.78 252.52 198.78
  Q 251.42 188.97 242.01 186.26
  C 238.83 185.34 235.78 185.31 232.06 185.35
  C 228.35 185.39 225.30 185.49 222.14 186.48
  Q 212.79 189.39 211.90 199.22
  C 211.54 203.23 211.16 210.00 212.77 213.72
  C 216.60 222.57 223.90 221.90 232.46 221.81
  Z
  M 202.24 282.35
  L 202.32 231.05
  A 2.18 2.18 0.0 0 0 200.15 228.87
  L 73.04 228.65
  A 9.99 9.06 0.1 0 0 63.03 237.69
  L 62.97 275.23
  A 9.99 9.06 0.1 0 0 72.94 284.31
  L 200.05 284.53
  A 2.18 2.18 0.0 0 0 202.24 282.35
  Z
  M 254.91 230.80
  A 2.13 2.13 0.0 0 0 252.78 228.67
  L 211.20 228.67
  A 2.13 2.13 0.0 0 0 209.07 230.80
  L 209.07 282.32
  A 2.13 2.13 0.0 0 0 211.20 284.45
  L 252.78 284.45
  A 2.13 2.13 0.0 0 0 254.91 282.32
  L 254.91 230.80
  Z
  M 261.44 231.06
  L 261.44 282.06
  A 2.33 2.33 0.0 0 0 263.77 284.39
  L 391.42 284.39
  A 9.90 8.94 0.0 0 0 401.32 275.45
  L 401.32 237.67
  A 9.90 8.94 -0.0 0 0 391.42 228.73
  L 263.77 228.73
  A 2.33 2.33 0.0 0 0 261.44 231.06
  Z
  M 202.21 489.66
  L 202.21 293.38
  A 1.93 1.93 0.0 0 0 200.57 291.47
  Q 197.64 291.04 193.53 291.06
  Q 157.04 291.22 87.26 291.01
  Q 85.00 291.00 84.05 292.46
  A 0.20 0.18 67.5 0 0 84.01 292.58
  Q 84.59 382.96 84.18 471.59
  C 84.15 479.89 84.70 485.59 92.03 489.17
  C 95.76 490.99 99.68 490.99 104.50 490.97
  Q 153.18 490.75 200.92 490.94
  A 1.29 1.28 0.0 0 0 202.21 489.66
  Z
  M 254.74 292.88
  A 1.72 1.72 0.0 0 0 253.02 291.16
  L 210.84 291.16
  A 1.72 1.72 0.0 0 0 209.12 292.88
  L 209.12 489.26
  A 1.72 1.72 0.0 0 0 210.84 490.98
  L 253.02 490.98
  A 1.72 1.72 0.0 0 0 254.74 489.26
  L 254.74 292.88
  Z
  M 262.14 490.75
  Q 262.53 490.89 263.25 490.92
  Q 265.12 490.98 363.95 490.80
  Q 380.55 490.77 380.55 474.48
  Q 380.53 369.22 380.71 304.10
  C 380.72 300.05 380.37 296.70 380.51 292.79
  A 1.68 1.68 0.0 0 0 378.83 291.05
  L 262.96 291.05
  A 1.47 1.46 -0.0 0 0 261.49 292.51
  L 261.62 490.01
  A 0.79 0.79 0.0 0 0 262.14 490.75
  Z"
/>
<path fill="#9950e4" d="
  M 71.61 157.45
  C 75.38 150.30 78.61 144.49 87.76 146.37
  C 97.65 148.40 100.85 159.20 100.03 168.02
  Q 99.09 178.02 95.32 187.38
  A 3.63 3.63 0.0 0 1 92.32 189.63
  Q 81.97 190.70 71.33 188.42
  C 64.47 186.95 58.24 183.20 56.08 176.45
  C 53.72 169.10 59.20 160.33 66.97 158.99
  Q 69.84 158.50 70.83 158.13
  A 1.45 1.44 -86.0 0 0 71.61 157.45
  Z
  M 90.72 182.60
  C 93.11 175.74 98.74 150.85 84.00 152.63
  Q 78.57 153.28 77.96 158.44
  C 77.68 160.86 79.71 165.41 76.66 166.49
  Q 75.50 166.90 73.27 166.07
  C 68.14 164.17 63.30 165.64 62.30 171.56
  C 60.23 183.72 81.99 184.21 89.07 183.83
  A 1.84 1.84 0.0 0 0 90.72 182.60
  Z"
/>
<path fill="#9950e4" d="
  M 390.17 198.61
  Q 388.34 199.03 386.74 197.02
  Q 384.42 194.13 380.97 189.10
  C 378.58 185.62 369.86 189.38 364.82 187.68
  A 1.90 1.81 12.9 0 1 363.53 185.73
  C 364.06 181.30 372.22 175.20 370.39 171.15
  Q 367.71 165.20 366.21 161.24
  A 2.97 2.81 58.6 0 1 366.88 158.10
  Q 368.03 157.01 369.99 157.58
  Q 375.14 159.09 380.23 160.57
  Q 380.70 160.71 381.50 160.53
  Q 382.30 160.35 382.67 160.02
  Q 386.61 156.48 390.60 152.89
  Q 392.12 151.53 393.63 152.01
  A 2.97 2.81 -84.2 0 1 395.59 154.55
  Q 395.95 158.77 396.11 165.29
  C 396.22 169.74 406.21 171.70 408.61 175.47
  A 1.90 1.81 -38.5 0 1 408.29 177.78
  C 404.48 181.50 394.99 181.88 394.35 186.05
  Q 393.41 192.08 392.58 195.69
  Q 392.00 198.20 390.17 198.61
  Z
  M 382.94 166.64
  C 381.01 167.09 378.07 166.07 376.24 165.47
  A 1.02 1.02 0.0 0 0 374.97 166.81
  C 375.82 168.96 377.85 172.71 376.80 174.92
  Q 375.52 177.59 374.01 180.06
  A 1.26 1.26 0.0 0 0 375.09 181.98
  L 380.19 181.98
  A 4.37 4.37 0.0 0 1 383.56 183.57
  C 385.13 185.47 386.50 187.40 387.13 187.56
  Q 387.42 187.63 387.74 187.56
  Q 388.05 187.48 388.28 187.29
  C 388.78 186.88 389.17 184.54 389.76 182.15
  A 4.37 4.37 0.0 0 1 392.10 179.25
  L 396.69 177.03
  A 1.26 1.26 0.0 0 0 396.82 174.83
  Q 394.39 173.26 392.07 171.42
  C 390.17 169.89 390.36 165.63 390.19 163.32
  A 1.02 1.02 0.0 0 0 388.46 162.67
  C 387.08 164.00 384.87 166.20 382.94 166.64
  Z"
/>
</svg>
