<?xml version="1.0" encoding="UTF-8" standalone="no"?>
<!DOCTYPE svg PUBLIC "-//W3C//DTD SVG 1.1//EN" "http://www.w3.org/Graphics/SVG/1.1/DTD/svg11.dtd">
<svg xmlns="http://www.w3.org/2000/svg" version="1.1" viewBox="0.00 0.00 218.00 183.00">
<path fill="#9e5add" d="
  M 179.85 69.75
  A 2.32 2.30 -70.8 0 0 180.71 71.55
  Q 187.44 76.91 188.28 85.50
  Q 188.70 89.79 188.79 90.67
  A 9.67 9.27 -59.0 0 0 189.25 92.69
  Q 194.47 107.67 199.31 126.10
  C 202.18 137.03 204.16 143.37 204.27 152.00
  C 204.28 153.38 204.12 155.49 203.46 156.74
  C 197.94 167.21 189.15 175.14 177.00 169.35
  Q 172.22 167.07 167.53 163.21
  C 165.50 161.55 157.31 163.84 150.37 165.29
  C 120.95 171.42 90.63 171.13 61.25 164.93
  Q 53.92 163.39 49.61 162.73
  A 2.70 2.66 29.2 0 0 47.47 163.32
  Q 44.76 165.61 42.78 167.01
  C 30.20 175.90 19.33 170.31 13.16 158.10
  C 11.04 153.91 12.09 146.08 13.20 141.20
  Q 19.01 115.64 24.02 100.21
  Q 26.50 92.58 26.53 92.42
  A 10.27 9.62 53.4 0 0 26.70 90.94
  C 26.96 83.82 28.04 77.41 33.55 72.57
  Q 36.05 70.38 36.06 70.36
  A 1.75 1.71 -30.1 0 0 36.35 69.31
  Q 36.14 64.83 36.07 52.89
  C 35.99 40.59 35.71 32.99 45.28 26.51
  Q 53.83 20.71 65.81 17.10
  C 85.31 11.21 105.26 10.07 125.57 12.11
  Q 142.06 13.76 157.68 19.56
  Q 166.80 22.94 173.03 27.95
  Q 179.86 33.44 179.83 42.96
  Q 179.80 52.21 179.85 69.75
  Z
  M 175.15 68.17
  A 0.45 0.44 -82.5 0 0 175.71 67.74
  Q 175.67 48.14 175.49 42.53
  C 175.17 32.13 167.15 27.85 158.56 24.46
  C 138.66 16.60 118.02 14.15 96.50 15.61
  C 80.67 16.69 63.23 20.56 49.53 28.68
  C 43.47 32.27 40.56 36.40 40.53 43.50
  Q 40.44 62.01 40.25 66.72
  A 0.84 0.84 0.0 0 0 41.31 67.56
  L 49.69 65.24
  A 1.27 1.27 0.0 0 0 50.63 64.04
  Q 50.76 57.29 51.16 50.22
  Q 51.45 44.98 56.36 43.62
  Q 61.49 42.19 66.49 41.68
  Q 82.36 40.06 96.71 42.52
  Q 100.21 43.12 102.36 44.47
  A 5.08 5.08 0.0 0 1 104.73 48.58
  L 105.18 60.81
  A 1.21 1.21 0.0 0 0 106.39 61.98
  L 109.35 61.98
  A 1.34 1.33 -89.6 0 0 110.68 60.66
  Q 110.74 54.68 110.84 50.00
  Q 110.92 46.39 112.81 44.67
  A 2.26 2.04 10.0 0 1 113.40 44.30
  Q 119.47 41.63 130.01 41.11
  Q 145.55 40.34 158.42 43.00
  Q 165.03 44.36 165.18 50.45
  Q 165.40 59.17 165.35 64.78
  A 0.88 0.88 0.0 0 0 166.00 65.64
  L 175.15 68.17
  Z
  M 55.06 63.79
  A 0.51 0.50 87.5 0 0 55.61 64.30
  Q 77.13 62.24 99.86 62.19
  A 0.98 0.98 0.0 0 0 100.84 61.19
  Q 100.66 54.81 100.75 50.44
  Q 100.81 47.50 97.40 46.92
  Q 79.46 43.90 64.02 46.12
  Q 59.87 46.72 56.72 47.85
  A 2.34 2.34 0.0 0 0 55.17 50.04
  L 55.06 63.79
  Z
  M 160.85 64.07
  L 160.85 50.22
  A 2.36 2.36 0.0 0 0 159.31 48.01
  Q 156.14 46.84 151.97 46.20
  Q 136.44 43.84 118.34 46.73
  Q 114.90 47.28 114.94 50.25
  Q 114.99 54.65 114.76 61.07
  A 0.99 0.99 0.0 0 0 115.74 62.09
  Q 138.63 62.33 160.29 64.58
  A 0.51 0.51 0.0 0 0 160.85 64.07
  Z
  M 107.62 75.12
  Q 130.11 75.15 155.99 76.77
  Q 162.05 77.15 170.15 78.37
  C 175.16 79.12 179.39 81.47 183.17 84.40
  A 0.57 0.57 0.0 0 0 184.07 83.79
  C 181.36 74.99 173.58 70.90 165.06 69.54
  C 146.64 66.61 128.54 66.17 107.63 66.15
  C 86.72 66.12 68.62 66.52 50.19 69.40
  C 41.67 70.74 33.88 74.81 31.15 83.60
  A 0.57 0.57 0.0 0 0 32.05 84.21
  C 35.83 81.29 40.07 78.95 45.08 78.21
  Q 53.18 77.01 59.24 76.65
  Q 85.13 75.10 107.62 75.12
  Z
  M 49.12 147.65
  A 0.80 0.80 0.0 0 0 49.94 148.35
  Q 52.33 148.28 54.27 148.73
  Q 69.33 152.20 80.99 153.79
  Q 111.39 157.92 142.58 152.32
  Q 154.03 150.26 165.25 147.99
  A 1.48 1.47 86.8 0 0 166.42 146.68
  L 168.49 124.16
  A 1.99 1.99 0.0 0 1 170.72 122.37
  L 171.08 122.42
  A 2.01 2.01 0.0 0 1 172.82 124.59
  L 170.67 148.01
  A 1.15 1.14 -66.2 0 0 171.03 148.95
  Q 174.73 152.42 179.93 154.87
  Q 185.81 157.65 190.58 153.56
  Q 195.25 149.57 198.41 144.25
  A 3.73 3.70 -36.6 0 0 198.83 141.49
  Q 193.29 118.47 186.14 96.60
  Q 184.36 91.13 181.84 88.66
  C 176.30 83.24 167.81 81.73 160.06 81.15
  Q 122.80 78.38 87.00 79.52
  Q 70.93 80.02 55.26 80.99
  Q 48.60 81.40 44.05 82.55
  C 33.54 85.21 29.90 93.56 27.17 103.15
  Q 23.38 116.42 17.48 139.99
  Q 17.16 141.24 17.17 144.08
  A 2.52 2.50 -61.2 0 0 17.53 145.34
  Q 20.01 149.42 22.74 152.26
  Q 29.36 159.17 37.67 153.98
  Q 43.51 150.34 44.55 149.57
  A 0.94 0.91 -22.7 0 0 44.92 148.71
  L 41.90 124.82
  A 2.22 2.22 0.0 0 1 43.78 122.35
  L 43.81 122.34
  A 2.02 2.02 0.0 0 1 46.14 124.08
  L 49.12 147.65
  Z
  M 169.32 157.91
  A 2.22 2.22 0.0 0 0 170.17 159.88
  C 177.16 165.32 184.45 170.11 192.22 164.55
  C 196.84 161.24 200.66 155.71 200.60 149.89
  A 0.68 0.67 90.0 0 0 199.94 149.22
  C 199.36 149.20 197.41 151.86 195.36 154.34
  C 190.67 160.00 183.92 162.41 177.19 158.08
  Q 172.58 155.12 170.62 153.37
  A 0.56 0.55 -66.7 0 0 169.70 153.74
  L 169.32 157.91
  Z
  M 15.90 150.77
  Q 15.58 151.68 15.93 153.08
  C 17.82 160.69 25.09 169.18 33.62 167.07
  Q 39.52 165.60 45.34 159.71
  A 2.07 2.04 -26.7 0 0 45.92 158.00
  L 45.50 154.68
  A 0.64 0.64 0.0 0 0 44.49 154.24
  C 36.30 160.25 27.84 164.03 20.01 154.94
  Q 18.69 153.40 16.68 150.66
  A 0.45 0.44 36.7 0 0 15.90 150.77
  Z
  M 107.42 166.16
  C 126.50 166.14 145.12 162.40 163.83 158.60
  A 1.40 1.40 0.0 0 0 164.94 157.36
  L 165.31 153.23
  A 0.95 0.95 0.0 0 0 164.18 152.21
  Q 149.79 155.14 146.01 155.79
  Q 126.02 159.26 107.41 159.28
  Q 88.80 159.31 68.81 155.91
  Q 65.02 155.26 50.63 152.38
  A 0.95 0.95 0.0 0 0 49.50 153.40
  L 49.88 157.53
  A 1.40 1.40 0.0 0 0 51.00 158.76
  C 69.71 162.51 88.34 166.19 107.42 166.16
  Z"
/>
<ellipse fill="#9e5add" cx="0.00" cy="0.00" transform="translate(21.80,138.52) rotate(-123.4)" rx="2.25" ry="1.88"/>
<circle fill="#9e5add" cx="193.39" cy="138.69" r="2.07"/>
<circle fill="#9e5add" cx="54.06" cy="139.65" r="2.05"/>
<circle fill="#9e5add" cx="160.96" cy="139.60" r="2.04"/>
<circle fill="#9e5add" cx="67.24" cy="142.52" r="2.03"/>
<ellipse fill="#9e5add" cx="0.00" cy="0.00" transform="translate(148.16,142.70) rotate(-172.1)" rx="2.17" ry="1.93"/>
<ellipse fill="#9e5add" cx="0.00" cy="0.00" transform="translate(37.95,143.94) rotate(-143.9)" rx="2.15" ry="1.92"/>
<circle fill="#9e5add" cx="177.09" cy="144.20" r="1.95"/>
<ellipse fill="#9e5add" cx="0.00" cy="0.00" transform="translate(134.34,144.83) rotate(-175.5)" rx="2.18" ry="1.96"/>
<circle fill="#9e5add" cx="80.67" cy="145.06" r="2.09"/>
<circle fill="#9e5add" cx="29.29" cy="146.40" r="2.18"/>
<ellipse fill="#9e5add" cx="0.00" cy="0.00" transform="translate(94.17,146.21) rotate(-177.2)" rx="2.04" ry="1.83"/>
<circle fill="#9e5add" cx="120.81" cy="146.33" r="2.00"/>
<circle fill="#9e5add" cx="186.26" cy="146.33" r="1.97"/>
<circle fill="#9e5add" cx="107.34" cy="146.78" r="1.94"/>
</svg>
