<?xml version="1.0" encoding="UTF-8" standalone="no"?>
<!DOCTYPE svg PUBLIC "-//W3C//DTD SVG 1.1//EN" "http://www.w3.org/Graphics/SVG/1.1/DTD/svg11.dtd">
<svg xmlns="http://www.w3.org/2000/svg" version="1.1" viewBox="0.00 0.00 210.00 197.00">
<path fill="#9b5dd5" d="
  M 110.70 144.08
  A 0.36 0.35 51.9 0 0 111.34 144.16
  Q 111.56 143.82 111.55 143.50
  C 111.05 114.19 111.33 89.23 113.97 61.76
  Q 115.45 46.32 120.96 30.47
  C 122.68 25.53 123.61 21.94 124.24 16.73
  C 124.55 14.14 126.63 14.65 128.98 14.74
  Q 148.12 15.48 152.50 15.35
  Q 167.96 14.93 178.11 14.89
  A 1.22 1.22 0.0 0 1 179.30 15.83
  C 180.59 21.29 181.52 25.13 183.37 30.81
  Q 190.05 51.33 191.24 73.75
  Q 193.82 122.30 191.59 162.96
  Q 191.44 165.64 190.92 170.14
  A 1.92 1.91 -6.1 0 1 189.63 171.73
  Q 176.85 176.08 163.81 172.98
  A 2.27 2.26 88.9 0 1 162.16 171.39
  Q 161.37 168.55 161.12 166.88
  Q 156.63 137.20 152.76 93.93
  A 0.41 0.40 64.7 0 0 152.07 93.68
  L 151.78 93.96
  A 1.35 1.30 70.6 0 0 151.40 94.79
  Q 148.11 132.40 144.25 160.25
  Q 143.26 167.38 141.98 171.78
  A 1.74 1.71 -4.4 0 1 141.03 172.87
  Q 139.16 173.69 136.24 174.06
  Q 125.01 175.47 113.99 171.61
  A 1.39 1.38 7.5 0 1 113.06 170.41
  L 111.93 155.44
  A 0.62 0.62 0.0 0 0 111.09 154.90
  Q 91.29 162.06 69.66 162.70
  Q 67.72 162.75 66.91 160.57
  C 65.57 156.96 64.64 153.49 63.28 152.06
  A 0.48 0.47 32.6 0 0 62.49 152.23
  L 59.39 161.35
  A 1.61 1.59 88.9 0 1 58.47 162.32
  Q 56.76 162.99 55.49 162.89
  Q 36.40 161.36 19.52 156.48
  Q 16.47 155.60 13.97 154.04
  A 2.28 2.27 25.8 0 1 13.03 151.36
  Q 15.63 143.96 18.10 136.88
  Q 26.24 113.52 28.57 90.51
  Q 30.18 74.72 27.42 55.76
  Q 27.23 54.44 27.96 52.24
  A 3.44 3.26 -18.2 0 1 28.49 51.26
  Q 33.60 44.72 36.85 37.72
  A 3.66 3.63 -38.2 0 0 37.12 35.54
  L 33.62 17.35
  A 2.01 2.00 -13.3 0 1 35.05 15.04
  L 35.28 15.01
  A 2.23 2.23 0.0 0 1 37.79 16.76
  L 41.66 35.31
  A 0.48 0.48 0.0 0 0 41.96 35.65
  Q 53.12 39.84 62.59 46.94
  A 0.65 0.63 45.8 0 0 63.35 46.96
  Q 73.10 40.18 84.44 35.77
  A 0.70 0.70 0.0 0 0 84.88 35.24
  L 88.05 16.92
  A 2.10 2.09 10.2 0 1 90.50 15.22
  L 90.61 15.24
  A 1.97 1.97 0.0 0 1 92.25 17.54
  L 89.13 35.05
  A 4.55 4.53 38.4 0 0 89.44 37.66
  Q 92.62 44.86 97.56 51.38
  Q 98.70 52.90 98.47 56.26
  Q 97.44 71.27 97.25 75.74
  C 96.87 84.63 97.91 94.34 99.80 103.65
  Q 103.70 122.92 110.70 144.08
  Z
  M 176.25 19.55
  A 0.95 0.94 85.2 0 0 175.26 18.71
  Q 151.63 20.02 128.64 18.82
  A 0.65 0.64 6.6 0 0 127.97 19.35
  Q 126.27 28.91 122.25 40.04
  Q 121.64 41.76 121.61 43.25
  A 0.62 0.62 0.0 0 0 122.45 43.84
  C 129.89 41.12 133.00 32.62 134.11 25.43
  A 1.69 1.69 0.0 0 1 136.07 24.03
  L 136.98 24.18
  A 1.65 1.65 0.0 0 1 138.33 26.01
  C 137.00 36.20 131.56 46.72 120.78 48.59
  A 0.78 0.78 0.0 0 0 120.16 49.17
  Q 119.72 50.91 119.01 55.50
  Q 117.12 67.58 116.33 86.75
  C 115.25 112.81 115.04 140.26 116.94 167.31
  A 1.14 1.14 0.0 0 0 117.76 168.32
  Q 127.77 171.24 138.02 169.28
  A 1.01 1.00 89.6 0 0 138.82 168.46
  Q 140.34 159.79 141.39 150.82
  Q 146.62 106.20 150.16 70.93
  Q 150.30 69.55 150.90 68.71
  A 2.04 1.78 36.1 0 1 153.61 68.47
  Q 154.34 69.01 154.43 70.07
  Q 157.68 107.95 163.09 151.99
  Q 164.15 160.67 165.58 168.03
  A 1.59 1.57 -0.7 0 0 166.88 169.28
  Q 176.29 170.82 185.78 168.53
  A 1.70 1.70 0.0 0 0 187.07 167.02
  C 189.45 138.97 188.96 111.64 187.75 82.25
  Q 187.08 66.09 184.34 49.62
  A 1.04 1.04 0.0 0 0 183.50 48.77
  C 172.51 46.78 166.75 37.02 165.45 26.75
  A 2.21 2.21 0.0 0 1 167.26 24.30
  L 167.29 24.30
  A 2.10 2.10 0.0 0 1 169.72 26.03
  C 170.93 33.45 174.19 41.90 181.88 44.22
  A 0.95 0.95 0.0 0 0 183.04 42.98
  C 180.27 35.50 177.15 27.06 176.25 19.55
  Z
  M 59.55 50.42
  A 0.88 0.88 0.0 0 0 59.21 49.60
  Q 50.94 43.33 41.22 39.77
  A 0.82 0.82 0.0 0 0 40.19 40.21
  Q 37.18 46.93 32.61 52.58
  A 4.09 4.08 60.3 0 0 31.75 55.74
  Q 34.12 72.00 33.08 87.59
  C 31.71 108.04 25.78 129.98 18.04 150.42
  A 1.03 1.03 0.0 0 0 18.70 151.77
  Q 35.68 156.98 54.87 158.53
  A 1.20 1.20 0.0 0 0 56.09 157.74
  Q 59.30 148.69 60.92 144.61
  A 2.37 2.23 -69.4 0 1 63.79 143.20
  Q 64.96 143.61 65.80 145.52
  Q 67.92 150.39 70.30 157.58
  A 1.37 1.36 -11.1 0 0 71.70 158.51
  Q 91.60 157.17 108.16 151.35
  A 0.94 0.94 0.0 0 0 108.73 150.13
  Q 100.45 128.11 95.75 104.99
  C 92.36 88.31 92.45 72.08 94.23 55.02
  A 1.67 1.64 32.3 0 0 93.98 53.96
  L 85.42 40.17
  A 0.36 0.36 0.0 0 0 84.98 40.02
  Q 74.70 43.91 67.24 49.42
  A 0.68 0.68 0.0 0 0 67.16 50.45
  L 69.81 53.09
  A 1.56 1.56 0.0 0 1 69.81 55.29
  L 69.30 55.80
  A 1.77 1.77 0.0 0 1 66.80 55.80
  L 64.22 53.22
  A 1.06 1.06 0.0 0 0 62.72 53.22
  L 59.86 56.08
  A 2.03 2.02 50.3 0 1 56.75 55.79
  L 56.56 55.50
  A 2.09 2.09 0.0 0 1 57.10 52.69
  Q 59.48 50.97 59.55 50.42
  Z"
/>
</svg>
