<?xml version="1.0" encoding="UTF-8" standalone="no"?>
<!DOCTYPE svg PUBLIC "-//W3C//DTD SVG 1.1//EN" "http://www.w3.org/Graphics/SVG/1.1/DTD/svg11.dtd">
<svg xmlns="http://www.w3.org/2000/svg" version="1.1" viewBox="0.00 0.00 478.00 522.00">
<path fill="#9e56e6" d="
  M 215.95 207.68
  A 0.91 0.91 0.0 0 0 215.12 206.77
  C 205.53 205.99 194.37 203.16 185.48 198.67
  Q 168.83 190.26 155.71 177.06
  Q 143.19 164.44 136.13 153.21
  Q 130.66 144.52 124.66 132.35
  C 116.82 116.48 111.75 99.29 108.24 81.26
  Q 106.98 74.80 107.05 66.97
  A 3.51 3.51 0.0 0 1 110.65 63.49
  L 110.78 63.49
  A 3.90 3.90 0.0 0 1 114.56 66.99
  Q 116.63 87.01 120.68 100.60
  Q 125.41 116.43 132.78 132.47
  Q 135.94 139.34 138.80 143.77
  Q 151.06 162.73 164.33 175.05
  Q 172.52 182.66 184.27 189.66
  C 193.46 195.14 203.60 198.20 213.91 199.56
  A 1.59 1.59 0.0 0 0 215.70 198.15
  Q 216.03 195.08 216.19 194.24
  C 216.93 190.35 221.83 189.63 223.70 193.25
  A 1.84 1.80 30.4 0 1 223.90 193.99
  L 224.07 197.72
  A 1.67 1.66 87.1 0 0 225.82 199.31
  C 229.52 199.11 236.22 198.18 240.74 196.47
  Q 255.23 191.01 263.87 184.64
  C 274.57 176.77 286.64 164.73 294.39 152.23
  Q 296.51 148.82 301.20 141.71
  Q 306.10 134.30 310.42 124.18
  Q 322.15 96.77 325.21 66.67
  C 325.51 63.68 329.38 61.90 331.29 64.81
  Q 332.53 66.70 332.14 70.52
  Q 328.30 108.68 310.05 141.58
  Q 305.27 150.20 293.79 165.29
  Q 285.58 176.09 279.13 181.74
  C 268.73 190.87 257.23 198.87 243.72 202.81
  C 236.16 205.01 233.16 205.93 226.75 206.23
  Q 223.59 206.38 223.94 209.46
  Q 224.29 212.52 224.53 217.25
  A 2.20 2.19 6.5 0 0 226.13 219.25
  Q 235.07 221.79 239.96 228.09
  C 246.02 235.89 249.66 246.65 245.20 256.23
  C 240.78 265.72 234.43 271.91 223.69 273.49
  C 212.37 275.14 201.32 268.25 195.79 258.61
  C 187.16 243.57 197.23 222.49 214.15 219.57
  A 2.17 2.17 0.0 0 0 215.95 217.43
  L 215.95 207.68
  Z
  M 239.93 246.15
  A 19.73 19.73 0.0 0 0 220.20 226.42
  A 19.73 19.73 0.0 0 0 200.47 246.15
  A 19.73 19.73 0.0 0 0 220.20 265.88
  A 19.73 19.73 0.0 0 0 239.93 246.15
  Z"
/>
<path fill="#9e56e6" d="
  M 365.55 260.46
  A 2.71 2.69 72.9 0 0 364.25 262.94
  C 364.41 265.49 365.24 269.09 363.87 270.42
  C 362.23 272.02 359.01 272.86 357.41 270.66
  Q 356.06 268.81 355.73 266.00
  C 355.14 260.98 358.64 256.34 362.63 253.60
  C 371.38 247.58 381.39 253.71 383.87 262.83
  A 2.53 2.53 0.0 0 1 382.20 265.91
  L 380.02 266.61
  A 2.73 2.73 0.0 0 1 376.58 264.85
  L 375.67 262.02
  A 1.67 1.66 -82.3 0 0 375.01 261.15
  Q 369.90 257.83 365.55 260.46
  Z"
/>
<path fill="#9e56e6" d="
  M 327.31 286.54
  Q 325.12 289.14 321.48 287.07
  A 2.82 2.81 -74.3 0 1 320.06 284.52
  C 320.16 280.95 321.06 276.58 316.32 275.64
  Q 311.69 274.71 309.05 278.32
  A 1.61 1.47 -22.6 0 0 308.80 278.86
  L 307.94 282.51
  A 1.92 1.89 -17.9 0 1 307.48 283.39
  C 305.55 285.51 301.81 284.01 300.83 281.80
  C 299.23 278.19 304.93 271.35 307.34 269.78
  C 314.70 265.01 322.11 267.63 326.61 274.77
  Q 329.77 279.79 327.81 285.66
  A 2.55 2.53 -15.7 0 1 327.31 286.54
  Z"
/>
<path fill="#9e56e6" d="
  M 381.37 286.75
  A 1.46 1.45 -12.4 0 0 382.93 287.74
  Q 391.81 286.66 398.33 291.38
  C 401.40 293.60 405.28 297.73 407.21 301.42
  Q 413.60 313.55 406.15 325.88
  C 401.83 333.03 392.80 339.11 384.33 338.39
  Q 373.67 337.48 366.48 330.74
  C 361.10 325.68 358.21 317.56 359.42 310.01
  C 360.84 301.20 365.47 296.14 371.96 290.75
  A 2.67 2.66 -28.0 0 0 372.82 287.95
  L 370.16 278.74
  A 4.17 4.17 0.0 0 1 372.99 273.58
  L 373.05 273.56
  A 3.70 3.69 -19.3 0 1 377.88 275.88
  L 381.37 286.75
  Z
  M 402.39 312.92
  A 17.64 17.64 0.0 0 0 384.75 295.28
  A 17.64 17.64 0.0 0 0 367.11 312.92
  A 17.64 17.64 0.0 0 0 384.75 330.56
  A 17.64 17.64 0.0 0 0 402.39 312.92
  Z"
/>
<path fill="#9e56e6" d="
  M 161.04 279.86
  Q 165.78 279.87 167.48 280.08
  C 171.25 280.54 172.40 282.43 175.02 285.69
  Q 178.96 290.61 181.01 294.03
  Q 182.18 295.98 181.07 298.02
  Q 179.19 301.46 174.95 307.29
  A 1.62 1.61 -65.9 0 0 175.91 309.82
  C 183.51 311.47 188.51 313.55 196.28 317.55
  C 214.35 326.83 226.98 342.40 233.35 361.96
  Q 237.55 374.84 237.25 386.49
  Q 237.12 391.50 234.97 401.48
  Q 231.23 418.80 220.38 432.08
  C 206.23 449.40 183.22 460.61 160.77 460.58
  C 138.31 460.54 115.34 449.26 101.24 431.89
  Q 90.43 418.58 86.74 401.25
  Q 84.63 391.27 84.51 386.26
  Q 84.25 374.60 88.49 361.74
  C 94.92 342.20 107.59 326.67 125.69 317.44
  C 133.47 313.47 138.48 311.40 146.09 309.77
  A 1.62 1.61 66.1 0 0 147.05 307.25
  Q 142.83 301.40 140.96 297.96
  Q 139.86 295.92 141.03 293.97
  Q 143.09 290.55 147.05 285.65
  C 149.68 282.40 150.84 280.51 154.61 280.06
  Q 156.30 279.86 161.04 279.86
  Z
  M 152.27 292.43
  L 169.57 292.53
  A 0.25 0.25 0.0 0 0 169.82 292.28
  L 169.82 292.14
  A 4.28 3.99 0.3 0 0 165.56 288.12
  L 156.32 288.08
  A 4.28 3.99 0.3 0 0 152.02 292.04
  L 152.02 292.18
  A 0.25 0.25 0.0 0 0 152.27 292.43
  Z
  M 169.84 300.13
  L 152.10 300.17
  A 0.03 0.03 0.0 0 0 152.07 300.20
  L 152.07 300.27
  A 8.16 7.86 -0.1 0 0 160.25 308.11
  L 161.73 308.11
  A 8.16 7.86 -0.1 0 0 169.87 300.23
  L 169.87 300.16
  A 0.03 0.03 0.0 0 0 169.84 300.13
  Z
  M 159.0009 315.7036
  A 68.73 68.60 -91.5 0 0 92.2235 386.2057
  A 68.73 68.60 -91.5 0 0 162.5991 453.1164
  A 68.73 68.60 -91.5 0 0 229.3765 382.6143
  A 68.73 68.60 -91.5 0 0 159.0009 315.7036
  Z"
/>
<path fill="#9e56e6" d="
  M 306.02 303.98
  C 306.40 300.26 306.83 295.13 308.74 291.84
  A 3.01 2.79 20.1 0 1 311.88 290.52
  Q 316.09 291.37 315.71 296.04
  Q 315.43 299.42 314.23 305.32
  A 2.18 2.18 0.0 0 0 315.05 307.50
  Q 316.53 308.62 319.44 310.53
  Q 325.91 314.78 328.96 324.05
  Q 331.51 331.79 328.19 339.45
  C 323.63 350.00 314.81 356.15 302.83 355.63
  Q 294.63 355.28 288.74 349.97
  C 281.07 343.05 276.89 331.46 281.19 321.72
  Q 283.80 315.79 289.26 311.27
  C 292.11 308.92 294.81 306.73 297.75 306.20
  Q 299.72 305.84 304.19 305.70
  A 1.92 1.91 -88.1 0 0 306.02 303.98
  Z
  M 322.04 330.59
  A 17.33 17.33 0.0 0 0 304.71 313.26
  A 17.33 17.33 0.0 0 0 287.38 330.59
  A 17.33 17.33 0.0 0 0 304.71 347.92
  A 17.33 17.33 0.0 0 0 322.04 330.59
  Z"
/>
<path fill="#9e56e6" d="
  M 210.46 422.23
  C 207.19 426.82 202.24 431.71 196.70 434.92
  Q 194.14 436.40 190.50 438.72
  C 175.88 448.01 156.53 448.11 140.35 443.04
  Q 136.06 441.69 130.92 438.51
  Q 124.04 434.25 122.02 432.82
  Q 115.53 428.25 110.21 420.79
  Q 97.98 403.63 98.05 382.15
  Q 98.06 377.62 99.14 374.42
  C 100.27 371.06 100.40 367.96 101.82 364.27
  Q 108.43 347.16 120.86 337.14
  Q 123.46 335.04 130.45 330.29
  C 145.63 319.96 169.21 319.71 185.74 327.26
  Q 186.61 327.66 192.98 331.50
  C 206.04 339.38 215.37 351.19 220.25 365.50
  C 223.25 374.31 222.79 382.24 222.61 391.26
  C 222.40 401.88 216.78 413.34 210.46 422.23
  Z
  M 215.70 384.28
  A 55.03 55.03 0.0 0 0 160.67 329.25
  A 55.03 55.03 0.0 0 0 105.64 384.28
  A 55.03 55.03 0.0 0 0 160.67 439.31
  A 55.03 55.03 0.0 0 0 215.70 384.28
  Z"
/>
</svg>
