<?xml version="1.0" encoding="UTF-8" standalone="no"?>
<!DOCTYPE svg PUBLIC "-//W3C//DTD SVG 1.1//EN" "http://www.w3.org/Graphics/SVG/1.1/DTD/svg11.dtd">
<svg xmlns="http://www.w3.org/2000/svg" version="1.1" viewBox="0.00 0.00 543.00 460.00">
<path fill="#000000" d="
  M 476.00 199.63
  A 0.64 0.64 0.0 0 0 475.97 200.74
  Q 485.20 206.40 488.81 208.51
  Q 494.89 212.06 497.25 214.62
  C 502.39 220.18 505.22 227.81 505.98 235.47
  C 506.54 241.17 505.85 249.86 501.26 253.97
  Q 499.44 255.59 494.62 257.87
  Q 484.77 262.53 481.79 264.02
  A 3.89 3.82 -85.0 0 0 480.41 265.20
  Q 475.70 271.73 466.32 277.34
  Q 407.11 312.71 307.66 371.64
  Q 294.25 379.59 287.29 383.55
  Q 274.75 390.68 261.76 384.75
  Q 178.27 346.60 154.39 334.87
  Q 79.25 297.98 53.65 284.85
  C 42.18 278.96 35.98 266.43 38.87 253.65
  C 41.12 243.67 47.44 236.13 56.36 231.59
  A 0.54 0.54 0.0 0 0 56.43 230.67
  Q 41.99 220.47 44.95 202.76
  C 47.06 190.13 56.65 178.86 67.81 172.33
  Q 119.15 142.30 243.87 69.89
  Q 250.57 66.00 251.70 65.46
  C 262.43 60.32 271.02 61.17 283.33 65.32
  Q 292.19 68.30 299.50 70.91
  A 2.20 2.20 0.0 0 0 301.27 70.79
  C 309.61 66.49 319.32 62.38 327.99 61.66
  Q 335.81 61.01 345.36 64.67
  Q 374.45 75.83 421.38 94.61
  C 430.74 98.36 432.18 104.42 434.25 114.18
  Q 435.45 119.84 436.10 125.26
  A 2.82 2.80 8.6 0 0 437.75 127.49
  Q 450.98 133.39 467.17 140.33
  C 475.74 144.00 483.62 149.36 484.26 158.76
  Q 484.64 164.19 481.50 168.69
  A 0.99 0.99 0.0 0 0 481.79 170.09
  C 492.00 176.55 492.04 189.20 482.14 195.90
  Q 479.02 198.01 476.00 199.63
  Z
  M 285.07 137.12
  Q 276.91 137.21 271.79 137.18
  C 264.35 137.12 256.60 135.26 255.88 126.73
  C 255.58 123.22 257.49 118.73 259.09 115.58
  C 266.47 101.03 277.37 85.18 291.06 76.01
  A 0.41 0.41 0.0 0 0 290.98 75.28
  Q 283.79 72.44 275.67 70.09
  Q 263.45 66.55 252.29 73.04
  Q 167.61 122.29 76.06 175.61
  Q 67.85 180.39 64.62 183.25
  C 50.53 195.74 43.88 216.69 64.61 227.42
  Q 106.51 249.12 137.88 264.98
  A 0.44 0.44 0.0 0 0 138.52 264.58
  C 138.26 244.37 146.48 228.21 161.32 214.55
  Q 170.81 205.80 178.94 200.93
  Q 195.77 190.84 285.18 137.51
  A 0.21 0.21 0.0 0 0 285.07 137.12
  Z
  M 314.84 136.02
  Q 319.25 143.59 329.07 158.80
  Q 331.75 162.96 337.53 162.43
  Q 345.37 161.72 352.83 160.09
  Q 377.35 154.75 400.21 145.97
  C 409.27 142.49 418.83 138.34 426.52 132.27
  Q 428.33 130.85 429.18 129.20
  A 2.18 2.17 -35.5 0 0 429.40 127.89
  Q 428.27 120.05 426.56 112.45
  C 425.37 107.12 424.19 103.61 419.52 101.49
  Q 414.17 99.07 411.14 97.87
  Q 383.74 87.02 348.96 73.65
  C 338.59 69.66 332.46 67.25 323.12 69.62
  Q 315.27 71.62 304.17 76.75
  C 295.06 80.97 288.37 86.15 282.03 93.53
  Q 272.26 104.90 265.76 117.79
  C 264.64 120.01 260.96 127.49 264.66 128.95
  C 269.08 130.68 274.67 130.31 281.75 130.04
  Q 292.63 129.61 302.81 128.95
  A 0.72 0.71 -7.9 0 0 303.47 128.09
  C 298.52 105.73 307.69 85.45 327.17 73.99
  A 3.93 3.93 0.0 0 1 332.40 75.16
  L 332.50 75.31
  A 3.46 3.46 0.0 0 1 331.07 80.37
  L 326.23 82.61
  A 0.70 0.70 0.0 0 0 326.25 83.89
  L 394.77 113.13
  A 3.37 3.34 -42.8 0 0 397.17 113.21
  Q 404.44 110.67 411.15 105.96
  A 3.36 3.36 0.0 0 1 415.98 107.01
  L 416.02 107.08
  A 3.82 3.81 58.9 0 1 414.74 112.25
  C 404.10 118.82 394.53 121.83 382.80 124.79
  C 360.73 130.38 338.05 133.22 315.31 135.12
  A 0.60 0.60 0.0 0 0 314.84 136.02
  Z
  M 384.57 116.33
  L 320.84 89.14
  A 1.93 1.91 30.2 0 0 318.57 89.73
  Q 305.31 106.90 310.69 128.00
  A 0.59 0.59 0.0 0 0 311.30 128.44
  Q 349.25 125.94 384.49 117.26
  A 0.49 0.49 0.0 0 0 384.57 116.33
  Z
  M 315.39 150.45
  A 0.80 0.80 0.0 0 0 314.29 150.19
  Q 276.44 173.54 210.87 214.10
  C 197.85 222.16 187.07 228.91 177.95 240.24
  C 169.42 250.85 165.36 263.95 166.57 277.29
  A 2.00 1.99 9.6 0 0 167.75 278.94
  Q 211.81 298.67 262.11 320.12
  C 271.18 323.99 278.69 320.59 286.23 315.74
  Q 297.39 308.57 310.45 299.95
  Q 399.52 241.14 478.35 189.84
  C 484.74 185.68 483.25 178.63 477.10 175.26
  A 1.61 1.60 -46.9 0 0 475.47 175.32
  Q 386.83 232.70 294.37 291.61
  Q 287.88 295.75 285.18 303.72
  A 3.12 3.11 -67.8 0 1 280.88 305.53
  L 280.81 305.49
  A 3.91 3.90 23.7 0 1 278.87 300.54
  Q 282.73 290.71 291.62 285.13
  Q 325.60 263.83 467.51 172.29
  Q 471.49 169.72 474.34 166.46
  C 481.75 157.99 474.35 151.10 466.72 147.76
  Q 440.75 136.39 435.68 134.13
  A 1.15 1.15 0.0 0 0 434.29 134.47
  C 430.69 139.04 424.24 142.75 418.75 145.47
  C 399.97 154.78 375.61 162.40 353.77 167.05
  Q 344.74 168.97 337.75 169.32
  Q 326.93 169.85 321.50 160.54
  Q 319.34 156.82 315.39 150.45
  Z
  M 159.43 274.55
  Q 159.53 272.88 159.62 270.00
  C 160.48 244.14 177.79 226.89 198.51 213.77
  Q 203.00 210.93 310.42 144.48
  A 1.02 1.01 -30.9 0 0 310.77 143.11
  L 307.00 136.59
  A 1.53 1.52 72.3 0 0 305.54 135.83
  L 300.84 136.28
  A 2.81 2.67 25.4 0 0 299.68 136.66
  Q 246.95 168.63 186.39 204.39
  C 163.48 217.91 143.53 238.40 145.55 267.19
  A 2.56 2.56 0.0 0 0 147.02 269.34
  L 158.80 274.92
  A 0.45 0.44 14.2 0 0 159.43 274.55
  Z
  M 469.29 204.91
  A 0.73 0.73 0.0 0 0 468.58 204.91
  L 455.20 212.63
  A 0.73 0.73 0.0 0 0 455.22 213.90
  L 459.86 216.44
  A 0.73 0.73 0.0 0 0 460.58 216.43
  L 473.94 208.71
  A 0.73 0.73 0.0 0 0 473.93 207.44
  L 469.29 204.91
  Z
  M 476.75 228.59
  A 0.32 0.32 0.0 0 0 477.12 228.63
  L 492.54 219.72
  A 0.32 0.32 0.0 0 0 492.56 219.17
  L 482.10 212.19
  A 0.32 0.32 0.0 0 0 481.76 212.18
  L 467.66 220.32
  A 0.32 0.32 0.0 0 0 467.62 220.84
  L 476.75 228.59
  Z
  M 469.68 231.82
  Q 465.75 227.91 460.23 225.20
  A 1.22 1.21 -47.1 0 0 459.07 225.25
  L 442.30 235.36
  A 3.28 3.27 -31.4 0 1 437.83 234.28
  L 437.63 233.98
  A 3.31 3.31 0.0 0 1 438.70 229.25
  L 452.33 221.39
  A 0.52 0.52 0.0 0 0 452.32 220.49
  L 448.88 218.61
  A 1.97 1.97 0.0 0 0 446.85 218.69
  Q 373.10 266.63 290.99 321.01
  C 280.65 327.85 271.05 331.36 258.82 326.16
  Q 215.96 307.90 176.43 290.39
  A 2.30 2.28 39.0 0 0 174.17 290.62
  Q 158.35 301.90 159.97 321.51
  C 160.20 324.27 161.33 330.58 164.29 331.99
  Q 213.53 355.34 264.38 378.36
  C 272.71 382.13 279.19 380.34 286.66 375.93
  Q 348.90 339.23 461.08 272.39
  C 468.63 267.89 474.97 263.74 476.77 254.81
  A 0.59 0.58 80.1 0 0 475.90 254.19
  Q 469.95 257.81 457.42 264.88
  Q 350.28 325.38 291.01 358.51
  Q 286.09 361.26 283.05 367.63
  A 3.16 3.15 27.2 0 1 278.68 369.03
  L 278.48 368.92
  A 3.56 3.56 0.0 0 1 277.00 364.23
  Q 281.04 356.00 288.73 351.72
  Q 375.36 303.44 475.69 246.54
  A 1.84 1.83 -24.1 0 0 476.53 244.36
  L 474.82 239.12
  A 1.44 1.44 0.0 0 0 472.36 238.64
  L 467.59 244.26
  A 3.67 3.66 37.8 0 1 462.67 244.88
  L 462.45 244.72
  A 3.46 3.45 38.3 0 1 461.85 239.62
  Q 465.59 235.34 469.55 232.93
  A 0.71 0.71 0.0 0 0 469.68 231.82
  Z
  M 483.03 241.79
  A 0.75 0.75 0.0 0 0 484.12 242.21
  L 498.63 233.82
  A 0.75 0.75 0.0 0 0 498.97 232.94
  L 496.82 226.36
  A 0.75 0.75 0.0 0 0 495.73 225.94
  L 481.21 234.33
  A 0.75 0.75 0.0 0 0 480.87 235.21
  L 483.03 241.79
  Z
  M 140.48 319.80
  C 138.40 304.83 142.87 291.11 153.98 281.08
  A 0.67 0.67 0.0 0 0 153.81 279.97
  C 124.21 266.24 106.34 256.59 65.21 235.37
  A 1.04 1.01 -43.1 0 0 64.31 235.35
  C 55.87 239.17 48.69 244.27 46.05 253.71
  Q 43.20 263.91 49.11 272.10
  C 51.89 275.96 55.56 278.21 60.22 280.54
  Q 110.37 305.55 139.87 320.24
  A 0.43 0.43 0.0 0 0 140.48 319.80
  Z
  M 484.50 254.96
  L 494.90 249.87
  A 5.90 5.85 -1.9 0 0 497.72 246.89
  L 499.19 243.45
  A 0.93 0.93 0.0 0 0 497.87 242.27
  L 484.58 249.95
  A 1.78 1.77 75.2 0 0 483.69 251.49
  L 483.69 254.46
  A 0.56 0.56 0.0 0 0 484.50 254.96
  Z
  M 152.50 326.60
  A 0.76 0.75 -80.1 0 0 153.60 325.82
  Q 149.90 302.23 166.73 287.39
  A 0.93 0.92 35.9 0 0 166.48 285.85
  L 163.03 284.38
  A 2.33 2.32 38.7 0 0 160.79 284.62
  C 148.38 293.44 144.28 308.88 148.43 323.21
  A 3.48 3.44 -83.9 0 0 150.09 325.29
  L 152.50 326.60
  Z"
/>
<ellipse fill="#000000" cx="0.00" cy="0.00" transform="translate(268.96,162.83) rotate(-29.7)" rx="4.89" ry="4.48"/>
<ellipse fill="#000000" cx="0.00" cy="0.00" transform="translate(220.05,193.21) rotate(-14.1)" rx="4.73" ry="4.52"/>
<path fill="#000000" d="
  M 288.48 207.86
  Q 288.49 207.99 288.81 208.36
  Q 289.03 208.62 289.19 208.70
  Q 313.91 221.97 332.08 232.29
  Q 334.32 233.55 337.69 236.37
  A 2.86 2.86 0.0 0 1 337.55 240.87
  L 336.90 241.35
  A 3.20 3.20 0.0 0 1 333.21 241.42
  Q 327.46 237.52 324.75 235.99
  Q 305.98 225.43 282.50 212.89
  A 1.62 1.61 -48.5 0 0 280.82 213.00
  Q 266.42 223.18 256.59 230.80
  C 249.61 236.20 248.46 246.38 256.76 251.26
  Q 269.55 258.77 287.78 268.17
  A 3.37 3.36 -62.2 0 1 289.19 272.76
  L 289.12 272.89
  A 3.43 3.43 0.0 0 1 284.52 274.30
  Q 284.27 274.17 261.14 261.64
  C 255.64 258.67 250.58 256.33 247.68 252.26
  C 241.25 243.27 243.49 232.15 252.12 225.58
  Q 268.10 213.41 291.99 196.72
  C 295.28 194.42 296.77 195.73 300.22 197.59
  Q 320.75 208.66 350.57 225.28
  A 3.85 3.84 -64.8 0 1 352.28 230.04
  L 352.21 230.21
  A 2.85 2.84 24.8 0 1 348.19 231.69
  L 295.98 203.15
  A 1.68 1.67 41.0 0 0 294.20 203.27
  L 288.74 207.30
  A 0.63 0.62 -20.7 0 0 288.48 207.86
  Z"
/>
<ellipse fill="#000000" cx="0.00" cy="0.00" transform="translate(169.31,227.77) rotate(-46.5)" rx="5.12" ry="4.37"/>
</svg>
