<?xml version="1.0" encoding="UTF-8" standalone="no"?>
<!DOCTYPE svg PUBLIC "-//W3C//DTD SVG 1.1//EN" "http://www.w3.org/Graphics/SVG/1.1/DTD/svg11.dtd">
<svg xmlns="http://www.w3.org/2000/svg" version="1.1" viewBox="0.00 0.00 484.00 516.00">
<circle fill="#9f51ee" cx="242.86" cy="52.54" r="4.17"/>
<circle fill="#9f51ee" cx="118.99" cy="59.48" r="4.30"/>
<rect fill="#9f51ee" x="-4.32" y="-13.11" transform="translate(376.04,66.54) rotate(44.9)" width="8.64" height="26.22" rx="4.18"/>
<circle fill="#9f51ee" cx="242.88" cy="70.05" r="4.18"/>
<path fill="#9f51ee" d="
  M 355.36 138.72
  C 355.38 139.64 356.19 140.45 357.09 140.78
  Q 395.43 154.66 416.44 161.06
  C 422.44 162.89 421.80 166.65 421.84 172.49
  Q 421.99 194.54 421.89 213.18
  C 421.87 216.50 422.08 219.06 419.08 220.58
  Q 418.22 221.01 406.98 225.65
  A 1.76 1.74 79.2 0 0 405.90 227.26
  Q 405.69 307.05 405.92 370.28
  Q 405.94 373.37 403.36 374.58
  Q 386.15 382.70 359.98 394.41
  Q 340.27 403.22 320.58 412.20
  Q 270.88 434.85 246.62 446.11
  C 243.16 447.71 241.14 447.15 237.67 445.53
  Q 229.05 441.51 198.35 426.90
  C 161.83 409.51 118.35 389.63 86.96 374.81
  Q 83.84 373.34 83.87 369.27
  Q 83.97 349.33 83.83 243.51
  Q 83.82 236.57 84.05 227.86
  A 2.17 2.17 0.0 0 0 82.80 225.85
  Q 79.70 224.40 72.16 221.30
  C 66.94 219.16 67.73 216.11 67.66 210.59
  Q 67.30 184.14 67.94 166.24
  C 68.04 163.33 69.90 162.19 72.66 161.31
  Q 100.25 152.46 129.61 142.16
  A 1.87 1.86 -9.2 0 0 130.86 140.43
  Q 131.05 130.01 135.96 121.33
  A 7.14 7.11 58.6 0 0 136.88 117.50
  C 136.12 100.24 140.47 86.09 155.05 76.88
  C 168.48 68.41 183.40 71.50 195.69 79.82
  C 205.34 86.35 213.00 94.86 219.83 103.68
  Q 221.71 106.12 224.17 105.22
  Q 240.91 99.08 241.55 98.97
  Q 245.85 98.26 249.72 99.84
  Q 250.02 99.96 263.03 104.68
  A 2.74 2.73 -60.4 0 0 266.08 103.83
  Q 270.30 98.67 271.71 96.95
  C 283.64 82.48 302.91 66.70 323.27 73.29
  C 342.30 79.45 351.27 97.84 348.96 117.09
  A 6.27 6.21 -54.3 0 0 349.49 120.45
  C 351.92 125.68 355.20 131.82 355.36 138.72
  Z
  M 217.05 159.37
  C 218.41 158.91 219.68 156.66 217.61 155.87
  Q 216.77 155.54 215.49 155.68
  Q 203.77 156.89 200.24 156.90
  C 184.09 156.94 154.47 150.70 152.34 129.91
  Q 151.75 124.08 155.80 119.00
  C 165.23 107.20 181.70 108.90 194.14 114.36
  C 204.47 118.90 214.01 125.05 223.19 131.71
  Q 224.54 132.70 225.81 131.87
  C 227.96 130.47 227.57 129.14 226.25 127.16
  C 217.03 113.36 211.11 105.08 200.86 95.07
  C 190.33 84.78 174.48 74.79 159.88 83.90
  C 149.65 90.28 144.78 101.31 145.65 113.70
  Q 145.86 116.81 145.79 118.86
  A 6.01 5.87 -31.9 0 1 145.21 121.23
  C 142.40 127.04 140.65 130.70 139.79 137.76
  C 137.69 154.96 154.33 164.02 169.04 165.25
  Q 193.57 167.28 217.05 159.37
  Z
  M 259.03 128.26
  C 257.81 130.40 259.90 132.41 261.87 132.23
  A 1.86 1.80 23.0 0 0 262.80 131.87
  Q 273.74 123.66 286.59 116.85
  C 297.77 110.92 312.68 106.98 324.26 113.52
  C 332.01 117.90 336.39 127.79 332.47 135.78
  Q 327.18 146.53 315.45 151.18
  Q 301.81 156.58 285.01 156.67
  Q 273.89 156.73 270.79 156.30
  Q 268.56 155.99 268.24 157.61
  A 2.04 1.99 15.2 0 0 269.59 159.90
  Q 288.09 166.28 308.04 165.83
  C 315.16 165.68 319.19 165.52 324.76 164.26
  C 335.16 161.89 345.51 154.19 346.33 142.80
  Q 346.92 134.63 343.90 128.53
  C 341.93 124.56 339.86 121.69 340.12 118.74
  C 340.98 108.92 340.70 100.33 334.95 92.12
  Q 327.10 80.92 314.37 80.52
  C 302.10 80.14 290.58 89.00 282.65 97.41
  Q 274.37 106.19 268.54 114.53
  Q 259.37 127.65 259.03 128.26
  Z
  M 258.47 113.91
  A 1.27 1.27 0.0 0 0 257.98 112.09
  Q 255.16 110.65 247.40 107.74
  C 244.83 106.78 242.93 107.08 240.67 107.91
  Q 234.79 110.08 228.19 112.59
  A 1.00 0.99 62.8 0 0 227.72 114.07
  L 235.06 125.20
  A 2.64 2.63 -16.7 0 0 237.26 126.38
  L 249.15 126.38
  A 2.48 2.47 -73.8 0 0 251.24 125.23
  L 258.47 113.91
  Z
  M 185.16 120.27
  Q 184.86 119.87 183.88 119.67
  Q 183.80 119.66 182.61 119.36
  C 175.60 117.60 165.50 118.16 161.86 125.32
  Q 160.95 127.08 161.14 128.54
  A 1.53 1.53 0.0 0 0 163.19 129.80
  L 184.71 121.92
  A 1.05 1.04 -29.9 0 0 185.16 120.27
  Z
  M 302.12 120.29
  A 1.00 1.00 0.0 0 0 302.52 121.87
  L 322.97 129.67
  A 1.47 1.46 -75.7 0 0 324.94 128.49
  Q 325.14 127.10 324.29 125.41
  C 320.91 118.53 311.28 117.86 304.56 119.45
  Q 303.42 119.72 303.35 119.73
  Q 302.41 119.91 302.12 120.29
  Z
  M 315.62 136.19
  Q 313.24 135.01 311.95 134.54
  Q 301.19 130.63 290.69 126.28
  Q 288.21 125.25 285.60 126.82
  Q 276.82 132.09 270.53 136.79
  Q 268.17 138.55 267.32 139.70
  A 1.91 1.90 -34.7 0 0 267.02 141.32
  L 268.14 145.47
  A 2.44 2.44 0.0 0 0 270.14 147.24
  Q 280.62 148.72 294.03 148.00
  Q 296.91 147.84 301.18 145.93
  Q 308.90 142.47 315.73 137.53
  A 0.78 0.78 0.0 0 0 315.62 136.19
  Z
  M 171.74 136.09
  Q 171.41 136.82 172.10 137.24
  Q 174.22 138.50 176.71 139.53
  Q 185.68 143.21 197.32 147.68
  Q 199.23 148.41 201.76 148.31
  Q 208.85 148.04 216.42 146.72
  A 2.03 2.01 -85.4 0 0 217.96 145.40
  L 219.25 141.71
  A 2.80 2.79 28.0 0 0 218.27 138.53
  Q 208.30 131.21 202.54 127.69
  Q 199.31 125.71 196.38 126.83
  Q 192.83 128.19 172.45 135.40
  Q 171.96 135.57 171.74 136.09
  Z
  M 242.43 164.71
  C 247.20 165.00 253.19 164.60 256.87 161.19
  C 261.40 156.98 260.33 147.04 258.10 142.00
  C 255.68 136.54 249.97 135.26 244.24 134.91
  C 238.51 134.56 232.69 135.14 229.62 140.27
  C 226.79 145.00 224.53 154.74 228.52 159.46
  C 231.76 163.29 237.66 164.42 242.43 164.71
  Z
  M 305.57 175.43
  Q 306.11 176.08 307.32 176.67
  C 314.40 180.13 324.25 183.18 332.16 186.49
  Q 339.76 189.66 343.37 190.55
  A 3.79 3.78 40.8 0 0 345.75 190.38
  L 401.85 167.25
  A 0.94 0.94 0.0 0 0 401.80 165.49
  L 355.47 149.29
  A 1.47 1.46 20.6 0 0 353.62 150.13
  Q 348.08 163.92 334.23 169.78
  Q 320.76 175.47 306.23 174.17
  A 0.77 0.77 0.0 0 0 305.57 175.43
  Z
  M 181.28 174.17
  Q 180.18 173.89 179.02 173.97
  C 161.64 175.21 140.55 169.08 133.45 151.54
  A 1.77 1.76 -20.6 0 0 131.23 150.54
  L 88.31 165.38
  A 1.07 1.07 0.0 0 0 88.17 167.34
  Q 95.12 170.90 99.43 172.64
  Q 135.59 187.15 138.81 188.69
  C 140.57 189.53 142.70 190.46 144.56 190.04
  Q 147.37 189.40 155.28 186.19
  C 162.95 183.07 171.69 180.40 178.34 177.08
  Q 180.28 176.11 181.48 175.24
  A 0.60 0.60 0.0 0 0 181.28 174.17
  Z
  M 192.57 215.78
  Q 193.13 215.38 193.43 214.88
  Q 201.82 200.74 210.35 190.59
  Q 218.52 180.88 223.65 175.14
  Q 225.16 173.45 226.82 170.82
  A 1.64 1.64 0.0 0 0 226.63 168.83
  Q 225.17 167.26 223.77 166.65
  A 1.66 1.64 48.3 0 0 222.67 166.58
  L 204.36 171.54
  A 3.10 2.79 21.4 0 0 203.88 171.72
  Q 199.52 173.92 198.41 174.65
  Q 185.58 183.10 174.76 193.76
  Q 172.76 195.73 171.78 197.71
  A 1.15 1.15 0.0 0 0 172.81 199.37
  Q 175.19 199.35 181.85 198.99
  C 185.37 198.79 187.64 199.31 188.50 203.01
  Q 190.52 211.65 191.38 215.33
  A 0.77 0.77 0.0 0 0 192.57 215.78
  Z
  M 293.32 216.38
  A 0.76 0.76 0.0 0 0 294.51 215.95
  Q 295.40 212.30 297.50 203.73
  C 298.39 200.07 300.65 199.57 304.15 199.80
  Q 310.76 200.23 313.12 200.27
  A 1.14 1.14 0.0 0 0 314.16 198.63
  Q 313.21 196.66 311.24 194.68
  Q 300.60 183.98 287.93 175.45
  Q 286.84 174.72 282.53 172.49
  A 3.08 2.77 -20.9 0 0 282.05 172.30
  L 263.91 167.19
  A 1.65 1.63 -47.7 0 0 262.81 167.25
  Q 261.41 167.84 259.95 169.39
  A 1.63 1.63 0.0 0 0 259.74 171.36
  Q 261.36 173.99 262.85 175.69
  Q 267.89 181.44 275.91 191.17
  Q 284.28 201.34 292.48 215.48
  Q 292.77 215.98 293.32 216.38
  Z
  M 76.62 213.24
  A 1.45 1.45 0.0 0 0 77.50 214.57
  L 136.80 239.72
  A 1.45 1.45 0.0 0 0 138.82 238.39
  L 138.82 198.97
  A 1.45 1.45 0.0 0 0 137.94 197.64
  L 78.64 172.49
  A 1.45 1.45 0.0 0 0 76.62 173.82
  L 76.62 213.24
  Z
  M 347.42 238.31
  A 1.88 1.88 0.0 0 0 350.02 240.05
  L 412.13 214.45
  A 1.88 1.88 0.0 0 0 413.29 212.71
  L 413.29 174.26
  A 1.88 1.88 0.0 0 0 410.69 172.52
  L 348.58 198.13
  A 1.88 1.88 0.0 0 0 347.42 199.87
  L 347.42 238.31
  Z
  M 242.85 180.05
  Q 244.15 180.04 245.04 180.44
  Q 251.63 183.41 257.62 185.40
  A 0.95 0.95 0.0 0 0 258.84 184.26
  Q 258.65 183.52 257.79 182.48
  Q 254.83 178.89 250.67 174.18
  A 2.56 2.56 0.0 0 0 248.57 173.32
  Q 245.20 173.57 242.83 173.58
  Q 240.45 173.58 237.09 173.36
  A 2.56 2.56 0.0 0 0 234.99 174.23
  Q 230.86 178.97 227.93 182.58
  Q 227.07 183.62 226.89 184.36
  A 0.95 0.95 0.0 0 0 228.11 185.49
  Q 234.09 183.47 240.66 180.46
  Q 241.55 180.05 242.85 180.05
  Z
  M 281.57 216.50
  A 1.31 1.30 -29.3 0 0 282.05 214.81
  Q 280.07 210.86 277.01 206.88
  C 273.91 202.86 272.21 200.22 267.99 198.55
  Q 256.76 194.10 245.40 189.35
  Q 243.17 188.42 240.43 189.63
  Q 230.01 194.24 218.46 198.41
  Q 214.62 199.80 212.54 202.04
  Q 207.40 207.57 204.00 213.72
  A 2.12 2.11 31.2 0 0 204.69 216.51
  Q 206.49 217.70 209.06 218.74
  Q 233.44 228.62 240.38 231.61
  Q 242.25 232.41 243.97 231.70
  Q 249.13 229.58 277.95 218.19
  Q 280.47 217.19 281.57 216.50
  Z
  M 330.08 194.84
  L 322.07 191.70
  A 0.11 0.11 0.0 0 0 321.93 191.76
  A 4.32 4.15 21.4 0 0 324.44 197.20
  L 324.61 197.27
  A 4.32 4.15 21.4 0 0 330.14 194.98
  A 0.11 0.11 0.0 0 0 330.08 194.84
  Z
  M 162.66 192.25
  L 156.71 194.44
  A 0.22 0.22 0.0 0 0 156.58 194.72
  L 156.62 194.82
  A 3.29 3.29 0.0 0 0 160.84 196.77
  L 161.03 196.70
  A 3.29 3.29 0.0 0 0 162.98 192.48
  L 162.94 192.38
  A 0.22 0.22 0.0 0 0 162.66 192.25
  Z
  M 174.66 404.37
  L 174.66 212.84
  A 2.52 2.51 16.1 0 0 173.48 210.71
  C 168.38 207.48 165.38 208.54 159.76 209.10
  C 156.65 209.41 156.06 207.47 154.69 204.73
  A 2.36 2.34 -3.2 0 0 153.38 203.57
  L 149.35 202.16
  A 1.36 1.36 0.0 0 0 147.54 203.45
  L 147.54 392.18
  A 2.53 2.51 -77.4 0 0 148.98 394.46
  L 172.69 405.63
  A 1.39 1.38 -77.5 0 0 174.66 404.37
  Z
  M 312.23 405.54
  Q 313.05 406.41 314.27 405.89
  Q 324.49 401.54 337.44 395.49
  A 2.41 2.40 -12.6 0 0 338.83 393.31
  L 338.83 204.00
  A 1.35 1.35 0.0 0 0 337.04 202.72
  L 331.35 204.69
  A 1.17 1.12 6.0 0 0 330.77 205.14
  Q 329.89 206.41 329.47 207.67
  A 3.18 3.18 0.0 0 1 326.71 209.84
  Q 323.44 210.10 318.87 209.75
  C 316.45 209.56 314.60 210.25 312.62 211.11
  A 1.34 1.33 80.5 0 0 311.82 212.24
  Q 311.52 216.78 311.54 221.02
  Q 311.82 288.84 311.56 401.58
  Q 311.56 402.11 311.52 402.91
  Q 311.42 404.67 312.23 405.54
  Z
  M 183.97 221.21
  Q 183.43 221.95 183.41 223.75
  C 183.22 240.43 182.81 250.70 183.32 258.05
  A 3.07 3.05 -80.6 0 0 185.18 260.66
  Q 212.25 272.02 234.55 281.58
  Q 236.43 282.38 237.59 281.90
  A 0.87 0.86 -11.2 0 0 238.14 281.08
  Q 237.90 265.58 237.90 242.20
  C 237.90 240.11 237.33 239.09 235.48 238.34
  Q 219.79 231.98 203.96 225.29
  Q 202.03 224.47 200.10 223.96
  A 2.17 2.17 0.0 0 0 197.47 225.44
  Q 196.72 227.92 195.42 231.17
  C 193.95 234.81 188.75 234.50 187.74 230.78
  Q 186.61 226.64 185.37 221.49
  A 0.79 0.79 0.0 0 0 183.97 221.21
  Z
  M 286.35 224.09
  Q 283.93 224.71 280.96 225.96
  Q 262.53 233.72 249.46 238.42
  Q 246.94 239.33 246.95 242.01
  Q 247.08 262.93 247.05 281.18
  A 1.34 1.33 -11.1 0 0 248.89 282.41
  L 301.35 260.78
  A 2.12 2.11 -11.2 0 0 302.67 258.82
  L 302.67 223.46
  A 0.97 0.97 0.0 0 0 300.90 222.90
  C 298.98 225.67 300.04 234.31 294.75 234.62
  C 293.01 234.72 291.55 233.63 290.94 232.04
  Q 289.40 228.04 287.96 224.86
  A 1.38 1.38 0.0 0 0 286.35 224.09
  Z
  M 348.63 249.69
  A 1.68 1.68 0.0 0 0 347.59 251.24
  L 347.59 388.21
  A 1.68 1.68 0.0 0 0 349.97 389.74
  L 396.54 368.55
  A 1.68 1.68 0.0 0 0 397.52 367.02
  L 397.52 232.05
  A 1.68 1.68 0.0 0 0 395.20 230.50
  L 348.63 249.69
  Z
  M 95.12 231.22
  A 1.45 1.45 0.0 0 0 93.10 232.55
  L 93.10 367.32
  A 1.45 1.45 0.0 0 0 93.93 368.63
  L 136.67 388.77
  A 1.45 1.45 0.0 0 0 138.74 387.45
  L 138.74 250.68
  A 1.45 1.45 0.0 0 0 137.86 249.35
  L 95.12 231.22
  Z
  M 185.27 269.56
  A 1.37 1.37 0.0 0 0 183.37 270.82
  L 183.37 409.60
  A 1.37 1.37 0.0 0 0 184.16 410.84
  L 236.04 435.28
  A 1.37 1.37 0.0 0 0 237.99 434.04
  L 237.99 292.82
  A 1.37 1.37 0.0 0 0 237.15 291.56
  L 185.27 269.56
  Z
  M 247.93 291.82
  A 1.37 1.37 0.0 0 0 247.08 293.09
  L 247.08 434.33
  A 1.37 1.37 0.0 0 0 249.02 435.58
  L 301.90 411.52
  A 1.37 1.37 0.0 0 0 302.70 410.27
  L 302.70 271.30
  A 1.37 1.37 0.0 0 0 300.81 270.03
  L 247.93 291.82
  Z"
/>
<path fill="#9f51ee" d="
  M 96.86 121.53
  C 96.77 124.82 88.88 127.35 87.44 128.14
  A 2.35 2.35 0.0 0 0 86.28 129.74
  C 86.03 131.04 86.12 137.17 84.13 139.45
  C 80.33 143.79 75.79 136.71 73.60 134.41
  A 3.80 3.79 -25.4 0 0 70.38 133.27
  C 66.68 133.74 57.02 135.83 59.52 128.75
  Q 59.97 127.47 63.55 121.52
  Q 63.68 121.31 63.70 120.60
  Q 63.72 119.90 63.60 119.68
  Q 60.36 113.54 59.98 112.24
  C 57.88 105.03 67.41 107.65 71.07 108.33
  A 3.80 3.79 28.6 0 0 74.35 107.37
  C 76.67 105.19 81.59 98.38 85.15 102.92
  C 87.01 105.31 86.58 111.42 86.75 112.74
  A 2.35 2.35 0.0 0 0 87.83 114.40
  C 89.22 115.27 96.95 118.23 96.86 121.53
  Z
  M 79.06 115.82
  A 1.09 1.09 0.0 0 0 77.79 115.39
  L 72.69 117.15
  A 1.09 1.09 0.0 0 0 71.96 118.18
  L 71.96 123.42
  A 1.09 1.09 0.0 0 0 72.58 124.40
  L 77.47 126.71
  A 1.09 1.09 0.0 0 0 78.79 126.41
  L 82.27 122.05
  A 1.09 1.09 0.0 0 0 82.32 120.77
  L 79.06 115.82
  Z"
/>
<path fill="#9f51ee" d="
  M 421.33 140.03
  C 414.79 144.21 414.29 134.46 413.86 130.83
  A 3.46 3.45 6.7 0 0 411.61 127.99
  Q 408.32 126.79 406.52 125.80
  C 402.79 123.75 402.04 120.14 406.10 117.81
  Q 406.23 117.74 412.14 115.20
  A 2.47 2.46 78.0 0 0 413.63 112.89
  C 413.57 109.74 413.35 104.41 415.45 102.47
  C 420.50 97.83 423.72 110.02 429.42 108.65
  Q 435.95 107.09 437.74 107.60
  C 443.72 109.29 439.12 115.18 436.92 119.11
  A 2.17 2.05 63.3 0 0 436.64 120.05
  C 436.40 124.18 442.33 128.85 441.01 132.33
  C 440.14 134.64 438.02 134.80 435.69 134.44
  Q 431.38 133.76 428.24 133.49
  A 2.68 2.67 21.6 0 0 425.92 134.49
  L 421.91 139.50
  A 2.44 2.21 -0.2 0 1 421.33 140.03
  Z
  M 419.44 118.59
  Q 418.33 120.22 417.96 120.77
  A 1.15 1.14 45.4 0 0 417.96 122.04
  L 421.01 126.65
  A 1.22 1.22 0.0 0 0 422.63 127.05
  Q 425.35 125.53 427.63 124.65
  Q 427.69 124.63 427.89 124.33
  Q 428.10 124.03 428.10 123.97
  Q 428.07 121.52 428.47 118.43
  A 1.22 1.22 0.0 0 0 427.50 117.08
  L 422.09 115.95
  A 1.15 1.14 22.9 0 0 420.91 116.42
  Q 420.54 116.97 419.44 118.59
  Z"
/>
<path fill="#9f51ee" d="
  M 445.3128 242.1795
  A 11.70 11.48 -62.0 0 1 449.9562 257.8995
  A 11.70 11.48 -62.0 0 1 434.3272 262.8405
  A 11.70 11.48 -62.0 0 1 429.6838 247.1205
  A 11.70 11.48 -62.0 0 1 445.3128 242.1795
  Z
  M 440.6730 249.2501
  A 3.36 3.16 -76.7 0 0 436.8248 251.7930
  A 3.36 3.16 -76.7 0 0 439.1270 255.7899
  A 3.36 3.16 -76.7 0 0 442.9752 253.2470
  A 3.36 3.16 -76.7 0 0 440.6730 249.2501
  Z"
/>
<ellipse fill="#9f51ee" cx="0.00" cy="0.00" transform="translate(36.93,258.49) rotate(-56.4)" rx="4.27" ry="4.09"/>
<circle fill="#9f51ee" cx="55.22" cy="258.61" r="4.12"/>
<path fill="#9f51ee" d="
  M 423.7467 388.4994
  A 14.85 14.68 -61.1 0 1 429.4218 408.5946
  A 14.85 14.68 -61.1 0 1 409.3933 414.5006
  A 14.85 14.68 -61.1 0 1 403.7182 394.4054
  A 14.85 14.68 -61.1 0 1 423.7467 388.4994
  Z
  M 417.3154 394.5879
  A 6.79 6.40 -84.8 0 0 410.3263 400.7700
  A 6.79 6.40 -84.8 0 0 416.0846 408.1121
  A 6.79 6.40 -84.8 0 0 423.0737 401.9300
  A 6.79 6.40 -84.8 0 0 417.3154 394.5879
  Z"
/>
<path fill="#9f51ee" d="
  M 82.53 404.06
  A 11.59 11.59 0.0 0 1 70.94 415.65
  A 11.59 11.59 0.0 0 1 59.35 404.06
  A 11.59 11.59 0.0 0 1 70.94 392.47
  A 11.59 11.59 0.0 0 1 82.53 404.06
  Z
  M 74.04 403.92
  A 2.98 2.98 0.0 0 0 71.06 400.94
  A 2.98 2.98 0.0 0 0 68.08 403.92
  A 2.98 2.98 0.0 0 0 71.06 406.90
  A 2.98 2.98 0.0 0 0 74.04 403.92
  Z"
/>
<circle fill="#9f51ee" cx="340.65" cy="451.46" r="4.43"/>
<circle fill="#9f51ee" cx="242.74" cy="468.31" r="4.44"/>
<ellipse fill="#9f51ee" cx="0.00" cy="0.00" transform="translate(242.71,486.17) rotate(-179.5)" rx="4.41" ry="4.24"/>
</svg>
