<?xml version="1.0" encoding="UTF-8" standalone="no"?>
<!DOCTYPE svg PUBLIC "-//W3C//DTD SVG 1.1//EN" "http://www.w3.org/Graphics/SVG/1.1/DTD/svg11.dtd">
<svg xmlns="http://www.w3.org/2000/svg" version="1.1" viewBox="0.00 0.00 553.00 452.00">
<path fill="#9952e0" d="
  M 498.79 164.71
  Q 499.62 165.98 501.91 168.87
  Q 504.80 172.52 507.90 180.35
  Q 513.41 194.28 518.55 209.70
  Q 522.01 220.07 523.61 227.17
  Q 524.31 230.26 522.91 233.98
  C 519.57 242.88 508.14 244.94 499.76 245.04
  C 497.55 245.07 496.20 245.97 494.66 247.83
  Q 483.66 261.12 466.82 265.31
  Q 457.36 267.67 445.15 268.85
  Q 443.47 269.01 441.87 271.12
  Q 429.09 287.97 408.38 294.89
  Q 391.35 300.57 372.13 301.08
  Q 369.48 301.15 367.99 303.01
  Q 356.81 316.96 339.61 322.33
  Q 322.34 327.73 305.96 330.95
  A 5.74 5.72 13.5 0 0 302.57 333.02
  C 294.49 343.26 285.36 348.56 271.52 346.41
  C 263.94 345.23 259.24 340.92 254.97 334.79
  A 3.97 3.96 74.1 0 0 251.91 333.08
  Q 240.86 332.50 230.09 329.91
  C 219.33 327.31 210.78 321.58 203.55 313.49
  A 3.93 3.92 -21.8 0 0 200.50 312.19
  Q 189.96 312.53 179.00 311.48
  Q 159.51 309.62 143.47 298.86
  C 140.18 296.66 137.83 294.32 134.20 290.88
  A 4.80 4.79 64.3 0 0 130.53 289.59
  C 110.69 291.20 94.92 284.73 83.44 268.52
  A 3.02 2.97 -11.9 0 0 81.57 267.32
  Q 59.59 262.99 40.31 250.99
  C 33.88 246.98 29.44 242.74 32.57 234.55
  Q 37.33 222.11 42.17 209.78
  Q 45.51 201.26 46.88 197.35
  C 49.61 189.58 51.91 182.96 56.31 176.89
  A 2.24 2.24 0.0 0 0 56.57 174.73
  Q 48.97 156.37 61.42 140.93
  Q 66.67 134.42 77.31 129.54
  C 87.43 124.90 98.06 121.26 109.66 116.62
  Q 192.00 83.72 241.38 64.12
  Q 251.51 60.10 257.80 58.57
  Q 278.12 53.63 297.91 59.09
  Q 304.88 61.01 315.87 64.65
  Q 332.78 70.24 356.59 78.43
  Q 418.77 99.80 472.49 117.79
  C 485.16 122.04 494.73 128.76 499.31 141.75
  C 501.82 148.86 501.17 155.24 498.53 162.42
  A 2.55 2.55 0.0 0 0 498.79 164.71
  Z
  M 485.79 133.67
  Q 480.50 128.13 473.18 125.57
  C 455.63 119.44 437.07 113.54 415.52 106.16
  Q 315.50 71.92 301.53 67.50
  Q 282.44 61.46 262.91 64.75
  Q 256.02 65.91 238.80 72.77
  Q 178.01 96.98 106.51 125.46
  Q 95.56 129.82 84.88 133.88
  C 78.86 136.17 72.23 139.31 68.43 144.41
  A 2.38 2.37 39.4 0 0 68.75 147.61
  Q 71.23 149.84 74.47 151.04
  Q 106.91 163.10 151.98 180.57
  C 186.18 193.82 222.81 207.71 250.84 218.63
  Q 276.29 228.55 301.81 217.56
  Q 311.80 213.26 403.25 172.54
  Q 471.44 142.18 481.95 137.19
  Q 484.26 136.09 485.61 135.20
  A 1.01 1.00 -38.7 0 0 485.79 133.67
  Z
  M 63.48 153.52
  A 1.80 1.79 -83.4 0 0 61.72 154.92
  Q 58.74 167.88 66.75 176.55
  C 70.20 180.29 75.67 182.52 80.91 184.56
  Q 108.76 195.40 144.65 209.98
  Q 151.66 212.83 158.57 215.67
  Q 205.60 235.02 239.13 248.39
  Q 255.14 254.77 261.87 255.85
  Q 276.05 258.12 289.98 255.16
  Q 296.53 253.78 314.84 245.38
  Q 367.27 221.34 403.26 205.23
  C 427.94 194.18 454.82 181.22 476.66 171.66
  Q 485.50 167.79 488.24 164.83
  C 494.12 158.47 494.19 150.29 491.71 142.36
  A 1.22 1.21 -20.8 0 0 490.06 141.62
  Q 461.03 154.63 413.55 175.91
  Q 407.84 178.46 400.67 181.66
  Q 367.46 196.48 317.54 218.42
  Q 298.30 226.87 293.48 228.19
  Q 280.96 231.62 267.65 230.25
  Q 260.66 229.53 246.94 224.63
  Q 238.62 221.65 223.19 215.67
  Q 218.60 213.89 215.00 212.49
  Q 145.16 185.31 80.80 160.92
  Q 72.54 157.79 64.05 153.72
  Q 63.64 153.53 63.48 153.52
  Z
  M 306.26 323.51
  Q 316.66 320.82 327.32 318.58
  Q 330.48 317.91 338.46 314.98
  Q 350.57 310.54 359.15 302.41
  Q 362.14 299.57 362.88 297.50
  A 3.69 3.67 48.8 0 0 363.01 295.46
  L 358.29 274.10
  A 3.20 3.20 0.0 0 1 361.08 270.23
  L 361.58 270.18
  A 3.94 3.94 0.0 0 1 365.80 273.26
  L 370.00 292.28
  A 2.29 2.28 -8.0 0 0 372.39 294.07
  C 397.40 292.45 420.98 287.39 436.55 266.08
  Q 437.83 264.34 437.27 262.77
  Q 434.11 253.75 430.20 240.40
  A 3.10 3.09 77.0 0 1 432.64 236.48
  L 432.91 236.42
  A 3.49 3.48 74.7 0 1 436.94 238.72
  L 444.05 259.99
  A 1.91 1.90 78.8 0 0 445.97 261.28
  C 463.16 260.19 478.44 256.74 489.62 242.66
  Q 491.23 240.64 490.44 238.57
  Q 487.22 230.07 483.92 218.19
  A 3.02 3.01 78.9 0 1 486.47 214.39
  L 486.79 214.34
  A 3.74 3.73 76.1 0 1 490.93 216.84
  L 497.37 236.12
  A 2.21 2.20 80.4 0 0 499.49 237.63
  C 504.00 237.58 510.48 237.06 514.21 234.19
  C 517.99 231.26 515.64 223.71 514.32 219.94
  Q 509.56 206.35 504.90 193.13
  C 502.83 187.26 499.89 181.20 497.34 175.21
  Q 496.33 172.83 494.61 171.19
  A 1.51 1.50 49.3 0 0 492.72 171.04
  Q 486.79 175.18 479.23 178.75
  Q 475.44 180.55 430.93 200.51
  C 416.48 206.99 401.28 214.74 387.83 220.29
  C 380.05 223.50 372.09 227.63 364.87 230.70
  Q 359.51 232.97 347.72 238.59
  Q 330.22 246.94 305.55 257.60
  Q 299.62 260.17 295.23 261.21
  C 285.44 263.54 277.62 264.88 267.71 263.74
  C 259.71 262.82 252.17 261.27 244.44 258.30
  Q 228.35 252.11 212.83 245.70
  Q 183.23 233.47 181.36 232.71
  Q 147.00 218.88 139.94 215.83
  C 134.76 213.59 128.51 211.48 122.86 209.17
  Q 99.14 199.50 75.37 190.14
  Q 68.85 187.57 62.63 183.56
  A 1.74 1.73 27.3 0 0 60.08 184.37
  Q 55.18 196.62 54.62 197.86
  C 50.86 206.19 47.06 217.54 43.61 225.83
  Q 41.29 231.41 39.44 238.47
  A 3.63 3.63 0.0 0 0 40.20 241.77
  Q 41.84 243.69 44.61 245.42
  Q 61.71 256.14 81.87 260.00
  A 2.01 1.99 16.6 0 0 84.09 258.81
  L 91.92 240.07
  A 3.49 3.49 0.0 0 1 96.39 238.16
  L 96.90 238.35
  A 3.01 3.00 19.7 0 1 98.82 242.39
  L 90.34 262.68
  A 3.17 3.14 -50.6 0 0 90.62 265.64
  Q 95.64 273.25 103.85 277.68
  C 111.83 281.99 120.21 282.86 129.50 282.58
  A 2.06 2.06 0.0 0 0 131.41 281.10
  L 137.09 261.58
  A 3.61 3.61 0.0 0 1 141.35 259.07
  L 141.56 259.12
  A 3.13 3.13 0.0 0 1 143.85 262.92
  L 138.70 283.43
  A 2.20 2.17 36.1 0 0 138.98 285.14
  Q 139.54 286.03 140.91 287.32
  C 151.26 297.06 162.48 302.10 177.29 303.81
  Q 188.37 305.09 198.73 304.86
  A 2.12 2.12 0.0 0 0 200.77 303.11
  L 204.21 283.83
  A 3.41 3.40 11.7 0 1 208.35 281.12
  L 208.80 281.22
  A 3.84 3.84 0.0 0 1 211.72 285.58
  Q 210.27 294.49 207.84 303.37
  Q 207.31 305.29 207.85 307.26
  A 2.11 2.10 -73.6 0 0 208.31 308.11
  Q 217.53 318.77 230.79 322.78
  C 236.90 324.63 245.67 325.33 251.94 325.98
  A 1.87 1.86 7.9 0 0 253.97 324.45
  L 257.94 302.19
  A 3.67 3.67 0.0 0 1 261.98 299.19
  L 262.24 299.22
  A 3.41 3.41 0.0 0 1 265.05 302.98
  Q 263.66 314.85 261.13 325.53
  C 259.53 332.31 265.25 337.26 271.07 338.92
  C 280.92 341.74 291.74 336.91 297.06 328.50
  Q 297.93 327.12 297.62 324.98
  Q 295.56 310.86 294.35 301.40
  Q 294.19 300.15 294.42 298.65
  C 295.02 294.70 300.20 295.56 301.13 299.01
  C 303.14 306.49 303.71 314.64 304.78 322.51
  A 1.20 1.20 0.0 0 0 306.26 323.51
  Z"
/>
<path fill="#9952e0" d="
  M 386.81 148.77
  Q 384.99 150.91 381.77 150.19
  C 374.28 148.49 366.38 142.79 361.22 140.08
  Q 351.84 135.17 342.07 139.31
  C 336.84 141.53 328.62 147.23 322.70 148.99
  C 311.57 152.31 302.83 146.73 292.90 141.06
  C 283.77 135.86 274.83 136.10 265.87 141.13
  C 258.47 145.30 249.44 150.58 240.55 149.95
  C 232.88 149.40 227.11 145.72 220.46 141.95
  Q 214.35 138.48 211.31 137.83
  Q 203.15 136.07 195.06 140.12
  Q 188.60 143.35 179.77 147.76
  Q 175.62 149.84 171.48 150.22
  A 3.43 3.42 -16.1 0 1 168.12 148.37
  C 166.76 145.68 169.12 143.92 171.77 143.07
  C 180.02 140.45 186.86 136.16 194.46 132.51
  C 208.65 125.70 218.79 132.92 232.29 140.21
  Q 238.49 143.56 246.71 142.16
  Q 249.75 141.63 257.09 137.61
  C 268.64 131.29 278.40 126.37 291.62 132.60
  Q 298.92 136.03 301.71 137.66
  Q 309.07 141.95 311.86 142.40
  C 326.78 144.80 336.64 128.76 352.24 130.04
  C 360.53 130.71 366.14 134.74 375.37 139.89
  Q 378.35 141.56 384.98 144.01
  Q 387.29 144.86 387.20 147.77
  A 1.63 1.61 66.6 0 1 386.81 148.77
  Z"
/>
<rect fill="#9952e0" x="-7.80" y="-3.57" transform="translate(485.29,189.51) rotate(-25.2)" width="15.60" height="7.14" rx="3.41"/>
<rect fill="#9952e0" x="-7.80" y="-3.47" transform="translate(462.13,200.63) rotate(-27.0)" width="15.60" height="6.94" rx="3.34"/>
<ellipse fill="#9952e0" cx="0.00" cy="0.00" transform="translate(69.90,201.80) rotate(-158.0)" rx="8.19" ry="3.99"/>
<rect fill="#9952e0" x="-7.97" y="-3.50" transform="translate(93.16,211.30) rotate(22.2)" width="15.94" height="7.00" rx="3.37"/>
<ellipse fill="#9952e0" cx="0.00" cy="0.00" transform="translate(116.22,220.81) rotate(-158.9)" rx="8.55" ry="3.95"/>
<rect fill="#9952e0" x="-7.77" y="-3.55" transform="translate(403.53,227.67) rotate(-22.9)" width="15.54" height="7.10" rx="3.40"/>
<rect fill="#9952e0" x="-7.94" y="-3.52" transform="translate(139.27,230.24) rotate(21.0)" width="15.88" height="7.04" rx="3.38"/>
<rect fill="#9952e0" x="-7.78" y="-3.59" transform="translate(379.29,238.14) rotate(-24.7)" width="15.56" height="7.18" rx="3.45"/>
<rect fill="#9952e0" x="-7.78" y="-3.54" transform="translate(355.63,248.06) rotate(-23.2)" width="15.56" height="7.08" rx="3.40"/>
<rect fill="#9952e0" x="-7.91" y="-3.71" transform="translate(203.07,254.93) rotate(19.4)" width="15.82" height="7.42" rx="3.55"/>
<rect fill="#9952e0" x="-8.00" y="-3.63" transform="translate(332.60,257.60) rotate(-21.1)" width="16.00" height="7.26" rx="3.50"/>
<rect fill="#9952e0" x="-8.00" y="-3.65" transform="translate(226.62,263.82) rotate(21.2)" width="16.00" height="7.30" rx="3.50"/>
<rect fill="#9952e0" x="-7.73" y="-3.68" transform="translate(309.26,266.99) rotate(-20.5)" width="15.46" height="7.36" rx="3.52"/>
<ellipse fill="#9952e0" cx="0.00" cy="0.00" transform="translate(251.71,272.60) rotate(-163.1)" rx="8.07" ry="3.94"/>
<rect fill="#9952e0" x="-8.13" y="-3.43" transform="translate(282.16,275.96) rotate(-7.6)" width="16.26" height="6.86" rx="3.29"/>
</svg>
