<?xml version="1.0" encoding="UTF-8" standalone="no"?>
<!DOCTYPE svg PUBLIC "-//W3C//DTD SVG 1.1//EN" "http://www.w3.org/Graphics/SVG/1.1/DTD/svg11.dtd">
<svg xmlns="http://www.w3.org/2000/svg" version="1.1" viewBox="0.00 0.00 209.00 190.00">
<path fill="#9d5fd6" d="
  M 151.60 93.30
  Q 151.57 93.35 151.51 93.77
  Q 150.73 99.65 148.82 119.02
  Q 145.60 151.52 142.95 170.74
  Q 142.69 172.57 141.99 174.78
  A 1.47 1.45 85.9 0 1 141.28 175.61
  Q 139.87 176.32 138.48 176.52
  Q 124.19 178.58 110.36 173.68
  A 2.18 2.18 0.0 0 1 108.91 171.49
  L 110.01 154.42
  A 0.75 0.75 0.0 0 0 108.96 153.68
  Q 105.33 155.22 99.59 156.11
  Q 90.58 157.51 83.00 157.91
  Q 61.64 159.04 42.49 157.08
  C 36.42 156.46 30.33 155.55 25.17 152.79
  A 1.05 1.05 0.0 0 1 24.63 152.05
  C 23.88 147.63 24.75 142.55 25.05 137.60
  A 0.82 0.81 6.1 0 0 24.35 136.74
  Q 15.04 135.43 5.90 132.23
  A 0.81 0.80 6.9 0 1 5.36 131.55
  Q 5.07 129.04 5.40 125.74
  Q 9.06 88.90 17.04 49.07
  C 18.92 39.66 19.53 34.51 27.30 30.29
  Q 34.16 26.58 42.62 23.77
  A 5.11 5.02 10.2 0 0 44.92 22.20
  C 47.34 19.26 50.51 16.17 54.58 15.88
  Q 61.29 15.41 76.44 15.59
  C 81.95 15.66 84.79 18.25 88.24 21.93
  A 4.92 4.91 -11.9 0 0 90.22 23.22
  Q 101.28 27.10 107.34 30.37
  C 111.50 32.60 114.05 35.96 115.25 40.68
  Q 115.73 42.60 116.41 43.86
  A 0.67 0.67 0.0 0 0 117.66 43.65
  Q 119.22 34.35 121.77 26.22
  C 122.92 22.53 122.94 20.08 123.48 16.06
  A 1.72 1.72 0.0 0 1 125.16 14.57
  Q 150.16 14.27 176.33 14.51
  C 178.68 14.53 180.34 14.16 180.92 17.07
  C 181.50 20.00 181.42 22.41 182.39 25.19
  Q 186.65 37.49 188.14 48.53
  Q 189.36 57.66 190.15 71.75
  Q 191.96 104.10 193.39 137.30
  C 193.86 148.44 195.01 162.16 195.29 172.08
  A 1.88 1.87 80.7 0 1 193.98 173.91
  C 183.90 177.09 173.60 178.67 163.38 175.40
  A 2.06 2.04 -88.0 0 1 162.01 173.92
  Q 161.20 170.50 160.84 167.62
  Q 156.55 133.26 152.81 93.60
  A 0.66 0.66 0.0 0 0 151.60 93.30
  Z
  M 177.42 20.34
  A 1.86 1.86 0.0 0 0 175.56 18.48
  L 128.70 18.48
  A 1.86 1.86 0.0 0 0 126.84 20.34
  L 126.84 20.50
  A 1.86 1.86 0.0 0 0 128.70 22.36
  L 175.56 22.36
  A 1.86 1.86 0.0 0 0 177.42 20.50
  L 177.42 20.34
  Z
  M 65.69 44.69
  A 1.22 1.22 0.0 0 0 67.88 44.70
  L 79.40 21.17
  A 1.22 1.22 0.0 0 0 78.30 19.41
  L 55.43 19.41
  A 1.22 1.22 0.0 0 0 54.33 21.16
  L 65.69 44.69
  Z
  M 62.16 45.46
  Q 62.16 45.12 61.80 44.49
  Q 55.72 34.04 51.50 23.12
  A 0.95 0.94 56.5 0 0 49.94 22.80
  Q 48.25 24.56 48.15 26.49
  Q 47.96 30.82 47.96 36.97
  A 2.88 2.87 14.6 0 0 49.44 39.47
  L 61.21 46.02
  A 0.64 0.64 0.0 0 0 62.16 45.46
  Z
  M 71.26 45.81
  A 0.65 0.65 0.0 0 0 72.22 46.38
  L 84.21 39.78
  A 2.93 2.92 -14.4 0 0 85.72 37.24
  Q 85.75 30.99 85.57 26.59
  Q 85.48 24.63 83.77 22.84
  A 0.96 0.96 0.0 0 0 82.18 23.16
  Q 77.85 34.23 71.63 44.83
  Q 71.26 45.46 71.26 45.81
  Z
  M 133.71 27.05
  A 0.70 0.69 6.0 0 0 133.03 26.21
  L 126.71 26.21
  A 1.52 1.52 0.0 0 0 125.23 27.38
  L 121.68 42.23
  A 0.77 0.77 0.0 0 0 122.72 43.13
  C 129.46 40.38 132.25 33.89 133.71 27.05
  Z
  M 137.84 26.70
  Q 136.79 37.54 128.86 44.34
  C 126.84 46.07 124.36 46.95 121.73 47.72
  A 1.40 1.40 0.0 0 0 120.74 48.88
  Q 119.90 55.28 119.95 60.19
  Q 119.97 62.37 121.64 71.50
  Q 126.94 100.36 129.61 127.83
  C 129.88 130.61 130.45 132.41 127.49 133.27
  Q 124.01 134.28 117.03 135.43
  A 2.06 2.06 0.0 0 0 115.32 137.32
  L 113.26 169.33
  A 1.15 1.15 0.0 0 0 114.13 170.52
  Q 125.98 173.40 137.38 172.03
  A 1.49 1.48 -89.2 0 0 138.68 170.76
  Q 140.43 158.43 142.15 142.24
  Q 146.16 104.44 150.02 67.17
  A 1.88 1.84 -83.9 0 1 152.04 65.50
  Q 153.58 65.67 154.06 66.87
  A 1.20 1.12 31.7 0 1 154.15 67.20
  Q 156.75 91.18 160.17 123.74
  Q 163.32 153.86 164.60 163.47
  Q 165.28 168.59 165.78 171.28
  A 1.05 1.03 -1.5 0 0 166.67 172.11
  Q 178.59 173.64 190.25 170.50
  A 0.97 0.96 -8.6 0 0 190.97 169.53
  Q 188.75 122.71 186.16 75.50
  Q 185.50 63.42 184.02 49.01
  A 1.48 1.47 3.6 0 0 182.89 47.73
  C 173.13 45.50 167.39 36.96 166.11 27.38
  A 1.02 1.02 0.0 0 0 165.10 26.50
  L 138.07 26.50
  A 0.23 0.22 2.7 0 0 137.84 26.70
  Z
  M 170.64 27.45
  C 172.25 34.23 175.17 40.63 181.95 43.22
  A 0.77 0.77 0.0 0 0 182.96 42.30
  L 179.09 27.59
  A 1.52 1.52 0.0 0 0 177.59 26.46
  L 171.29 26.60
  A 0.69 0.69 0.0 0 0 170.64 27.45
  Z
  M 10.95 118.74
  L 24.85 122.06
  A 1.10 1.09 -81.6 0 0 26.19 121.06
  L 29.96 62.50
  A 1.47 1.46 3.0 0 1 31.49 61.13
  L 32.06 61.15
  A 2.08 2.07 3.2 0 1 34.04 63.36
  L 28.54 148.83
  A 1.30 1.30 0.0 0 0 29.50 150.17
  C 40.44 153.15 50.75 153.85 63.18 154.22
  A 0.27 0.27 0.0 0 0 63.45 153.95
  L 63.45 52.62
  A 0.48 0.47 -73.0 0 0 63.25 52.23
  Q 56.32 47.55 48.04 43.46
  Q 45.97 42.44 44.20 40.61
  A 1.87 1.86 -65.7 0 1 43.67 39.19
  L 44.34 28.72
  A 0.92 0.91 80.8 0 0 43.08 27.81
  Q 31.72 32.50 29.96 33.44
  Q 23.58 36.85 22.40 42.93
  Q 19.79 56.31 16.08 76.41
  C 13.40 91.00 11.91 103.12 10.31 117.83
  A 0.85 0.84 10.2 0 0 10.95 118.74
  Z
  M 89.67 28.48
  Q 90.01 33.11 89.93 38.00
  Q 89.90 40.05 89.15 41.14
  A 2.16 2.06 1.3 0 1 88.46 41.77
  L 68.22 53.18
  A 1.33 1.31 -14.8 0 0 67.54 54.33
  L 67.54 153.59
  A 0.67 0.67 0.0 0 0 68.21 154.26
  C 80.44 154.12 93.08 153.46 105.08 150.37
  A 1.54 1.54 0.0 0 0 106.23 148.77
  L 100.59 63.37
  A 2.03 2.03 0.0 0 1 102.58 61.21
  L 102.80 61.20
  A 2.01 2.00 86.5 0 1 104.91 63.08
  L 108.58 121.26
  A 0.97 0.97 0.0 0 0 109.75 122.15
  L 123.97 119.10
  A 0.51 0.50 -9.9 0 0 124.37 118.54
  C 122.70 103.45 120.67 87.79 117.39 72.00
  Q 115.93 64.97 113.91 52.53
  C 112.42 43.44 110.93 35.71 101.88 32.13
  Q 96.44 29.98 90.56 27.81
  A 0.66 0.66 0.0 0 0 89.67 28.48
  Z
  M 9.24 128.75
  A 0.49 0.49 0.0 0 0 9.61 129.26
  L 24.89 132.90
  A 0.49 0.49 0.0 0 0 25.50 132.46
  L 25.83 127.16
  A 0.49 0.49 0.0 0 0 25.46 126.65
  L 10.18 123.00
  A 0.49 0.49 0.0 0 0 9.57 123.44
  L 9.24 128.75
  Z
  M 109.18 131.77
  A 1.12 1.12 0.0 0 0 110.54 132.79
  L 124.54 129.78
  A 1.12 1.12 0.0 0 0 125.43 128.61
  L 125.16 124.48
  A 1.12 1.12 0.0 0 0 123.80 123.46
  L 109.80 126.47
  A 1.12 1.12 0.0 0 0 108.91 127.64
  L 109.18 131.77
  Z
  M 110.8013 137.9857
  A 0.44 0.44 0.0 0 0 110.3338 137.5750
  L 110.0345 137.5944
  A 0.44 0.44 0.0 0 0 109.6238 138.0619
  L 109.8587 141.6943
  A 0.44 0.44 0.0 0 0 110.3262 142.1050
  L 110.6255 142.0856
  A 0.44 0.44 0.0 0 0 111.0362 141.6181
  L 110.8013 137.9857
  Z"
/>
<ellipse fill="#9d5fd6" cx="0.00" cy="0.00" transform="translate(71.61,68.84) rotate(-177.9)" rx="2.46" ry="2.16"/>
<circle fill="#9d5fd6" cx="71.51" cy="90.29" r="2.00"/>
<ellipse fill="#9d5fd6" cx="0.00" cy="0.00" transform="translate(71.95,111.52) rotate(-2.7)" rx="2.32" ry="2.06"/>
<circle fill="#9d5fd6" cx="71.50" cy="132.94" r="2.09"/>
</svg>
