<?xml version="1.0" encoding="UTF-8" standalone="no"?>
<!DOCTYPE svg PUBLIC "-//W3C//DTD SVG 1.1//EN" "http://www.w3.org/Graphics/SVG/1.1/DTD/svg11.dtd">
<svg xmlns="http://www.w3.org/2000/svg" version="1.1" viewBox="0.00 0.00 567.00 440.00">
<path fill="#000000" d="
  M 509.58 194.36
  C 515.59 198.67 520.69 202.31 524.70 209.07
  C 532.51 222.27 527.27 235.29 515.50 243.86
  A 0.98 0.98 0.0 0 0 515.41 245.38
  Q 519.76 249.31 521.63 255.60
  C 526.76 272.83 517.40 285.19 503.62 294.12
  Q 485.43 305.90 464.53 312.16
  A 5.59 5.59 0.0 0 0 461.87 313.91
  Q 457.47 319.10 451.24 324.24
  Q 437.69 335.46 419.89 345.17
  Q 394.64 358.94 367.74 368.74
  Q 361.84 370.89 356.68 372.02
  A 6.95 6.86 17.2 0 0 353.48 373.68
  C 339.68 386.30 321.10 394.97 303.24 400.98
  C 292.06 404.73 282.74 406.26 270.46 403.01
  Q 254.98 398.90 235.23 388.99
  Q 221.33 382.00 212.13 374.69
  C 209.40 372.52 206.85 369.44 204.34 367.81
  A 5.37 5.18 -21.7 0 0 202.60 367.10
  Q 192.83 365.05 178.09 359.16
  Q 158.69 351.39 140.13 340.88
  Q 127.13 333.52 116.19 323.46
  A 5.81 5.74 -16.7 0 0 113.63 322.10
  Q 102.49 319.40 92.88 315.13
  Q 72.56 306.09 55.20 293.83
  C 45.65 287.10 35.68 277.89 38.60 265.29
  A 2.96 2.94 37.3 0 0 38.32 263.25
  C 32.93 253.19 32.38 242.18 33.99 229.76
  Q 35.43 218.62 42.55 210.13
  A 4.27 4.26 65.6 0 0 43.54 207.48
  C 43.76 195.55 51.73 187.83 62.31 183.56
  A 0.98 0.98 0.0 0 0 62.51 181.85
  C 55.29 176.67 49.22 169.06 48.55 160.03
  C 47.11 140.50 70.54 127.91 85.70 121.94
  Q 99.94 116.33 114.91 113.72
  A 6.79 6.72 -68.7 0 0 117.92 112.38
  Q 124.83 107.03 132.35 102.63
  Q 173.33 78.66 220.13 73.95
  A 4.77 4.76 -63.5 0 0 222.12 73.28
  Q 237.79 63.76 255.78 59.96
  Q 296.94 51.26 331.69 74.45
  A 5.99 5.95 64.6 0 0 334.41 75.43
  Q 378.29 80.02 416.02 103.01
  Q 427.23 109.84 436.61 118.46
  A 9.16 9.13 72.2 0 0 440.89 120.67
  Q 466.53 126.08 488.96 139.80
  C 506.00 150.22 523.81 169.77 511.23 190.49
  Q 510.29 192.03 509.40 193.52
  A 0.63 0.63 0.0 0 0 509.58 194.36
  Z
  M 88.50 228.61
  Q 84.01 225.49 82.99 224.77
  C 77.36 220.81 68.96 212.59 68.52 205.58
  A 0.58 0.57 -68.6 0 1 69.51 205.14
  C 78.80 214.84 91.01 221.83 103.20 226.84
  Q 118.87 233.27 125.86 235.93
  Q 145.84 243.54 169.29 255.98
  Q 182.01 262.72 215.22 281.01
  C 231.69 290.07 250.03 298.99 267.77 303.72
  Q 280.37 307.07 291.11 304.33
  Q 321.96 296.46 342.66 268.70
  Q 346.44 263.64 349.26 259.39
  A 0.42 0.42 0.0 0 1 349.99 259.45
  Q 350.24 259.99 350.17 260.74
  Q 349.63 266.29 347.95 271.72
  A 0.45 0.45 0.0 0 0 348.45 272.29
  Q 349.72 272.10 350.94 271.69
  C 375.57 263.40 397.72 253.71 417.90 239.04
  C 429.64 230.50 437.37 220.40 445.89 208.74
  A 0.65 0.65 0.0 0 1 447.06 209.17
  Q 446.58 216.05 443.74 221.89
  A 0.69 0.69 0.0 0 0 444.55 222.85
  Q 470.30 215.44 491.28 199.80
  C 497.87 194.88 505.40 187.17 506.86 178.83
  C 509.29 164.97 495.41 153.14 485.19 146.84
  Q 471.37 138.31 456.01 132.99
  Q 444.84 129.13 425.46 125.36
  A 0.47 0.46 21.3 0 1 425.15 124.66
  Q 425.59 123.95 426.60 123.79
  A 1.43 1.33 -27.7 0 0 427.44 121.43
  C 406.02 102.88 377.56 91.04 349.99 85.78
  Q 342.62 84.37 331.01 82.94
  C 328.38 82.62 325.97 81.80 323.47 81.43
  A 0.61 0.61 0.0 0 1 323.00 80.60
  L 323.30 79.89
  A 0.78 0.78 0.0 0 0 323.13 79.04
  Q 321.72 77.60 317.74 75.49
  Q 303.08 67.74 286.66 65.91
  C 271.42 64.21 254.38 67.50 239.95 73.18
  Q 233.88 75.58 228.99 79.04
  C 226.51 80.81 224.67 81.52 221.82 81.80
  Q 172.97 86.52 131.38 112.62
  Q 126.82 115.48 123.70 118.97
  A 5.48 5.43 16.5 0 1 120.44 120.72
  Q 103.23 123.33 87.09 130.09
  C 75.13 135.10 55.09 145.45 56.72 160.05
  C 57.44 166.41 62.90 172.42 67.73 176.04
  Q 91.72 194.04 121.64 201.56
  A 1.30 1.29 18.0 0 0 123.15 200.80
  L 123.81 199.20
  A 0.93 0.92 -59.0 0 1 125.25 198.84
  C 142.52 213.05 161.13 224.97 182.37 231.37
  A 0.78 0.78 0.0 0 0 183.34 230.40
  Q 182.57 227.95 182.81 226.27
  A 0.80 0.79 -63.8 0 1 184.15 225.81
  Q 190.66 232.20 197.70 237.52
  Q 209.90 246.73 223.27 251.21
  Q 224.92 251.77 238.80 256.22
  C 249.38 259.62 263.69 268.20 267.41 279.40
  Q 267.59 279.96 267.57 280.35
  A 0.48 0.48 0.0 0 1 266.79 280.69
  Q 259.59 274.99 250.80 270.02
  A 0.77 0.77 0.0 0 0 249.65 270.78
  Q 250.59 279.15 256.28 285.43
  A 0.60 0.60 0.0 0 1 255.81 286.43
  Q 254.70 286.38 253.51 285.71
  Q 242.62 279.55 240.62 266.93
  Q 240.28 264.80 237.91 264.08
  C 220.95 258.92 205.12 254.17 191.34 242.31
  A 5.05 5.05 0.0 0 0 189.94 241.46
  Q 189.32 241.22 185.69 240.52
  Q 178.70 239.18 169.87 235.64
  Q 148.05 226.88 129.90 212.20
  A 2.65 2.63 -19.5 0 0 128.82 211.69
  Q 99.64 205.68 73.78 189.87
  A 4.54 4.53 -37.8 0 0 70.09 189.41
  Q 65.20 190.90 60.78 193.49
  C 51.03 199.17 50.46 207.45 51.51 217.77
  A 0.89 0.89 0.0 0 1 50.04 218.54
  Q 47.95 216.74 46.47 218.91
  C 41.25 226.57 40.41 237.92 41.53 246.97
  Q 42.56 255.19 47.84 261.65
  A 1.53 1.52 38.0 0 1 48.04 263.25
  Q 43.45 272.96 51.93 280.90
  Q 57.14 285.77 65.64 291.35
  Q 85.57 304.44 108.38 312.51
  A 0.83 0.83 0.0 0 0 109.45 311.46
  Q 108.09 307.43 108.24 302.68
  A 0.69 0.69 0.0 0 1 109.23 302.08
  Q 109.63 302.27 109.87 302.63
  Q 119.82 317.81 132.66 326.57
  C 152.30 339.95 174.55 350.16 197.03 357.45
  A 0.71 0.71 0.0 0 0 197.95 356.92
  Q 198.06 356.39 197.81 355.41
  Q 196.61 350.47 197.08 345.83
  A 0.69 0.69 0.0 0 1 198.36 345.54
  Q 200.99 349.92 202.58 352.43
  Q 209.74 363.68 221.51 371.58
  Q 245.52 387.69 272.02 395.01
  C 279.96 397.20 285.76 397.47 292.80 395.55
  Q 312.51 390.19 330.12 380.39
  C 344.81 372.23 355.76 361.08 364.36 347.03
  A 0.70 0.69 42.2 0 1 365.51 346.98
  Q 365.70 347.24 365.69 348.03
  Q 365.62 354.69 362.87 360.69
  A 0.71 0.71 0.0 0 0 363.76 361.66
  Q 389.57 352.32 414.92 338.68
  Q 433.01 328.96 446.59 317.60
  C 455.21 310.39 462.15 300.17 467.12 290.37
  A 0.57 0.57 0.0 0 1 468.18 290.50
  Q 469.35 295.66 467.64 301.75
  A 0.62 0.61 88.0 0 0 468.44 302.50
  Q 485.13 296.40 498.80 287.46
  C 512.01 278.83 521.07 266.10 509.84 250.87
  C 508.69 249.32 507.69 248.88 505.79 249.85
  Q 496.15 254.77 485.85 257.35
  A 8.50 8.49 -72.9 0 0 482.29 259.24
  C 465.20 274.47 444.80 284.92 422.66 291.46
  A 8.08 7.98 -74.5 0 0 419.40 293.33
  Q 411.02 301.18 402.03 307.15
  C 387.28 316.92 370.86 325.54 354.49 331.73
  Q 347.08 334.53 339.24 336.45
  A 8.54 8.45 -71.6 0 0 335.75 338.22
  Q 320.14 351.44 301.57 358.77
  Q 292.98 362.16 284.41 361.46
  A 0.71 0.70 -3.9 0 0 283.66 362.31
  Q 285.62 371.08 281.49 379.23
  A 0.68 0.68 0.0 0 1 280.21 379.02
  C 279.37 373.17 278.36 365.05 274.14 360.07
  Q 273.11 358.86 270.64 357.83
  Q 260.65 353.65 252.61 345.53
  A 4.42 4.38 -13.9 0 0 250.77 344.43
  Q 212.75 333.21 179.95 312.99
  A 3.16 3.11 -33.9 0 0 177.76 312.58
  Q 168.71 314.25 161.50 319.96
  A 0.91 0.85 59.0 0 1 160.17 319.58
  Q 160.06 319.35 160.20 319.01
  Q 163.35 311.29 170.30 307.36
  A 0.49 0.49 0.0 0 0 170.44 306.63
  C 168.89 304.68 166.84 303.23 164.14 302.42
  Q 155.28 299.74 145.70 295.51
  A 4.04 4.04 0.0 0 0 143.55 295.19
  Q 134.38 296.34 126.92 301.33
  A 0.64 0.64 0.0 0 1 125.93 300.73
  C 126.32 297.25 130.67 293.21 133.47 291.35
  A 0.77 0.77 0.0 0 0 133.35 290.01
  Q 124.41 286.01 109.74 278.01
  Q 99.10 272.21 91.22 266.28
  C 89.51 265.00 88.54 264.86 86.47 265.17
  Q 74.56 266.99 64.89 274.41
  Q 64.53 274.69 64.43 274.67
  A 1.08 1.08 0.0 0 1 63.58 273.24
  C 66.32 265.51 74.04 260.10 81.69 257.90
  A 0.81 0.81 0.0 0 0 82.22 256.82
  L 80.32 251.98
  A 1.70 1.69 -9.3 0 0 78.81 250.90
  Q 66.79 250.42 57.03 254.69
  A 0.73 0.73 0.0 0 1 56.06 253.75
  Q 56.77 251.99 58.48 250.47
  Q 67.23 242.73 78.12 243.00
  A 2.33 2.33 0.0 0 0 80.33 241.56
  L 81.52 238.67
  A 1.18 1.18 0.0 0 0 80.43 237.04
  C 71.68 237.02 61.33 233.36 56.45 225.84
  A 0.70 0.62 60.0 0 1 56.65 224.87
  Q 57.00 224.70 57.44 224.88
  Q 71.96 231.03 88.28 229.45
  A 0.46 0.46 0.0 0 0 88.50 228.61
  Z
  M 478.36 218.38
  Q 483.27 222.82 484.63 229.29
  Q 485.03 231.17 484.58 232.46
  A 0.45 0.45 0.0 0 1 483.79 232.58
  Q 478.76 225.38 471.02 222.65
  A 3.58 3.56 -46.8 0 0 468.43 222.74
  C 458.47 227.01 448.76 230.70 438.55 232.50
  A 4.00 4.00 0.0 0 0 436.42 233.61
  C 424.15 245.78 409.79 255.11 394.41 262.65
  A 0.92 0.92 0.0 0 0 394.21 264.17
  C 396.88 266.53 400.16 271.49 400.01 275.53
  A 0.64 0.64 0.0 0 1 398.91 275.95
  Q 393.22 269.97 386.08 267.79
  A 4.25 4.24 41.4 0 0 383.15 267.97
  Q 364.03 276.45 343.82 282.08
  Q 341.84 282.62 340.63 284.11
  A 1.12 1.11 -51.0 0 0 340.79 285.68
  Q 347.74 291.32 348.36 300.44
  A 0.88 0.88 0.0 0 1 347.35 301.37
  Q 347.10 301.33 346.81 300.94
  Q 341.68 294.00 334.79 290.99
  A 1.77 1.76 -53.5 0 0 332.94 291.27
  C 320.10 302.33 303.24 311.23 286.20 313.22
  A 0.87 0.86 -15.4 0 0 285.51 314.43
  Q 290.03 324.71 286.16 334.92
  A 0.64 0.64 0.0 0 1 284.92 334.77
  Q 283.86 326.43 279.54 319.07
  Q 277.39 315.43 275.41 313.88
  A 4.02 4.02 0.0 0 0 273.68 313.10
  Q 264.02 311.29 254.81 307.92
  Q 237.75 301.67 217.84 291.32
  A 2.45 2.32 -25.5 0 0 217.07 291.07
  C 212.37 290.40 206.02 294.80 202.78 298.10
  A 0.93 0.93 0.0 0 1 201.20 297.27
  Q 202.38 291.33 207.28 287.13
  A 0.95 0.94 37.5 0 0 207.07 285.56
  C 198.33 281.32 182.65 272.32 157.59 258.61
  C 152.56 255.87 143.07 262.19 139.53 265.47
  A 0.80 0.80 0.0 0 1 138.22 264.67
  Q 139.99 258.26 145.08 254.45
  A 1.09 1.09 0.0 0 0 144.84 252.57
  L 99.41 233.78
  A 2.28 2.20 -32.8 0 0 98.55 233.61
  C 95.34 233.65 90.54 238.39 89.18 240.77
  C 83.56 250.58 92.58 258.28 99.78 262.76
  Q 127.41 279.96 158.84 292.49
  A 0.74 0.74 0.0 0 0 159.83 291.62
  L 158.22 285.23
  A 0.93 0.93 0.0 0 1 159.71 284.27
  Q 160.58 284.97 161.32 285.95
  C 167.33 294.00 174.53 300.55 183.42 305.99
  Q 204.48 318.87 227.72 328.03
  Q 234.77 330.81 245.10 334.52
  A 0.76 0.76 0.0 0 0 246.12 333.74
  L 245.46 326.80
  A 0.65 0.65 0.0 0 1 246.47 326.19
  Q 246.97 326.51 247.20 326.81
  C 256.51 339.24 267.76 351.78 284.30 353.34
  Q 292.74 354.13 302.75 349.48
  Q 331.34 336.21 351.32 311.27
  A 0.64 0.63 -24.1 0 1 352.45 311.70
  Q 352.09 318.15 348.55 324.03
  A 0.80 0.80 0.0 0 0 349.53 325.18
  Q 370.67 316.91 389.97 305.21
  C 404.08 296.65 414.84 287.87 423.58 276.70
  Q 423.81 276.41 429.32 269.22
  A 0.62 0.62 0.0 0 1 430.43 269.58
  Q 430.56 274.73 428.41 280.11
  A 0.70 0.69 -89.4 0 0 429.30 281.02
  Q 447.52 274.12 462.83 264.04
  C 473.38 257.09 482.80 247.99 490.24 238.24
  Q 490.51 237.89 492.10 236.35
  A 0.60 0.60 0.0 0 1 493.11 236.77
  Q 493.20 241.54 491.01 246.45
  A 0.78 0.72 -71.4 0 0 491.48 247.51
  Q 491.61 247.53 492.13 247.32
  C 506.62 241.47 531.26 227.88 514.64 209.05
  Q 510.19 204.01 504.46 200.97
  A 1.93 1.93 0.0 0 0 502.28 201.24
  Q 491.23 211.06 478.48 217.47
  A 0.56 0.55 52.8 0 0 478.36 218.38
  Z"
/>
<path fill="#000000" d="
  M 320.66 223.22
  A 0.72 0.72 0.0 0 1 319.49 223.88
  Q 294.82 203.90 267.85 186.63
  A 1.61 1.61 0.0 0 0 266.11 186.63
  Q 250.96 196.25 232.87 209.63
  Q 232.31 210.04 231.67 210.07
  A 0.62 0.62 0.0 0 1 231.14 209.08
  Q 232.54 207.14 234.42 205.16
  Q 245.96 193.05 259.84 183.03
  A 0.82 0.82 0.0 0 0 259.79 181.67
  Q 214.81 154.04 166.52 134.87
  A 3.45 3.45 0.0 0 0 163.56 135.08
  Q 147.53 144.14 129.83 156.83
  Q 128.97 157.45 128.14 157.78
  A 0.68 0.68 0.0 0 1 127.39 156.69
  Q 139.86 143.35 156.18 132.19
  A 0.91 0.91 0.0 0 0 155.98 130.59
  Q 137.94 123.76 133.87 122.17
  Q 133.38 121.97 133.29 121.66
  A 0.76 0.75 -3.5 0 1 134.13 120.72
  Q 148.62 122.67 162.32 127.02
  A 2.71 2.69 37.4 0 0 164.56 126.73
  Q 207.62 99.50 257.26 86.41
  A 0.44 0.44 0.0 0 0 257.47 85.68
  Q 257.13 85.32 256.19 85.06
  Q 251.53 83.79 242.36 81.06
  A 0.46 0.45 29.6 0 1 242.15 80.32
  Q 242.71 79.71 243.77 79.78
  Q 256.03 80.52 269.44 83.25
  A 7.33 7.32 46.3 0 0 272.07 83.31
  C 283.81 81.49 294.94 80.04 307.04 80.38
  A 0.75 0.74 12.9 0 1 307.70 81.43
  Q 307.67 81.51 307.50 81.66
  A 0.23 0.22 19.7 0 1 307.41 81.70
  L 288.12 86.15
  A 0.76 0.76 0.0 0 0 287.55 87.08
  L 287.65 87.45
  A 0.18 0.18 0.0 0 0 287.78 87.59
  Q 334.81 102.06 376.04 127.88
  A 3.98 3.95 -35.0 0 0 379.00 128.39
  C 390.37 125.84 402.94 123.65 414.66 124.16
  A 0.66 0.66 0.0 0 1 414.79 125.45
  L 386.29 132.66
  A 0.91 0.91 0.0 0 0 386.02 134.31
  Q 406.06 147.27 423.09 163.91
  Q 428.30 169.00 433.52 175.73
  A 0.67 0.67 0.0 0 1 432.56 176.66
  Q 406.32 155.17 376.23 136.62
  A 2.96 2.94 52.1 0 0 373.82 136.31
  Q 321.45 152.35 274.95 181.39
  A 0.76 0.75 46.1 0 0 274.93 182.65
  C 291.77 194.30 308.34 207.64 320.32 222.58
  Q 320.63 222.97 320.66 223.22
  Z
  M 173.17 129.86
  A 0.34 0.34 0.0 0 0 173.22 130.48
  C 206.17 142.06 236.85 157.96 266.53 177.02
  A 1.68 1.68 0.0 0 0 268.38 177.00
  Q 313.38 146.70 365.76 131.49
  A 0.41 0.41 0.0 0 0 365.85 130.74
  Q 322.40 105.31 274.01 90.71
  Q 271.99 90.10 269.90 90.63
  Q 219.35 103.39 173.17 129.86
  Z"
/>
<path fill="#000000" d="
  M 279.74 293.66
  A 0.35 0.35 0.0 0 1 279.29 293.16
  C 282.66 287.47 280.67 279.43 277.20 274.02
  C 271.78 265.57 263.98 258.77 255.66 252.84
  Q 236.59 239.25 213.35 228.41
  Q 184.96 215.16 167.61 207.15
  Q 164.32 205.63 147.79 196.88
  C 127.72 186.26 108.88 173.21 88.21 163.80
  Q 83.12 161.48 74.73 158.77
  Q 74.12 158.58 74.09 158.18
  A 0.86 0.80 86.6 0 1 74.84 157.27
  Q 84.01 156.84 92.62 159.62
  C 107.39 164.38 120.94 172.48 134.73 180.44
  Q 162.31 196.34 178.96 203.79
  C 208.49 217.01 236.86 229.65 262.47 248.05
  C 270.41 253.75 280.09 262.96 284.37 272.51
  C 287.53 279.54 287.72 290.11 279.74 293.66
  Z"
/>
</svg>
