<?xml version="1.0" encoding="UTF-8" standalone="no"?>
<!DOCTYPE svg PUBLIC "-//W3C//DTD SVG 1.1//EN" "http://www.w3.org/Graphics/SVG/1.1/DTD/svg11.dtd">
<svg xmlns="http://www.w3.org/2000/svg" version="1.1" viewBox="0.00 0.00 468.00 533.00">
<path fill="#9b4ee8" d="
  M 282.89 144.67
  A 1.57 1.55 6.1 0 0 284.03 146.07
  Q 289.91 147.73 292.98 152.55
  Q 293.97 154.10 296.14 161.42
  Q 298.43 169.13 303.00 180.72
  Q 305.32 186.62 306.48 191.46
  Q 307.70 196.53 309.39 200.71
  A 13.15 12.80 17.0 0 0 310.88 203.42
  Q 316.83 211.81 322.14 222.88
  Q 327.07 233.14 329.14 244.88
  A 2.66 2.66 0.0 0 0 331.75 247.07
  Q 333.08 247.08 334.20 247.09
  C 339.43 247.16 343.60 251.20 344.71 255.83
  Q 346.29 262.39 345.50 272.48
  C 345.13 277.30 342.69 280.90 338.38 282.82
  C 336.21 283.79 334.32 283.62 331.18 283.73
  A 1.45 1.44 5.0 0 0 329.80 284.88
  Q 329.46 286.54 326.48 299.18
  Q 325.33 304.04 320.39 313.41
  Q 315.06 323.51 310.41 330.18
  Q 309.11 332.06 307.27 338.71
  C 305.55 344.94 304.81 347.69 302.86 352.86
  Q 296.97 368.47 295.03 375.55
  C 293.19 382.27 289.30 384.35 283.81 387.37
  A 1.44 1.43 -12.5 0 0 283.06 388.54
  Q 279.94 435.32 278.34 468.01
  Q 277.61 482.80 265.99 487.30
  Q 261.23 489.14 249.79 489.11
  Q 234.92 489.06 201.20 488.96
  Q 190.78 488.93 188.64 488.42
  C 179.69 486.27 173.48 478.60 173.05 469.50
  Q 172.53 458.44 171.69 433.15
  C 171.20 418.27 169.85 401.53 168.97 388.58
  A 1.58 1.58 0.0 0 0 168.22 387.33
  C 166.88 386.50 164.92 386.03 163.60 385.21
  Q 159.30 382.55 156.73 376.04
  Q 154.12 369.44 152.33 363.63
  C 148.65 351.71 146.60 346.92 141.51 332.32
  A 17.21 17.08 19.3 0 0 139.77 328.74
  C 136.32 323.34 132.15 318.04 130.26 312.83
  C 128.51 308.02 125.41 301.85 123.63 295.57
  Q 118.94 278.98 120.18 259.23
  Q 121.01 245.90 124.62 235.52
  C 127.88 226.11 132.40 215.66 138.90 206.67
  C 139.66 205.62 140.72 203.66 141.33 201.85
  Q 145.75 188.67 147.61 183.97
  C 150.69 176.19 152.85 167.61 156.07 159.36
  C 158.59 152.92 160.89 147.43 167.57 146.20
  A 1.68 1.67 86.0 0 0 168.94 144.61
  C 169.44 130.42 171.25 112.82 171.72 97.10
  Q 172.46 72.37 172.67 69.00
  C 172.98 64.02 173.23 59.51 176.24 55.70
  C 181.01 49.67 184.30 46.92 191.75 46.73
  Q 206.42 46.37 248.41 46.49
  Q 262.38 46.53 264.97 47.36
  C 273.92 50.24 277.83 58.85 278.28 68.00
  Q 279.41 91.54 282.89 144.67
  Z
  M 225.90 146.03
  Q 244.13 146.02 269.25 145.92
  Q 271.61 145.91 274.16 145.68
  A 1.57 1.56 -4.2 0 0 275.58 144.04
  Q 273.64 110.11 271.14 68.92
  C 270.78 63.00 270.66 58.46 265.74 55.56
  Q 261.58 53.10 257.00 53.21
  Q 252.75 53.31 225.81 53.34
  Q 198.88 53.37 194.63 53.27
  Q 190.05 53.17 185.89 55.64
  C 180.98 58.55 180.87 63.09 180.52 69.01
  Q 178.10 110.20 176.22 144.14
  A 1.57 1.56 4.1 0 0 177.65 145.77
  Q 180.20 146.00 182.56 146.00
  Q 207.68 146.05 225.90 146.03
  Z
  M 155.38 187.01
  Q 156.41 186.81 157.06 186.32
  Q 159.60 184.39 169.88 177.03
  C 174.84 173.47 180.16 171.63 186.43 168.69
  Q 193.98 165.15 202.45 163.45
  Q 222.92 159.33 242.79 162.17
  Q 249.16 163.09 253.61 164.35
  C 261.54 166.59 266.82 169.18 276.51 173.75
  Q 281.53 176.13 287.27 180.70
  C 289.78 182.69 292.48 184.16 295.11 186.07
  A 1.21 1.21 0.0 0 0 296.94 185.55
  Q 297.00 185.40 296.88 185.01
  Q 295.34 179.99 286.40 155.35
  A 3.06 3.06 0.0 0 0 283.97 153.36
  Q 282.22 153.10 279.25 153.09
  Q 199.29 152.94 171.25 153.01
  C 167.39 153.02 165.38 154.60 164.05 157.94
  C 163.17 160.16 162.08 162.89 161.34 165.62
  Q 158.54 175.88 154.33 185.71
  A 0.95 0.94 6.2 0 0 155.38 187.01
  Z
  M 315.3623 224.8611
  A 98.81 98.63 -25.0 0 0 184.1272 177.2309
  A 98.81 98.63 -25.0 0 0 136.2577 308.3789
  A 98.81 98.63 -25.0 0 0 267.4928 356.0091
  A 98.81 98.63 -25.0 0 0 315.3623 224.8611
  Z
  M 331.43 255.97
  L 331.43 275.57
  A 1.14 1.14 0.0 0 0 332.57 276.71
  L 334.10 276.71
  A 4.29 4.28 0.0 0 0 338.39 272.43
  L 338.39 259.11
  A 4.29 4.28 -0.0 0 0 334.10 254.83
  L 332.57 254.83
  A 1.14 1.14 0.0 0 0 331.43 255.97
  Z
  M 154.35 347.46
  Q 154.23 347.77 154.39 348.17
  C 157.03 354.81 159.46 361.23 161.22 367.90
  Q 162.34 372.11 164.15 376.11
  Q 165.96 380.08 170.42 380.13
  Q 188.98 380.33 222.25 380.13
  C 236.27 380.04 248.52 380.50 261.57 380.16
  Q 275.42 379.80 282.57 380.06
  C 284.97 380.15 286.24 379.20 287.03 377.03
  Q 295.76 353.03 296.84 348.83
  Q 297.10 347.83 297.14 347.08
  A 0.81 0.81 0.0 0 0 295.90 346.35
  Q 288.22 351.24 283.80 354.80
  Q 282.16 356.13 279.67 357.42
  C 267.77 363.61 256.43 368.48 242.83 370.38
  Q 223.59 373.06 204.88 369.88
  Q 194.31 368.09 184.60 363.64
  C 178.49 360.84 174.53 359.54 169.95 356.43
  Q 163.55 352.09 156.21 346.91
  A 1.23 1.23 0.0 0 0 154.35 347.46
  Z
  M 225.96 482.12
  Q 255.03 482.11 255.75 482.11
  C 261.22 482.13 266.07 481.01 269.41 476.41
  C 271.26 473.86 271.36 470.57 271.55 467.02
  Q 274.00 421.35 275.60 388.92
  A 1.39 1.39 0.0 0 0 274.35 387.46
  Q 271.18 387.14 268.25 387.15
  Q 263.43 387.16 225.93 387.18
  Q 188.44 387.19 183.61 387.18
  Q 180.68 387.17 177.51 387.49
  A 1.39 1.39 0.0 0 0 176.26 388.95
  Q 177.89 421.38 180.37 467.05
  C 180.56 470.60 180.66 473.89 182.52 476.44
  C 185.86 481.04 190.71 482.15 196.18 482.13
  Q 196.90 482.13 225.96 482.12
  Z"
/>
<rect fill="#9b4ee8" x="-3.73" y="-6.62" transform="translate(83.70,91.23) rotate(-1.2)" width="7.46" height="13.24" rx="3.51"/>
<rect fill="#9b4ee8" x="-6.36" y="-3.54" transform="translate(95.25,102.85) rotate(0.4)" width="12.72" height="7.08" rx="3.33"/>
<rect fill="#9b4ee8" x="-6.31" y="-3.46" transform="translate(71.85,102.85) rotate(0.7)" width="12.62" height="6.92" rx="3.12"/>
<rect fill="#9b4ee8" x="-3.77" y="-6.19" transform="translate(83.68,114.52) rotate(-0.6)" width="7.54" height="12.38" rx="3.36"/>
<path fill="#c290f5" d="
  M 372.2176 131.0157
  A 8.93 8.58 -95.8 0 1 381.6561 139.0329
  A 8.93 8.58 -95.8 0 1 374.0224 148.7843
  A 8.93 8.58 -95.8 0 1 364.5839 140.7671
  A 8.93 8.58 -95.8 0 1 372.2176 131.0157
  Z
  M 370.5032 140.0081
  A 2.70 2.40 -177.2 0 0 373.0828 142.5371
  A 2.70 2.40 -177.2 0 0 375.8968 140.2719
  A 2.70 2.40 -177.2 0 0 373.3172 137.7429
  A 2.70 2.40 -177.2 0 0 370.5032 140.0081
  Z"
/>
<path fill="#9b4ee8" d="
  M 307.2408 234.6415
  A 87.45 87.23 -21.4 0 1 257.6482 347.7660
  A 87.45 87.23 -21.4 0 1 144.3992 298.4585
  A 87.45 87.23 -21.4 0 1 193.9918 185.3340
  A 87.45 87.23 -21.4 0 1 307.2408 234.6415
  Z
  M 300.6542 237.0160
  A 80.42 80.30 -21.5 0 0 196.4000 191.7775
  A 80.42 80.30 -21.5 0 0 151.0058 295.9640
  A 80.42 80.30 -21.5 0 0 255.2600 341.2025
  A 80.42 80.30 -21.5 0 0 300.6542 237.0160
  Z"
/>
<rect fill="#9b4ee8" x="-3.49" y="-8.95" transform="translate(225.70,201.88) rotate(-0.8)" width="6.98" height="17.90" rx="3.33"/>
<path fill="#9b4ee8" d="
  M 225.48 261.72
  L 253.54 233.63
  A 0.07 0.07 0.0 0 0 253.57 233.60
  C 255.98 230.68 259.89 224.50 263.58 226.61
  A 1.67 1.65 -87.2 0 1 264.27 227.38
  Q 265.86 231.15 263.34 233.34
  C 259.88 236.35 255.76 241.10 252.20 244.72
  Q 238.54 258.62 227.57 270.47
  C 224.14 274.18 220.77 268.02 218.48 266.18
  C 214.55 263.02 211.72 259.09 207.74 255.58
  Q 204.00 252.27 199.17 246.86
  A 3.13 3.12 -44.2 0 1 199.23 242.65
  L 199.45 242.43
  A 3.04 3.04 0.0 0 1 203.69 242.37
  L 224.20 261.74
  A 0.92 0.92 0.0 0 0 225.48 261.72
  Z"
/>
<rect fill="#9b4ee8" x="-3.30" y="-6.43" transform="translate(39.75,257.00) rotate(-0.7)" width="6.60" height="12.86" rx="3.12"/>
<path fill="#9b4ee8" d="
  M 431.81 266.44
  A 13.11 13.11 0.0 0 1 418.70 279.55
  A 13.11 13.11 0.0 0 1 405.59 266.44
  A 13.11 13.11 0.0 0 1 418.70 253.33
  A 13.11 13.11 0.0 0 1 431.81 266.44
  Z
  M 424.83 266.26
  A 6.18 6.18 0.0 0 0 418.65 260.08
  A 6.18 6.18 0.0 0 0 412.47 266.26
  A 6.18 6.18 0.0 0 0 418.65 272.44
  A 6.18 6.18 0.0 0 0 424.83 266.26
  Z"
/>
<rect fill="#9b4ee8" x="151.67" y="262.68" width="17.52" height="6.90" rx="3.30"/>
<rect fill="#9b4ee8" x="-8.74" y="-3.31" transform="translate(290.60,266.04) rotate(-0.3)" width="17.48" height="6.62" rx="3.15"/>
<ellipse fill="#9b4ee8" cx="0.00" cy="0.00" transform="translate(28.01,268.76) rotate(-178.9)" rx="6.89" ry="3.59"/>
<rect fill="#9b4ee8" x="-6.00" y="-3.49" transform="translate(51.58,268.70) rotate(-0.2)" width="12.00" height="6.98" rx="3.26"/>
<rect fill="#9b4ee8" x="-3.39" y="-6.40" transform="translate(39.83,280.47) rotate(-0.9)" width="6.78" height="12.80" rx="3.19"/>
<rect fill="#9b4ee8" x="-3.38" y="-9.14" transform="translate(225.60,330.74) rotate(-0.9)" width="6.76" height="18.28" rx="3.24"/>
<path fill="#c290f5" d="
  M 102.18 414.38
  A 8.99 8.99 0.0 0 1 93.19 423.37
  A 8.99 8.99 0.0 0 1 84.20 414.38
  A 8.99 8.99 0.0 0 1 93.19 405.39
  A 8.99 8.99 0.0 0 1 102.18 414.38
  Z
  M 95.6998 414.6357
  A 2.46 2.30 -0.8 0 0 93.2079 412.3702
  A 2.46 2.30 -0.8 0 0 90.7802 414.7043
  A 2.46 2.30 -0.8 0 0 93.2721 416.9698
  A 2.46 2.30 -0.8 0 0 95.6998 414.6357
  Z"
/>
<circle fill="#9b4ee8" cx="377.76" cy="424.04" r="3.57"/>
</svg>
