<?xml version="1.0" encoding="UTF-8" standalone="no"?>
<!DOCTYPE svg PUBLIC "-//W3C//DTD SVG 1.1//EN" "http://www.w3.org/Graphics/SVG/1.1/DTD/svg11.dtd">
<svg xmlns="http://www.w3.org/2000/svg" version="1.1" viewBox="0.00 0.00 559.00 446.00">
<path fill="#000000" d="
  M 73.61 203.16
  A 0.73 0.73 0.0 0 0 73.70 201.80
  Q 67.03 198.73 61.05 193.52
  C 49.17 183.17 52.33 170.34 63.46 161.58
  Q 69.73 156.64 75.84 154.29
  Q 121.06 136.89 265.52 79.50
  Q 286.80 71.04 308.56 79.19
  C 342.61 91.96 376.73 106.42 423.30 125.95
  Q 443.52 134.43 462.77 143.54
  Q 474.51 149.09 483.58 154.49
  C 501.64 165.22 523.60 184.43 502.16 205.72
  A 0.54 0.54 0.0 0 0 502.23 206.55
  C 510.27 212.13 516.96 219.11 516.53 229.46
  Q 516.09 240.19 507.12 247.30
  A 1.04 1.04 0.0 0 0 507.13 248.94
  C 519.59 258.58 520.71 274.60 508.98 285.00
  Q 506.34 287.35 500.80 290.13
  Q 398.96 341.33 307.33 386.06
  Q 294.92 392.12 290.58 392.61
  C 280.82 393.71 275.00 390.79 264.83 385.92
  Q 119.15 316.29 78.89 297.11
  Q 69.63 292.69 62.54 285.71
  C 56.02 279.28 52.67 271.75 51.36 262.36
  Q 49.40 248.34 50.98 234.50
  C 52.81 218.50 58.17 207.95 73.61 203.16
  Z
  M 288.22 303.74
  Q 292.63 302.41 298.82 299.58
  Q 312.61 293.27 338.91 280.40
  Q 412.33 244.46 486.76 207.26
  C 493.85 203.72 501.89 197.66 503.17 189.97
  C 505.15 178.04 491.27 167.54 482.00 162.03
  Q 469.97 154.88 459.70 150.11
  Q 435.55 138.90 410.75 128.53
  Q 362.10 108.17 320.38 91.36
  Q 317.56 90.22 305.42 85.84
  Q 287.85 79.50 271.07 85.27
  Q 265.22 87.28 251.18 92.93
  Q 181.68 120.89 84.78 158.50
  Q 77.68 161.26 71.06 165.26
  C 64.74 169.08 57.26 176.90 62.61 184.41
  Q 64.88 187.61 67.66 189.59
  Q 74.92 194.76 83.72 199.03
  C 126.04 219.55 168.92 237.86 212.89 255.36
  Q 228.16 261.44 241.46 267.78
  C 250.54 272.12 260.26 278.19 265.13 287.59
  A 0.76 0.76 0.0 0 1 264.27 288.68
  Q 263.67 288.53 262.94 288.05
  Q 245.41 276.37 221.14 266.60
  Q 199.07 257.71 158.90 241.12
  Q 137.54 232.29 88.06 209.28
  Q 85.79 208.22 83.80 208.45
  C 72.07 209.78 62.12 215.51 59.45 227.74
  Q 57.59 236.31 57.69 246.39
  Q 57.81 259.16 59.26 265.11
  Q 63.07 280.64 78.96 288.86
  Q 90.61 294.89 109.16 303.44
  A 0.65 0.65 0.0 0 0 110.08 302.92
  Q 111.61 289.93 120.94 281.63
  A 0.81 0.81 0.0 0 0 120.76 280.30
  L 101.61 271.06
  A 5.85 5.76 63.9 0 0 100.47 270.66
  C 93.98 269.22 86.10 270.88 79.83 273.09
  Q 78.61 273.53 76.89 273.65
  A 0.56 0.56 0.0 0 1 76.39 272.77
  Q 81.44 265.64 90.31 263.69
  A 0.79 0.79 0.0 0 0 90.83 262.52
  Q 88.01 257.58 89.09 251.27
  A 0.96 0.96 0.0 0 0 88.16 250.15
  C 82.07 250.05 74.36 247.47 70.98 242.06
  A 0.65 0.65 0.0 0 1 71.73 241.10
  Q 80.67 244.01 90.77 243.50
  Q 93.05 243.38 94.52 241.16
  A 0.62 0.62 0.0 0 0 94.30 240.28
  Q 89.57 237.70 85.87 234.98
  C 82.83 232.74 77.53 228.31 77.09 225.46
  A 0.52 0.51 9.6 0 1 77.84 224.93
  C 91.79 232.18 108.50 239.06 122.27 245.46
  Q 162.03 263.95 197.40 279.90
  Q 217.19 288.82 236.12 296.41
  Q 249.36 301.71 259.89 304.59
  C 267.28 306.61 274.54 307.06 279.77 300.77
  C 286.81 292.32 283.10 280.91 276.83 272.68
  C 269.32 262.81 258.02 255.26 247.30 249.20
  Q 230.98 239.98 211.03 231.48
  Q 163.12 211.05 111.58 186.91
  Q 95.54 179.39 79.67 174.97
  A 0.57 0.56 -50.5 0 1 79.57 173.92
  Q 80.20 173.61 81.04 173.56
  Q 90.69 172.90 100.68 176.11
  C 110.45 179.24 118.98 182.67 129.11 187.30
  Q 177.01 209.17 214.65 225.07
  Q 226.85 230.22 243.64 238.86
  C 261.66 248.13 288.64 264.82 290.80 287.22
  Q 291.60 295.61 287.53 302.87
  A 0.60 0.60 0.0 0 0 288.22 303.74
  Z
  M 457.84 263.88
  A 0.45 0.45 0.0 0 0 458.48 264.23
  Q 485.15 250.85 499.43 243.44
  Q 504.51 240.80 507.36 235.44
  C 512.67 225.42 504.65 215.08 495.63 211.67
  A 1.63 1.62 42.1 0 0 494.36 211.73
  L 446.58 235.48
  A 0.95 0.95 0.0 0 0 446.37 237.04
  C 452.52 242.59 457.19 251.03 457.55 259.50
  Q 457.67 262.42 457.84 263.88
  Z
  M 337.82 322.80
  A 0.96 0.96 0.0 0 0 339.20 323.63
  L 447.91 269.61
  A 3.68 3.67 -7.3 0 0 449.87 267.09
  C 452.02 257.03 447.66 246.91 439.57 240.65
  Q 438.24 239.61 435.97 240.72
  Q 354.92 280.71 325.16 295.27
  A 0.88 0.88 0.0 0 0 324.98 296.73
  Q 337.31 307.22 337.82 322.80
  Z
  M 315.80 299.82
  Q 314.53 300.20 314.31 300.31
  Q 302.30 306.49 293.06 310.03
  Q 275.64 316.70 257.74 311.50
  Q 243.88 307.47 234.27 303.54
  Q 203.16 290.80 166.36 273.78
  Q 109.94 247.68 106.86 246.18
  Q 103.76 244.68 102.45 245.20
  C 95.45 247.96 94.21 255.22 98.91 260.68
  Q 100.59 262.64 104.20 264.36
  Q 174.72 298.04 266.71 340.77
  Q 274.30 344.29 277.89 345.57
  C 285.53 348.28 292.25 346.54 299.36 343.10
  Q 314.13 335.96 328.71 328.93
  A 3.14 3.14 0.0 0 0 330.46 326.47
  C 331.66 315.97 326.36 305.97 317.68 300.11
  A 2.18 2.18 0.0 0 0 315.80 299.82
  Z
  M 464.35 270.33
  Q 474.29 280.29 474.46 294.57
  A 0.47 0.46 -14.3 0 0 475.14 294.97
  Q 482.32 291.21 499.79 282.31
  C 513.25 275.46 512.68 259.45 499.71 252.65
  A 1.85 1.83 45.3 0 0 498.05 252.63
  L 464.52 269.29
  A 0.65 0.65 0.0 0 0 464.35 270.33
  Z
  M 333.47 365.39
  L 465.21 299.93
  A 3.15 3.15 0.0 0 0 466.94 297.38
  Q 468.10 283.84 457.98 274.34
  A 2.26 2.24 53.2 0 0 455.43 273.96
  L 322.29 340.12
  A 0.97 0.97 0.0 0 0 322.06 341.70
  Q 332.22 351.21 332.93 365.08
  A 0.38 0.37 -14.7 0 0 333.47 365.39
  Z
  M 239.40 336.00
  L 130.74 285.09
  A 2.68 2.67 39.2 0 0 128.01 285.36
  Q 117.47 293.20 117.29 305.78
  A 2.60 2.58 -77.0 0 0 118.76 308.15
  L 227.44 359.93
  A 1.04 1.04 0.0 0 0 228.92 359.08
  Q 230.08 346.05 239.60 337.26
  A 0.77 0.77 0.0 0 0 239.40 336.00
  Z
  M 314.87 345.00
  A 2.13 2.12 50.9 0 0 312.58 344.76
  Q 309.07 346.54 301.20 350.32
  C 291.05 355.20 281.90 355.69 271.74 351.00
  Q 256.05 343.76 249.27 340.51
  A 2.66 2.65 38.3 0 0 246.46 340.84
  Q 236.48 348.90 236.17 361.47
  Q 236.12 363.32 237.12 364.59
  A 1.25 1.23 83.4 0 0 237.53 364.92
  Q 255.70 373.57 275.04 382.84
  Q 286.13 388.16 297.14 382.87
  Q 310.50 376.44 324.23 369.63
  A 2.62 2.62 0.0 0 0 325.68 367.30
  Q 325.74 353.65 314.87 345.00
  Z"
/>
</svg>
