<?xml version="1.0" encoding="UTF-8" standalone="no"?>
<!DOCTYPE svg PUBLIC "-//W3C//DTD SVG 1.1//EN" "http://www.w3.org/Graphics/SVG/1.1/DTD/svg11.dtd">
<svg xmlns="http://www.w3.org/2000/svg" version="1.1" viewBox="0.00 0.00 400.00 378.00">
<g stroke-width="2.00" fill="none" stroke-linecap="butt">
<path stroke="#0061b8" vector-effect="non-scaling-stroke" d="
  M 264.07 81.37
  C 240.22 65.14 211.38 60.32 183.00 63.71
  Q 157.77 66.71 136.66 80.27
  A 0.29 0.29 0.0 0 0 136.71 80.79
  Q 145.28 83.96 154.88 86.38
  Q 163.91 88.66 167.55 87.75
  A 6.98 2.18 -14.1 0 0 168.50 87.49
  Q 175.89 85.25 181.71 84.64
  A 2.29 2.26 -66.5 0 0 182.83 84.19
  C 193.02 76.36 205.56 75.73 217.75 80.01
  C 221.65 81.37 226.28 83.87 230.63 85.02
  Q 247.43 89.49 264.04 81.83
  A 0.27 0.26 49.7 0 0 264.07 81.37"
/>
<path stroke="#8091c6" vector-effect="non-scaling-stroke" d="
  M 284.29 110.22
  Q 281.25 95.70 268.61 84.94
  A 1.63 1.62 52.2 0 0 266.85 84.71
  Q 247.88 93.73 228.18 88.17
  Q 225.87 87.51 219.79 84.82
  C 210.99 80.92 201.83 79.69 192.67 82.81
  C 184.92 85.45 178.10 93.56 171.81 100.73
  A 0.62 0.62 0.0 0 0 171.87 101.61
  C 175.19 104.48 181.39 103.19 184.54 100.79
  C 188.64 97.68 193.98 92.77 198.43 91.14
  C 206.33 88.24 211.31 92.34 217.00 97.00
  Q 222.26 101.32 246.74 122.50
  A 0.83 0.82 -36.1 0 0 247.61 122.63
  Q 264.79 115.20 283.84 110.92
  A 0.59 0.59 0.0 0 0 284.29 110.22"
/>
<path stroke="#8091c6" vector-effect="non-scaling-stroke" d="
  M 177.23 89.49
  A 0.24 0.24 0.0 0 0 177.00 89.08
  Q 171.76 90.42 168.93 91.15
  C 165.90 91.93 160.92 91.54 157.38 90.78
  Q 145.62 88.26 133.50 83.42
  A 0.91 0.90 36.8 0 0 132.60 83.54
  Q 119.66 93.56 115.19 108.90
  A 1.01 1.01 0.0 0 0 115.92 110.17
  C 129.21 113.46 141.52 116.40 152.76 122.92
  A 0.76 0.75 43.1 0 0 153.56 122.90
  Q 159.92 118.61 165.51 123.55
  A 0.78 0.76 -36.2 0 0 166.34 123.67
  Q 174.45 119.93 180.08 126.55
  A 0.88 0.87 -23.3 0 0 180.84 126.85
  Q 192.37 125.75 192.90 136.32
  A 0.70 0.70 0.0 0 0 193.47 136.97
  Q 205.26 139.19 202.79 151.19
  A 0.67 0.65 -68.4 0 0 203.08 151.88
  Q 207.59 154.66 212.64 152.69
  A 0.84 0.83 58.7 0 0 212.96 151.36
  L 205.85 143.35
  A 0.85 0.84 46.8 0 1 205.88 142.19
  L 206.13 141.94
  A 1.48 1.48 0.0 0 1 208.23 141.94
  L 215.34 149.06
  A 5.43 5.43 0.0 0 0 221.94 149.89
  L 222.32 149.66
  A 3.37 3.37 0.0 0 0 223.25 144.45
  L 214.66 134.76
  A 0.86 0.86 0.0 0 1 214.73 133.54
  L 215.13 133.18
  A 1.23 1.23 0.0 0 1 216.80 133.22
  L 226.89 142.92
  A 1.00 0.99 79.0 0 0 227.11 143.07
  Q 231.02 144.93 234.14 142.17
  Q 238.01 138.73 234.76 135.46
  Q 229.90 130.56 223.22 123.84
  A 1.47 1.46 -49.1 0 1 223.09 121.94
  L 223.12 121.90
  A 1.14 1.13 38.6 0 1 224.76 121.72
  Q 231.59 127.53 236.69 132.38
  Q 239.12 134.69 240.81 134.80
  C 244.18 135.00 247.87 132.66 247.07 129.02
  Q 246.77 127.61 244.06 125.23
  Q 225.13 108.60 212.53 98.27
  C 209.18 95.52 205.27 93.19 201.18 94.45
  C 196.84 95.79 193.08 98.97 188.79 102.32
  Q 184.45 105.70 182.14 106.26
  Q 174.98 107.98 169.30 104.18
  C 166.86 102.54 167.53 99.88 169.40 97.77
  Q 174.03 92.53 177.23 89.49"
/>
<path stroke="#0061b8" vector-effect="non-scaling-stroke" d="
  M 267.36 83.51
  Q 267.19 83.25 267.13 83.22
  A 0.36 0.27 3.8 0 0 266.62 83.55
  Q 266.74 83.72 267.13 83.83
  A 0.21 0.21 0.0 0 0 267.36 83.51"
/>
<path stroke="#0061b8" vector-effect="non-scaling-stroke" d="
  M 114.41 114.39
  C 112.78 140.35 136.70 157.86 158.69 165.32
  Q 194.59 177.51 232.56 167.81
  C 256.69 161.64 285.28 144.29 284.93 115.71
  A 0.72 0.71 83.2 0 0 284.06 115.02
  Q 266.65 118.89 250.18 125.59
  A 0.55 0.55 0.0 0 0 249.89 126.33
  C 253.12 133.16 247.07 139.17 240.36 138.39
  A 0.52 0.52 0.0 0 0 239.78 138.87
  C 239.33 144.24 234.22 147.82 228.93 147.40
  A 0.89 0.89 0.0 0 0 228.05 147.91
  Q 224.88 154.79 217.24 153.89
  A 1.22 1.20 -64.2 0 0 216.26 154.24
  C 212.16 158.35 206.21 157.80 201.17 155.01
  A 1.10 1.09 39.2 0 0 199.94 155.13
  C 194.48 159.61 187.32 158.16 183.85 152.03
  A 0.77 0.75 -18.1 0 0 183.08 151.65
  Q 176.00 152.60 172.45 146.79
  A 0.86 0.85 73.6 0 0 171.68 146.37
  Q 163.44 146.58 160.81 138.87
  A 0.74 0.73 -10.9 0 0 160.07 138.38
  C 153.90 138.81 148.75 133.06 150.93 127.05
  A 0.87 0.86 -64.8 0 0 150.57 126.03
  C 139.67 119.31 126.72 116.97 115.07 113.91
  A 0.53 0.53 0.0 0 0 114.41 114.39"
/>
<path stroke="#8091c6" vector-effect="non-scaling-stroke" d="
  M 164.61 130.24
  C 164.30 126.87 162.25 124.18 158.77 124.47
  C 152.21 125.01 152.58 135.05 159.37 134.96
  Q 161.09 134.94 163.17 133.23
  A 0.49 0.49 0.0 0 1 163.97 133.61
  Q 163.99 135.64 164.01 136.40
  C 164.14 140.11 166.95 142.52 170.59 143.03
  A 0.87 0.85 35.2 0 0 171.10 142.95
  L 173.90 141.60
  A 0.88 0.88 0.0 0 1 175.16 142.51
  C 175.03 143.51 175.12 144.75 175.76 145.51
  Q 180.04 150.59 184.93 146.60
  A 0.74 0.74 0.0 0 1 186.14 147.10
  C 187.25 158.01 201.59 155.19 199.61 145.91
  Q 198.82 142.17 194.61 140.83
  C 192.97 140.31 191.19 140.87 189.63 141.41
  A 0.77 0.77 0.0 0 1 188.62 140.51
  L 189.57 136.35
  A 1.62 1.55 -43.9 0 0 189.59 135.85
  Q 188.75 130.14 182.81 130.18
  C 181.39 130.19 180.22 131.11 179.08 131.96
  A 0.70 0.70 0.0 0 1 177.97 131.51
  C 176.75 123.87 167.91 124.59 165.10 130.34
  A 0.26 0.26 0.0 0 1 164.61 130.24"
/>
</g>
<path fill="#00238c" d="
  M 199.65 59.24
  Q 221.84 59.25 241.75 66.24
  C 262.32 73.46 283.77 88.42 287.83 111.20
  C 288.45 114.68 288.20 118.41 288.24 122.28
  C 288.37 135.44 281.46 148.70 272.16 157.69
  C 256.69 172.65 234.36 180.06 213.24 181.71
  Q 206.45 182.24 199.59 182.24
  Q 192.72 182.24 185.93 181.70
  C 164.81 180.02 142.49 172.59 127.04 157.61
  C 117.75 148.61 110.85 135.34 111.00 122.18
  C 111.04 118.31 110.79 114.58 111.42 111.10
  C 115.50 88.33 136.97 73.39 157.55 66.19
  Q 177.46 59.23 199.65 59.24
  Z
  M 264.07 81.37
  C 240.22 65.14 211.38 60.32 183.00 63.71
  Q 157.77 66.71 136.66 80.27
  A 0.29 0.29 0.0 0 0 136.71 80.79
  Q 145.28 83.96 154.88 86.38
  Q 163.91 88.66 167.55 87.75
  A 6.98 2.18 -14.1 0 0 168.50 87.49
  Q 175.89 85.25 181.71 84.64
  A 2.29 2.26 -66.5 0 0 182.83 84.19
  C 193.02 76.36 205.56 75.73 217.75 80.01
  C 221.65 81.37 226.28 83.87 230.63 85.02
  Q 247.43 89.49 264.04 81.83
  A 0.27 0.26 49.7 0 0 264.07 81.37
  Z
  M 284.29 110.22
  Q 281.25 95.70 268.61 84.94
  A 1.63 1.62 52.2 0 0 266.85 84.71
  Q 247.88 93.73 228.18 88.17
  Q 225.87 87.51 219.79 84.82
  C 210.99 80.92 201.83 79.69 192.67 82.81
  C 184.92 85.45 178.10 93.56 171.81 100.73
  A 0.62 0.62 0.0 0 0 171.87 101.61
  C 175.19 104.48 181.39 103.19 184.54 100.79
  C 188.64 97.68 193.98 92.77 198.43 91.14
  C 206.33 88.24 211.31 92.34 217.00 97.00
  Q 222.26 101.32 246.74 122.50
  A 0.83 0.82 -36.1 0 0 247.61 122.63
  Q 264.79 115.20 283.84 110.92
  A 0.59 0.59 0.0 0 0 284.29 110.22
  Z
  M 177.23 89.49
  A 0.24 0.24 0.0 0 0 177.00 89.08
  Q 171.76 90.42 168.93 91.15
  C 165.90 91.93 160.92 91.54 157.38 90.78
  Q 145.62 88.26 133.50 83.42
  A 0.91 0.90 36.8 0 0 132.60 83.54
  Q 119.66 93.56 115.19 108.90
  A 1.01 1.01 0.0 0 0 115.92 110.17
  C 129.21 113.46 141.52 116.40 152.76 122.92
  A 0.76 0.75 43.1 0 0 153.56 122.90
  Q 159.92 118.61 165.51 123.55
  A 0.78 0.76 -36.2 0 0 166.34 123.67
  Q 174.45 119.93 180.08 126.55
  A 0.88 0.87 -23.3 0 0 180.84 126.85
  Q 192.37 125.75 192.90 136.32
  A 0.70 0.70 0.0 0 0 193.47 136.97
  Q 205.26 139.19 202.79 151.19
  A 0.67 0.65 -68.4 0 0 203.08 151.88
  Q 207.59 154.66 212.64 152.69
  A 0.84 0.83 58.7 0 0 212.96 151.36
  L 205.85 143.35
  A 0.85 0.84 46.8 0 1 205.88 142.19
  L 206.13 141.94
  A 1.48 1.48 0.0 0 1 208.23 141.94
  L 215.34 149.06
  A 5.43 5.43 0.0 0 0 221.94 149.89
  L 222.32 149.66
  A 3.37 3.37 0.0 0 0 223.25 144.45
  L 214.66 134.76
  A 0.86 0.86 0.0 0 1 214.73 133.54
  L 215.13 133.18
  A 1.23 1.23 0.0 0 1 216.80 133.22
  L 226.89 142.92
  A 1.00 0.99 79.0 0 0 227.11 143.07
  Q 231.02 144.93 234.14 142.17
  Q 238.01 138.73 234.76 135.46
  Q 229.90 130.56 223.22 123.84
  A 1.47 1.46 -49.1 0 1 223.09 121.94
  L 223.12 121.90
  A 1.14 1.13 38.6 0 1 224.76 121.72
  Q 231.59 127.53 236.69 132.38
  Q 239.12 134.69 240.81 134.80
  C 244.18 135.00 247.87 132.66 247.07 129.02
  Q 246.77 127.61 244.06 125.23
  Q 225.13 108.60 212.53 98.27
  C 209.18 95.52 205.27 93.19 201.18 94.45
  C 196.84 95.79 193.08 98.97 188.79 102.32
  Q 184.45 105.70 182.14 106.26
  Q 174.98 107.98 169.30 104.18
  C 166.86 102.54 167.53 99.88 169.40 97.77
  Q 174.03 92.53 177.23 89.49
  Z
  M 267.36 83.51
  Q 267.19 83.25 267.13 83.22
  A 0.36 0.27 3.8 0 0 266.62 83.55
  Q 266.74 83.72 267.13 83.83
  A 0.21 0.21 0.0 0 0 267.36 83.51
  Z
  M 114.41 114.39
  C 112.78 140.35 136.70 157.86 158.69 165.32
  Q 194.59 177.51 232.56 167.81
  C 256.69 161.64 285.28 144.29 284.93 115.71
  A 0.72 0.71 83.2 0 0 284.06 115.02
  Q 266.65 118.89 250.18 125.59
  A 0.55 0.55 0.0 0 0 249.89 126.33
  C 253.12 133.16 247.07 139.17 240.36 138.39
  A 0.52 0.52 0.0 0 0 239.78 138.87
  C 239.33 144.24 234.22 147.82 228.93 147.40
  A 0.89 0.89 0.0 0 0 228.05 147.91
  Q 224.88 154.79 217.24 153.89
  A 1.22 1.20 -64.2 0 0 216.26 154.24
  C 212.16 158.35 206.21 157.80 201.17 155.01
  A 1.10 1.09 39.2 0 0 199.94 155.13
  C 194.48 159.61 187.32 158.16 183.85 152.03
  A 0.77 0.75 -18.1 0 0 183.08 151.65
  Q 176.00 152.60 172.45 146.79
  A 0.86 0.85 73.6 0 0 171.68 146.37
  Q 163.44 146.58 160.81 138.87
  A 0.74 0.73 -10.9 0 0 160.07 138.38
  C 153.90 138.81 148.75 133.06 150.93 127.05
  A 0.87 0.86 -64.8 0 0 150.57 126.03
  C 139.67 119.31 126.72 116.97 115.07 113.91
  A 0.53 0.53 0.0 0 0 114.41 114.39
  Z
  M 164.61 130.24
  C 164.30 126.87 162.25 124.18 158.77 124.47
  C 152.21 125.01 152.58 135.05 159.37 134.96
  Q 161.09 134.94 163.17 133.23
  A 0.49 0.49 0.0 0 1 163.97 133.61
  Q 163.99 135.64 164.01 136.40
  C 164.14 140.11 166.95 142.52 170.59 143.03
  A 0.87 0.85 35.2 0 0 171.10 142.95
  L 173.90 141.60
  A 0.88 0.88 0.0 0 1 175.16 142.51
  C 175.03 143.51 175.12 144.75 175.76 145.51
  Q 180.04 150.59 184.93 146.60
  A 0.74 0.74 0.0 0 1 186.14 147.10
  C 187.25 158.01 201.59 155.19 199.61 145.91
  Q 198.82 142.17 194.61 140.83
  C 192.97 140.31 191.19 140.87 189.63 141.41
  A 0.77 0.77 0.0 0 1 188.62 140.51
  L 189.57 136.35
  A 1.62 1.55 -43.9 0 0 189.59 135.85
  Q 188.75 130.14 182.81 130.18
  C 181.39 130.19 180.22 131.11 179.08 131.96
  A 0.70 0.70 0.0 0 1 177.97 131.51
  C 176.75 123.87 167.91 124.59 165.10 130.34
  A 0.26 0.26 0.0 0 1 164.61 130.24
  Z"
/>
<path fill="#009ee3" d="
  M 264.07 81.37
  A 0.27 0.26 49.7 0 1 264.04 81.83
  Q 247.43 89.49 230.63 85.02
  C 226.28 83.87 221.65 81.37 217.75 80.01
  C 205.56 75.73 193.02 76.36 182.83 84.19
  A 2.29 2.26 -66.5 0 1 181.71 84.64
  Q 175.89 85.25 168.50 87.49
  A 6.98 2.18 -14.1 0 1 167.55 87.75
  Q 163.91 88.66 154.88 86.38
  Q 145.28 83.96 136.71 80.79
  A 0.29 0.29 0.0 0 1 136.66 80.27
  Q 157.77 66.71 183.00 63.71
  C 211.38 60.32 240.22 65.14 264.07 81.37
  Z"
/>
<path fill="#ffffff" d="
  M 283.84 110.92
  Q 264.79 115.20 247.61 122.63
  A 0.83 0.82 -36.1 0 1 246.74 122.50
  Q 222.26 101.32 217.00 97.00
  C 211.31 92.34 206.33 88.24 198.43 91.14
  C 193.98 92.77 188.64 97.68 184.54 100.79
  C 181.39 103.19 175.19 104.48 171.87 101.61
  A 0.62 0.62 0.0 0 1 171.81 100.73
  C 178.10 93.56 184.92 85.45 192.67 82.81
  C 201.83 79.69 210.99 80.92 219.79 84.82
  Q 225.87 87.51 228.18 88.17
  Q 247.88 93.73 266.85 84.71
  A 1.63 1.62 52.2 0 1 268.61 84.94
  Q 281.25 95.70 284.29 110.22
  A 0.59 0.59 0.0 0 1 283.84 110.92
  Z"
/>
<path fill="#ffffff" d="
  M 177.23 89.49
  Q 174.03 92.53 169.40 97.77
  C 167.53 99.88 166.86 102.54 169.30 104.18
  Q 174.98 107.98 182.14 106.26
  Q 184.45 105.70 188.79 102.32
  C 193.08 98.97 196.84 95.79 201.18 94.45
  C 205.27 93.19 209.18 95.52 212.53 98.27
  Q 225.13 108.60 244.06 125.23
  Q 246.77 127.61 247.07 129.02
  C 247.87 132.66 244.18 135.00 240.81 134.80
  Q 239.12 134.69 236.69 132.38
  Q 231.59 127.53 224.76 121.72
  A 1.14 1.13 38.6 0 0 223.12 121.90
  L 223.09 121.94
  A 1.47 1.46 -49.1 0 0 223.22 123.84
  Q 229.90 130.56 234.76 135.46
  Q 238.01 138.73 234.14 142.17
  Q 231.02 144.93 227.11 143.07
  A 1.00 0.99 79.0 0 1 226.89 142.92
  L 216.80 133.22
  A 1.23 1.23 0.0 0 0 215.13 133.18
  L 214.73 133.54
  A 0.86 0.86 0.0 0 0 214.66 134.76
  L 223.25 144.45
  A 3.37 3.37 0.0 0 1 222.32 149.66
  L 221.94 149.89
  A 5.43 5.43 0.0 0 1 215.34 149.06
  L 208.23 141.94
  A 1.48 1.48 0.0 0 0 206.13 141.94
  L 205.88 142.19
  A 0.85 0.84 46.8 0 0 205.85 143.35
  L 212.96 151.36
  A 0.84 0.83 58.7 0 1 212.64 152.69
  Q 207.59 154.66 203.08 151.88
  A 0.67 0.65 -68.4 0 1 202.79 151.19
  Q 205.26 139.19 193.47 136.97
  A 0.70 0.70 0.0 0 1 192.90 136.32
  Q 192.37 125.75 180.84 126.85
  A 0.88 0.87 -23.3 0 1 180.08 126.55
  Q 174.45 119.93 166.34 123.67
  A 0.78 0.76 -36.2 0 1 165.51 123.55
  Q 159.92 118.61 153.56 122.90
  A 0.76 0.75 43.1 0 1 152.76 122.92
  C 141.52 116.40 129.21 113.46 115.92 110.17
  A 1.01 1.01 0.0 0 1 115.19 108.90
  Q 119.66 93.56 132.60 83.54
  A 0.91 0.90 36.8 0 1 133.50 83.42
  Q 145.62 88.26 157.38 90.78
  C 160.92 91.54 165.90 91.93 168.93 91.15
  Q 171.76 90.42 177.00 89.08
  A 0.24 0.24 0.0 0 1 177.23 89.49
  Z"
/>
<path fill="#009ee3" d="
  M 267.13 83.83
  Q 266.74 83.72 266.62 83.55
  A 0.36 0.27 3.8 0 1 267.13 83.22
  Q 267.19 83.25 267.36 83.51
  A 0.21 0.21 0.0 0 1 267.13 83.83
  Z"
/>
<path fill="#009ee3" d="
  M 115.07 113.91
  C 126.72 116.97 139.67 119.31 150.57 126.03
  A 0.87 0.86 -64.8 0 1 150.93 127.05
  C 148.75 133.06 153.90 138.81 160.07 138.38
  A 0.74 0.73 -10.9 0 1 160.81 138.87
  Q 163.44 146.58 171.68 146.37
  A 0.86 0.85 73.6 0 1 172.45 146.79
  Q 176.00 152.60 183.08 151.65
  A 0.77 0.75 -18.1 0 1 183.85 152.03
  C 187.32 158.16 194.48 159.61 199.94 155.13
  A 1.10 1.09 39.2 0 1 201.17 155.01
  C 206.21 157.80 212.16 158.35 216.26 154.24
  A 1.22 1.20 -64.2 0 1 217.24 153.89
  Q 224.88 154.79 228.05 147.91
  A 0.89 0.89 0.0 0 1 228.93 147.40
  C 234.22 147.82 239.33 144.24 239.78 138.87
  A 0.52 0.52 0.0 0 1 240.36 138.39
  C 247.07 139.17 253.12 133.16 249.89 126.33
  A 0.55 0.55 0.0 0 1 250.18 125.59
  Q 266.65 118.89 284.06 115.02
  A 0.72 0.71 83.2 0 1 284.93 115.71
  C 285.28 144.29 256.69 161.64 232.56 167.81
  Q 194.59 177.51 158.69 165.32
  C 136.70 157.86 112.78 140.35 114.41 114.39
  A 0.53 0.53 0.0 0 1 115.07 113.91
  Z"
/>
<path fill="#ffffff" d="
  M 164.61 130.24
  A 0.26 0.26 0.0 0 0 165.10 130.34
  C 167.91 124.59 176.75 123.87 177.97 131.51
  A 0.70 0.70 0.0 0 0 179.08 131.96
  C 180.22 131.11 181.39 130.19 182.81 130.18
  Q 188.75 130.14 189.59 135.85
  A 1.62 1.55 -43.9 0 1 189.57 136.35
  L 188.62 140.51
  A 0.77 0.77 0.0 0 0 189.63 141.41
  C 191.19 140.87 192.97 140.31 194.61 140.83
  Q 198.82 142.17 199.61 145.91
  C 201.59 155.19 187.25 158.01 186.14 147.10
  A 0.74 0.74 0.0 0 0 184.93 146.60
  Q 180.04 150.59 175.76 145.51
  C 175.12 144.75 175.03 143.51 175.16 142.51
  A 0.88 0.88 0.0 0 0 173.90 141.60
  L 171.10 142.95
  A 0.87 0.85 35.2 0 1 170.59 143.03
  C 166.95 142.52 164.14 140.11 164.01 136.40
  Q 163.99 135.64 163.97 133.61
  A 0.49 0.49 0.0 0 0 163.17 133.23
  Q 161.09 134.94 159.37 134.96
  C 152.58 135.05 152.21 125.01 158.77 124.47
  C 162.25 124.18 164.30 126.87 164.61 130.24
  Z"
/>
<path fill="#00238c" d="
  M 287.74 215.57
  Q 287.75 210.71 287.76 206.01
  C 287.77 200.22 292.98 198.93 297.67 199.26
  A 0.63 0.63 0.0 0 1 298.26 199.90
  Q 298.22 206.01 298.28 230.60
  C 298.30 238.51 297.26 244.72 290.94 248.62
  C 285.52 251.97 277.43 251.96 271.51 250.02
  C 264.84 247.83 261.59 241.56 261.05 234.49
  C 260.50 227.20 262.12 218.87 267.77 214.41
  C 273.45 209.95 282.45 209.80 287.28 215.73
  A 0.26 0.26 0.0 0 0 287.74 215.57
  Z
  M 279.6995 219.9501
  A 11.60 8.49 -90.2 0 0 271.2501 231.5796
  A 11.60 8.49 -90.2 0 0 279.7805 243.1499
  A 11.60 8.49 -90.2 0 0 288.2299 231.5204
  A 11.60 8.49 -90.2 0 0 279.6995 219.9501
  Z"
/>
<path fill="#00238c" d="
  M 233.34 224.54
  L 226.68 224.56
  A 1.49 1.49 0.0 0 1 225.20 222.81
  Q 226.84 213.27 236.30 211.53
  C 244.13 210.09 257.68 211.30 257.76 222.24
  Q 257.82 231.82 257.73 237.73
  C 257.54 250.18 244.84 252.19 235.29 251.46
  Q 222.68 250.50 224.12 237.74
  C 225.24 227.84 236.10 227.69 244.02 226.48
  C 245.65 226.24 247.56 225.16 247.59 223.25
  C 247.69 217.76 236.13 218.37 235.59 222.66
  A 2.27 2.27 0.0 0 1 233.34 224.54
  Z
  M 247.17 232.33
  Q 244.28 233.37 238.89 234.37
  C 231.66 235.72 232.95 245.40 240.52 243.86
  C 246.97 242.55 247.83 238.95 247.73 232.72
  A 0.42 0.42 0.0 0 0 247.17 232.33
  Z"
/>
<path fill="#00238c" d="
  M 339.7092 233.8826
  A 17.59 17.59 0.0 0 1 322.1807 251.5339
  L 318.7607 251.5458
  A 17.59 17.59 0.0 0 1 301.1094 234.0174
  L 301.0908 228.6974
  A 17.59 17.59 0.0 0 1 318.6193 211.0461
  L 322.0393 211.0342
  A 17.59 17.59 0.0 0 1 339.6906 228.5626
  L 339.7092 233.8826
  Z
  M 329.24 231.30
  C 329.24 225.62 327.18 219.54 320.38 219.53
  C 313.57 219.52 311.49 225.59 311.48 231.27
  C 311.47 236.95 313.54 243.04 320.34 243.05
  C 327.14 243.06 329.23 236.98 329.24 231.30
  Z"
/>
<path fill="#00238c" d="
  M 87.12 216.39
  Q 87.15 216.39 87.18 216.39
  A 0.17 0.02 -46.6 0 0 87.29 216.30
  C 95.10 207.85 108.65 210.26 112.93 220.33
  Q 114.64 224.37 114.39 231.88
  Q 114.24 236.29 114.34 250.31
  A 0.46 0.46 0.0 0 1 113.88 250.78
  L 105.64 250.78
  A 0.45 0.45 0.0 0 1 105.19 250.33
  L 105.22 226.56
  A 0.65 0.59 42.4 0 0 105.20 226.34
  C 103.52 217.95 91.84 218.85 91.67 227.46
  Q 91.51 235.26 91.59 250.38
  A 0.34 0.34 0.0 0 1 91.25 250.73
  Q 89.68 250.75 87.07 250.75
  Q 84.46 250.74 82.89 250.72
  A 0.34 0.34 0.0 0 1 82.54 250.37
  Q 82.67 235.25 82.53 227.45
  C 82.38 218.84 70.71 217.90 69.00 226.29
  A 0.65 0.59 -42.2 0 0 68.98 226.51
  L 68.94 250.28
  A 0.45 0.45 0.0 0 1 68.49 250.73
  L 60.25 250.70
  A 0.46 0.46 0.0 0 1 59.79 250.23
  Q 59.93 236.21 59.80 231.80
  Q 59.57 224.29 61.29 220.26
  C 65.60 210.20 79.16 207.83 86.94 216.30
  A 0.17 0.02 46.8 0 0 87.05 216.39
  Q 87.08 216.39 87.12 216.39
  Z"
/>
<path fill="#00238c" d="
  M 154.86 240.24
  A 0.53 0.53 0.0 0 1 155.34 240.98
  C 149.80 253.21 134.48 254.72 124.52 247.50
  C 117.70 242.55 117.26 231.30 119.22 224.12
  C 122.02 213.90 131.82 209.65 141.76 211.61
  C 153.02 213.83 156.80 223.26 155.93 233.74
  A 0.57 0.56 -87.2 0 1 155.37 234.25
  L 129.10 234.25
  A 0.56 0.55 87.2 0 0 128.55 234.86
  Q 129.15 240.24 132.91 242.08
  Q 139.18 245.16 144.45 240.59
  A 1.47 1.43 -64.7 0 1 145.39 240.24
  L 154.86 240.24
  Z
  M 129.11 227.51
  L 145.35 227.49
  A 0.13 0.13 0.0 0 0 145.48 227.36
  L 145.48 227.27
  A 8.01 7.58 -0.1 0 0 137.45 219.70
  L 136.97 219.70
  A 8.01 7.58 -0.1 0 0 128.98 227.29
  L 128.98 227.38
  A 0.13 0.13 0.0 0 0 129.11 227.51
  Z"
/>
<path fill="#00238c" d="
  M 181.63 221.43
  C 175.40 221.21 170.39 222.46 170.30 229.85
  Q 170.15 242.22 170.28 250.34
  A 0.41 0.40 -0.7 0 1 169.87 250.75
  L 160.66 250.75
  A 0.43 0.43 0.0 0 1 160.23 250.32
  Q 160.36 243.35 160.20 233.29
  Q 160.07 225.57 161.96 221.61
  C 165.70 213.75 173.23 211.27 181.57 211.24
  A 0.68 0.68 0.0 0 1 182.25 211.92
  L 182.25 220.83
  A 0.60 0.60 0.0 0 1 181.63 221.43
  Z"
/>
<path fill="#00238c" d="
  M 220.49 237.26
  C 218.31 249.88 205.77 253.75 194.82 250.36
  C 184.19 247.07 182.13 233.66 184.79 224.18
  Q 187.81 213.41 199.12 211.57
  C 204.82 210.64 212.94 211.82 216.93 216.28
  Q 220.04 219.75 220.52 225.31
  A 0.41 0.40 88.0 0 1 220.12 225.75
  L 210.56 225.75
  A 0.76 0.76 0.0 0 1 209.83 225.19
  C 207.60 217.23 197.32 218.09 195.39 225.86
  C 193.88 231.91 193.90 242.96 202.55 243.16
  Q 208.90 243.30 209.70 237.11
  A 0.72 0.71 3.6 0 1 210.41 236.49
  L 219.84 236.49
  A 0.66 0.66 0.0 0 1 220.49 237.26
  Z"
/>
<path fill="#009ee3" d="
  M 200.44 306.50
  L 209.86 306.50
  A 1.07 1.06 70.6 0 1 210.69 306.90
  C 217.30 315.02 225.81 307.93 224.93 299.45
  A 0.23 0.23 0.0 0 0 224.51 299.35
  C 220.61 304.98 211.93 304.63 206.86 301.16
  Q 201.50 297.49 199.93 291.39
  C 197.38 281.43 199.02 266.57 211.13 263.92
  C 223.28 261.27 234.88 266.38 235.15 280.33
  Q 235.38 292.73 235.18 301.75
  C 235.09 305.88 233.69 310.00 231.21 313.24
  Q 225.76 320.32 214.86 319.14
  Q 203.00 317.85 199.98 307.11
  A 0.48 0.48 0.0 0 1 200.44 306.50
  Z
  M 208.92 283.62
  C 208.88 288.90 210.26 295.03 216.88 295.08
  C 223.50 295.13 224.97 289.02 225.01 283.74
  C 225.05 278.46 223.67 272.33 217.05 272.28
  C 210.43 272.23 208.96 278.34 208.92 283.62
  Z"
/>
<path fill="#009ee3" d="
  M 277.53 286.26
  A 17.59 17.59 0.0 0 1 259.94 303.85
  L 256.50 303.85
  A 17.59 17.59 0.0 0 1 238.91 286.26
  L 238.91 280.96
  A 17.59 17.59 0.0 0 1 256.50 263.37
  L 259.94 263.37
  A 17.59 17.59 0.0 0 1 277.53 280.96
  L 277.53 286.26
  Z
  M 249.29 283.63
  C 249.29 289.31 251.37 295.38 258.18 295.38
  C 264.98 295.37 267.05 289.29 267.05 283.61
  C 267.04 277.93 264.96 271.85 258.16 271.86
  C 251.36 271.86 249.28 277.94 249.29 283.63
  Z"
/>
<path fill="#009ee3" d="
  M 132.07 299.54
  Q 131.87 302.92 132.06 310.28
  C 132.22 316.42 127.39 316.12 122.31 315.96
  A 0.61 0.61 0.0 0 1 121.72 315.30
  Q 121.87 313.23 121.71 287.01
  Q 121.63 276.02 123.24 272.75
  C 126.84 265.42 134.47 262.92 142.50 263.56
  C 156.65 264.68 160.63 277.67 158.21 289.78
  C 156.08 300.46 147.92 306.36 136.95 302.89
  Q 135.32 302.37 132.58 299.36
  A 0.29 0.29 0.0 0 0 132.07 299.54
  Z
  M 140.1389 272.0303
  A 11.62 8.43 -90.4 0 0 131.7902 283.7089
  A 11.62 8.43 -90.4 0 0 140.3011 295.2697
  A 11.62 8.43 -90.4 0 0 148.6498 283.5911
  A 11.62 8.43 -90.4 0 0 140.1389 272.0303
  Z"
/>
<path fill="#009ee3" d="
  M 162.92 275.34
  Q 164.55 265.79 174.01 264.05
  C 181.84 262.61 195.39 263.82 195.47 274.76
  Q 195.54 284.34 195.45 290.25
  C 195.26 302.70 182.56 304.71 173.01 303.98
  Q 160.40 303.03 161.84 290.27
  C 162.96 280.37 173.82 280.21 181.74 279.00
  C 183.37 278.76 185.28 277.68 185.31 275.77
  C 185.40 270.28 173.84 270.89 173.30 275.18
  A 2.27 2.27 0.0 0 1 171.06 277.06
  L 164.40 277.08
  A 1.49 1.49 0.0 0 1 162.92 275.34
  Z
  M 184.76 284.88
  Q 181.88 285.92 176.52 286.92
  C 169.32 288.27 170.62 297.91 178.15 296.37
  C 184.57 295.06 185.42 291.47 185.32 285.27
  A 0.42 0.42 0.0 0 0 184.76 284.88
  Z"
/>
</svg>
