<?xml version="1.0" encoding="UTF-8" standalone="no"?>
<!DOCTYPE svg PUBLIC "-//W3C//DTD SVG 1.1//EN" "http://www.w3.org/Graphics/SVG/1.1/DTD/svg11.dtd">
<svg xmlns="http://www.w3.org/2000/svg" version="1.1" viewBox="0.00 0.00 300.00 300.00">
<circle fill="#ffb800" cx="104.68" cy="103.76" r="4.54"/>
<circle fill="#ffb800" cx="84.96" cy="103.74" r="3.82"/>
<circle fill="#ffb800" cx="65.41" cy="104.07" r="2.98"/>
<circle fill="#ffb800" cx="94.75" cy="118.57" r="4.53"/>
<circle fill="#ffb800" cx="114.49" cy="118.56" r="4.53"/>
<circle fill="#ffb800" cx="75.43" cy="118.57" r="3.81"/>
<circle fill="#ffb800" cx="55.78" cy="118.60" r="2.96"/>
<circle fill="#ffb800" cx="41.27" cy="118.64" r="1.58"/>
<path fill="#0060ae" d="
  M 187.63 169.25
  L 214.77 169.25
  A 3.68 3.54 -54.9 0 0 216.11 168.99
  Q 221.12 167.00 222.69 163.22
  C 224.53 158.81 224.44 151.07 218.76 149.55
  A 2.77 2.47 48.3 0 0 218.16 149.48
  L 200.84 149.48
  A 3.78 3.69 52.8 0 1 199.76 149.32
  C 194.09 147.71 191.51 142.66 192.32 136.96
  Q 193.64 127.69 203.47 124.69
  A 3.74 3.65 35.6 0 1 204.58 124.52
  L 228.95 124.52
  A 1.65 1.65 0.0 0 1 230.60 126.17
  L 230.60 126.66
  A 1.35 1.34 -0.0 0 1 229.25 128.00
  L 204.74 128.00
  A 1.82 1.78 -52.9 0 0 204.21 128.08
  Q 195.66 130.84 195.70 138.80
  C 195.72 142.99 198.24 146.11 202.52 146.22
  Q 205.47 146.29 219.16 146.24
  A 3.09 3.09 0.0 0 1 220.28 146.45
  Q 225.32 148.38 226.38 152.99
  Q 229.57 166.90 217.49 172.25
  A 2.70 2.69 32.9 0 1 216.40 172.48
  L 187.54 172.48
  A 1.36 1.36 0.0 0 1 186.18 171.12
  L 186.18 170.70
  A 1.45 1.45 0.0 0 1 187.63 169.25
  Z"
/>
<path fill="#0060ae" d="
  M 146.09 168.19
  L 141.78 191.90
  A 1.66 1.65 -79.5 0 1 139.86 193.23
  L 139.22 193.12
  A 1.15 1.15 0.0 0 1 138.30 191.78
  L 148.36 136.43
  A 4.14 3.88 63.7 0 1 148.60 135.64
  Q 151.67 128.62 158.41 125.54
  A 3.18 3.09 30.7 0 1 159.66 125.24
  Q 161.06 125.20 178.22 125.29
  Q 180.06 125.30 183.05 127.18
  Q 187.38 129.90 186.72 134.99
  Q 186.26 138.50 183.07 157.81
  Q 182.04 164.06 180.37 166.37
  C 178.07 169.55 174.32 172.64 170.20 172.71
  Q 161.38 172.85 157.50 172.98
  Q 150.94 173.20 146.59 168.05
  A 0.29 0.29 0.0 0 0 146.09 168.19
  Z
  M 147.33 161.09
  A 3.52 3.50 33.4 0 0 147.91 163.88
  Q 149.98 166.79 152.77 168.37
  Q 154.83 169.54 159.08 169.39
  Q 169.93 169.01 170.52 169.00
  C 174.48 168.92 178.59 163.82 179.22 160.26
  Q 181.44 147.81 183.52 134.56
  A 2.72 2.69 39.0 0 0 183.36 133.12
  C 181.84 129.22 178.51 128.28 173.92 128.46
  Q 173.15 128.49 161.13 128.48
  A 2.87 2.70 -56.5 0 0 159.90 128.77
  Q 156.42 130.50 153.65 133.91
  Q 151.93 136.02 150.85 142.01
  Q 147.93 158.21 147.33 161.09
  Z"
/>
<path fill="#0060ae" d="
  M 236.52 151.46
  Q 235.78 154.78 235.14 160.89
  Q 234.73 164.77 236.19 166.44
  C 237.89 168.38 240.50 169.28 243.28 169.27
  Q 250.38 169.23 267.19 169.26
  A 1.78 1.78 0.0 0 1 268.97 171.04
  L 268.97 171.46
  A 1.30 1.30 0.0 0 1 267.67 172.76
  Q 257.18 172.74 244.43 172.78
  C 239.67 172.80 236.17 171.84 233.23 168.32
  C 230.81 165.42 231.86 158.98 232.46 155.25
  Q 233.75 147.14 235.60 138.14
  C 236.61 133.23 239.82 128.16 244.06 126.18
  Q 246.15 125.20 251.57 125.22
  Q 264.68 125.25 266.72 125.31
  A 3.13 2.73 -32.2 0 1 267.49 125.43
  Q 276.09 128.02 275.23 136.58
  Q 274.48 143.98 273.61 149.41
  A 1.69 1.69 0.0 0 1 271.94 150.83
  L 237.31 150.83
  A 0.81 0.80 6.2 0 0 236.52 151.46
  Z
  M 238.00 147.44
  L 270.09 147.44
  A 0.64 0.64 0.0 0 0 270.73 146.85
  L 271.94 134.64
  A 3.29 3.25 -56.3 0 0 271.59 132.83
  Q 269.88 129.54 266.52 128.78
  A 0.94 0.77 -32.1 0 0 266.29 128.75
  L 247.51 128.75
  A 2.78 2.75 30.4 0 0 246.18 129.09
  C 239.28 132.87 238.70 139.92 237.47 146.80
  A 0.54 0.54 0.0 0 0 238.00 147.44
  Z"
/>
<path fill="#ffb800" d="
  M 124.48 150.61
  A 0.26 0.26 0.0 0 0 124.26 150.22
  L 80.24 150.22
  A 0.88 0.87 12.9 0 0 79.45 150.71
  C 76.74 156.31 68.22 152.63 71.46 146.25
  A 2.20 2.13 -4.7 0 1 72.18 145.43
  Q 76.41 142.61 79.24 146.75
  A 1.08 1.08 0.0 0 0 80.14 147.23
  L 114.94 147.23
  A 0.27 0.27 0.0 0 0 115.17 146.82
  L 108.13 136.02
  A 1.19 1.16 73.4 0 0 107.14 135.47
  L 89.73 135.47
  A 0.75 0.74 16.7 0 0 89.11 135.80
  Q 87.73 137.83 86.55 138.07
  Q 82.27 138.92 80.88 135.89
  Q 79.73 133.38 81.10 131.39
  Q 83.50 127.94 87.72 130.06
  A 0.83 0.72 82.8 0 1 88.02 130.33
  L 89.17 132.10
  A 0.92 0.91 -16.3 0 0 89.94 132.52
  L 108.80 132.52
  A 1.04 1.03 72.8 0 1 109.66 132.98
  L 118.45 146.49
  A 1.64 1.62 -16.3 0 0 119.82 147.23
  L 141.98 147.23
  A 0.26 0.25 -90.0 0 1 142.23 147.49
  L 142.23 149.91
  A 0.31 0.31 0.0 0 1 141.92 150.22
  L 128.45 150.22
  A 1.14 1.14 0.0 0 0 127.46 150.79
  L 119.26 164.99
  A 0.98 0.97 14.7 0 1 118.41 165.48
  L 109.67 165.48
  A 0.88 0.87 14.7 0 0 108.91 165.92
  Q 107.09 169.00 104.02 168.56
  C 100.26 168.03 98.70 163.04 101.74 160.64
  C 104.44 158.51 107.11 159.65 108.90 162.28
  A 1.18 1.16 72.5 0 0 109.86 162.79
  L 116.68 162.79
  A 1.35 1.34 -74.8 0 0 117.84 162.12
  L 124.48 150.61
  Z"
/>
<circle fill="#ffb800" cx="65.40" cy="133.82" r="3.81"/>
<circle fill="#ffb800" cx="46.28" cy="133.84" r="2.98"/>
<circle fill="#ffb800" cx="31.44" cy="133.92" r="1.61"/>
<circle fill="#ffb800" cx="55.38" cy="148.87" r="3.83"/>
<circle fill="#ffb800" cx="41.24" cy="148.78" r="2.98"/>
<circle fill="#ffb800" cx="26.35" cy="148.57" r="1.63"/>
<circle fill="#ffb800" cx="65.59" cy="164.12" r="3.82"/>
<circle fill="#ffb800" cx="85.33" cy="164.12" r="3.81"/>
<circle fill="#ffb800" cx="46.15" cy="164.12" r="2.97"/>
<circle fill="#ffb800" cx="31.87" cy="164.14" r="1.64"/>
<circle fill="#ffb800" cx="114.07" cy="178.12" r="4.54"/>
<circle fill="#ffb800" cx="94.93" cy="178.10" r="3.81"/>
<circle fill="#ffb800" cx="56.11" cy="178.13" r="2.96"/>
<circle fill="#ffb800" cx="75.71" cy="178.12" r="2.99"/>
<circle fill="#ffb800" cx="40.87" cy="178.13" r="1.64"/>
<circle fill="#ffb800" cx="104.67" cy="193.36" r="4.54"/>
<circle fill="#ffb800" cx="85.13" cy="193.38" r="3.83"/>
<circle fill="#ffb800" cx="65.73" cy="193.38" r="2.98"/>
</svg>
