<?xml version="1.0" encoding="UTF-8" standalone="no"?>
<!DOCTYPE svg PUBLIC "-//W3C//DTD SVG 1.1//EN" "http://www.w3.org/Graphics/SVG/1.1/DTD/svg11.dtd">
<svg xmlns="http://www.w3.org/2000/svg" version="1.1" viewBox="0.00 0.00 220.00 241.00">
<g stroke-width="2.00" fill="none" stroke-linecap="butt">
<path stroke="#d9b1e5" vector-effect="non-scaling-stroke" d="
  M 61.04 68.39
  Q 45.21 77.48 31.11 89.61
  Q 17.24 101.55 5.80 114.02"
/>
<path stroke="#f3b5d3" vector-effect="non-scaling-stroke" d="
  M 32.05 122.00
  Q 19.93 134.05 10.38 147.98"
/>
<path stroke="#c38094" vector-effect="non-scaling-stroke" d="
  M 189.57 162.76
  C 188.57 172.05 180.17 173.74 172.55 172.95
  A 1.51 1.50 17.2 0 0 171.06 173.73
  Q 167.80 179.77 161.22 180.09
  Q 155.89 180.35 154.03 179.68
  Q 150.74 178.51 145.91 176.55
  A 5.68 5.47 59.3 0 0 144.57 176.18
  C 141.00 175.67 137.85 175.06 134.23 175.06
  C 126.11 175.06 119.81 175.04 111.84 172.45
  Q 110.92 172.15 105.90 172.07
  A 1.12 1.11 18.1 0 0 104.97 172.54
  L 102.77 175.62
  A 3.40 3.32 -1.8 0 1 102.05 176.37
  C 97.38 179.93 91.37 180.17 85.74 178.73
  C 82.76 177.97 80.19 177.92 77.63 178.21
  A 0.36 0.36 0.0 0 0 77.41 178.83
  Q 92.21 193.45 88.98 214.23
  C 88.64 216.41 87.77 218.67 87.16 220.93"
/>
<path stroke="#c38094" vector-effect="non-scaling-stroke" d="
  M 65.05 213.04
  Q 68.20 210.09 68.19 205.54
  C 68.15 191.61 47.44 187.45 38.46 179.12
  Q 29.67 170.96 27.26 159.47
  Q 23.32 140.60 32.05 122.00"
/>
<path stroke="#b880a4" vector-effect="non-scaling-stroke" d="
  M 32.05 122.00
  Q 40.47 104.57 57.93 96.48"
/>
<path stroke="#c48269" vector-effect="non-scaling-stroke" d="
  M 121.36 140.75
  C 106.41 134.10 102.43 121.05 107.29 105.33
  A 1.46 1.45 -68.6 0 0 106.54 103.60
  C 96.13 98.50 85.70 96.93 74.25 97.65
  Q 50.69 99.13 38.12 120.00
  Q 32.04 130.09 30.78 140.25
  Q 30.55 142.06 30.78 151.23
  Q 30.94 157.42 32.57 162.00
  Q 36.04 171.76 45.18 178.32
  C 53.41 184.23 67.89 188.68 71.92 200.78
  Q 73.56 205.72 72.31 210.29
  C 70.04 218.59 61.92 220.91 54.14 223.06
  A 2.87 2.87 0.0 0 0 52.05 226.03
  C 52.68 234.67 60.25 235.69 67.12 233.40
  C 76.18 230.37 82.61 223.47 84.38 214.06
  Q 85.43 208.45 85.36 206.97
  Q 84.53 190.41 72.21 180.41
  C 61.96 172.09 48.03 170.52 45.03 155.39
  A 0.34 0.34 0.0 0 1 45.67 155.18
  C 51.60 167.52 69.32 172.10 81.43 173.83
  Q 89.86 175.03 91.99 175.58
  Q 92.59 175.73 94.56 175.20
  A 0.56 0.55 72.2 0 0 94.93 174.47
  L 93.49 170.42
  A 0.49 0.49 0.0 0 1 94.20 169.83
  Q 96.54 171.17 97.53 173.44
  A 1.16 1.15 55.4 0 0 99.42 173.79
  Q 100.45 172.73 101.00 171.41
  C 102.22 168.54 99.01 164.23 96.89 163.10
  Q 88.47 158.65 79.27 161.28
  A 0.53 0.52 17.3 0 1 78.79 160.37
  L 81.97 157.77
  A 2.81 2.79 82.8 0 0 82.74 156.77
  C 87.32 147.06 83.85 134.33 75.13 128.37
  Q 72.84 126.81 71.05 125.74
  A 0.38 0.38 0.0 0 1 71.34 125.04
  Q 87.08 129.01 88.28 145.28
  Q 88.72 151.21 87.02 156.47
  A 0.80 0.80 0.0 0 0 87.74 157.51
  C 94.39 157.83 100.43 159.59 103.92 165.80
  Q 104.62 167.04 107.92 167.81
  A 0.34 0.33 -8.3 0 0 108.29 167.32
  L 107.51 165.91
  A 2.69 2.57 31.7 0 1 107.18 164.64
  L 107.18 157.71
  A 1.66 1.66 0.0 0 1 108.01 156.27
  L 108.36 156.07
  A 0.61 0.61 0.0 0 1 109.22 156.68
  Q 108.92 160.21 111.17 164.53
  C 113.39 168.79 118.74 170.33 123.13 170.29
  Q 131.47 170.22 142.20 170.61
  A 7.21 7.18 57.4 0 1 144.72 171.17
  Q 150.99 173.81 156.51 175.71
  Q 158.69 176.46 161.21 175.88
  A 0.96 0.95 -16.2 0 0 161.90 174.63
  L 160.00 169.30
  A 0.58 0.58 0.0 0 1 160.87 168.63
  Q 163.61 170.52 164.27 174.32
  A 0.41 0.41 0.0 0 0 164.98 174.52
  C 169.69 169.10 166.76 162.07 160.64 159.64
  C 149.21 155.11 138.32 156.84 130.47 148.41
  A 0.43 0.43 0.0 0 1 130.94 147.71
  C 138.67 150.61 146.10 152.88 154.26 152.91
  Q 161.95 152.94 166.52 152.56
  C 179.18 151.49 190.67 143.82 194.99 131.49
  Q 198.62 121.13 195.46 111.13
  C 194.70 108.70 194.51 106.51 195.56 104.55
  C 199.74 96.79 202.19 88.89 200.76 79.90
  A 0.69 0.68 -5.2 0 0 200.06 79.32
  Q 196.75 79.44 193.27 80.79
  Q 185.47 83.82 178.11 87.78
  A 2.01 2.00 45.1 0 1 176.19 87.77
  Q 164.44 81.33 150.77 81.92
  Q 148.80 82.00 145.18 82.14
  A 0.97 0.95 -19.6 0 1 144.38 81.77
  C 139.26 75.22 133.09 69.31 125.75 65.37
  A 1.03 1.03 0.0 0 0 124.36 65.77
  Q 121.31 71.20 120.48 76.99
  Q 119.27 85.52 118.97 93.17
  A 4.21 4.19 65.9 0 1 118.01 95.70
  C 106.57 109.63 106.02 128.97 121.61 140.31
  A 0.26 0.25 74.9 0 1 121.36 140.75"
/>
<path stroke="#c48269" vector-effect="non-scaling-stroke" d="
  M 166.13 158.33
  Q 170.75 162.17 171.57 166.76
  A 1.88 1.87 84.8 0 0 173.41 168.30
  L 179.97 168.30
  A 1.18 1.17 80.1 0 0 181.07 166.73
  L 179.65 162.73
  A 0.44 0.44 0.0 0 1 180.07 162.14
  L 180.57 162.14
  A 1.64 1.63 80.1 0 1 182.11 163.23
  L 183.12 166.06
  A 0.79 0.79 0.0 0 0 184.62 166.05
  Q 186.43 160.73 182.72 156.80
  C 181.02 155.00 179.50 154.26 176.96 155.23
  Q 172.73 156.84 166.46 157.29
  A 0.59 0.59 0.0 0 0 166.13 158.33"
/>
<path stroke="#fd9f69" vector-effect="non-scaling-stroke" d="
  M 124.43 88.35
  A 1.69 1.69 0.0 0 0 126.59 89.41
  L 137.43 85.54
  A 1.37 1.37 0.0 0 0 137.93 83.27
  Q 133.14 78.57 129.73 72.90
  A 1.77 1.77 0.0 0 0 126.63 73.01
  C 124.48 77.29 122.89 83.70 124.43 88.35"
/>
<path stroke="#fd9f69" vector-effect="non-scaling-stroke" d="
  M 192.45 101.49
  A 0.83 0.83 0.0 0 0 193.90 101.43
  Q 197.78 93.57 197.31 84.99
  A 0.79 0.79 0.0 0 0 196.21 84.32
  Q 189.98 87.08 186.68 88.91
  Q 184.75 89.98 184.38 91.30
  A 0.96 0.95 28.9 0 0 184.67 92.27
  Q 189.35 96.39 192.45 101.49"
/>
<path stroke="#c48269" vector-effect="non-scaling-stroke" d="
  M 150.66 116.37
  Q 150.31 116.74 149.41 118.16
  C 148.16 120.14 145.52 121.29 142.99 120.49
  Q 138.54 119.07 137.58 114.31
  A 1.39 1.36 59.7 0 0 135.19 113.65
  Q 134.49 114.49 134.54 116.02
  C 134.76 123.41 141.46 125.35 147.90 123.67
  Q 153.12 122.30 152.15 116.83
  A 0.88 0.88 0.0 0 0 150.66 116.37"
/>
<path stroke="#c48269" vector-effect="non-scaling-stroke" d="
  M 189.23 123.70
  C 188.11 124.39 186.60 126.12 184.81 126.94
  Q 178.24 129.94 175.67 122.85
  A 0.88 0.87 45.6 0 0 174.03 122.83
  C 170.66 131.57 187.55 135.35 190.60 124.74
  A 0.92 0.92 0.0 0 0 189.23 123.70"
/>
<path stroke="#c48269" vector-effect="non-scaling-stroke" d="
  M 160.32 136.21
  Q 159.99 138.31 159.32 139.51
  A 1.33 1.29 -85.3 0 1 158.61 140.13
  Q 152.31 142.48 148.35 138.41
  A 1.19 1.19 0.0 0 0 146.46 138.65
  L 146.39 138.79
  A 2.05 2.04 -51.8 0 0 146.67 141.18
  C 151.04 145.92 155.24 145.08 160.78 143.18
  A 1.16 1.15 -36.6 0 1 161.82 143.33
  Q 166.41 146.60 172.36 144.50
  A 2.12 2.11 -9.8 0 0 173.77 142.51
  L 173.77 141.63
  A 0.90 0.90 0.0 0 0 172.31 140.92
  C 170.81 142.09 168.49 143.63 166.63 142.58
  Q 163.17 140.62 164.43 137.73
  A 1.26 1.26 0.0 0 1 165.13 137.06
  C 167.12 136.28 171.47 133.93 169.04 131.14
  Q 167.18 129.01 164.80 127.98
  C 157.46 124.81 155.19 134.95 159.77 135.48
  A 0.63 0.63 0.0 0 1 160.32 136.21"
/>
</g>
<path fill="#cbace7" d="
  M 61.04 68.39
  Q 45.21 77.48 31.11 89.61
  Q 17.24 101.55 5.80 114.02
  Q 6.16 104.39 7.67 96.46
  Q 15.57 54.91 48.48 28.98
  C 66.42 14.85 89.47 5.05 112.24 3.26
  C 115.50 3.00 116.25 6.69 113.86 7.99
  Q 110.44 9.84 106.87 11.84
  Q 77.72 28.10 64.50 58.49
  Q 62.22 63.74 61.04 68.39
  Z"
/>
<path fill="#884b65" d="
  M 189.57 162.76
  C 188.57 172.05 180.17 173.74 172.55 172.95
  A 1.51 1.50 17.2 0 0 171.06 173.73
  Q 167.80 179.77 161.22 180.09
  Q 155.89 180.35 154.03 179.68
  Q 150.74 178.51 145.91 176.55
  A 5.68 5.47 59.3 0 0 144.57 176.18
  C 141.00 175.67 137.85 175.06 134.23 175.06
  C 126.11 175.06 119.81 175.04 111.84 172.45
  Q 110.92 172.15 105.90 172.07
  A 1.12 1.11 18.1 0 0 104.97 172.54
  L 102.77 175.62
  A 3.40 3.32 -1.8 0 1 102.05 176.37
  C 97.38 179.93 91.37 180.17 85.74 178.73
  C 82.76 177.97 80.19 177.92 77.63 178.21
  A 0.36 0.36 0.0 0 0 77.41 178.83
  Q 92.21 193.45 88.98 214.23
  C 88.64 216.41 87.77 218.67 87.16 220.93
  C 82.47 230.54 74.52 236.95 64.03 238.49
  C 56.45 239.61 47.86 235.64 47.80 226.76
  C 47.75 219.73 53.40 218.37 58.84 216.84
  Q 62.40 215.84 65.05 213.04
  Q 68.20 210.09 68.19 205.54
  C 68.15 191.61 47.44 187.45 38.46 179.12
  Q 29.67 170.96 27.26 159.47
  Q 23.32 140.60 32.05 122.00
  Q 40.47 104.57 57.93 96.48
  Q 71.39 91.32 83.74 92.48
  Q 97.32 93.75 109.26 99.39
  A 0.43 0.42 -58.6 0 0 109.78 99.26
  L 114.32 93.25
  A 1.68 1.63 -26.4 0 0 114.64 92.34
  C 114.95 82.44 115.86 71.56 120.49 63.78
  C 124.36 57.27 131.56 63.45 135.70 67.06
  Q 140.86 71.56 145.56 77.60
  A 1.88 1.87 -27.8 0 0 147.60 78.23
  Q 150.87 77.21 154.49 77.46
  Q 165.96 78.25 176.10 82.58
  A 3.02 3.00 40.8 0 0 178.87 82.38
  Q 187.17 77.29 196.88 75.14
  C 200.76 74.28 204.26 74.62 205.15 79.09
  Q 205.90 82.86 205.38 85.63
  Q 203.36 96.20 201.99 99.99
  Q 200.62 103.79 199.27 107.74
  A 1.71 1.70 -42.9 0 0 199.23 108.73
  C 201.23 116.27 201.70 124.09 199.58 131.61
  C 197.08 140.53 190.98 146.72 183.55 151.64
  A 0.57 0.56 -44.7 0 0 183.54 152.58
  Q 188.82 156.16 189.57 162.76
  Z
  M 121.36 140.75
  C 106.41 134.10 102.43 121.05 107.29 105.33
  A 1.46 1.45 -68.6 0 0 106.54 103.60
  C 96.13 98.50 85.70 96.93 74.25 97.65
  Q 50.69 99.13 38.12 120.00
  Q 32.04 130.09 30.78 140.25
  Q 30.55 142.06 30.78 151.23
  Q 30.94 157.42 32.57 162.00
  Q 36.04 171.76 45.18 178.32
  C 53.41 184.23 67.89 188.68 71.92 200.78
  Q 73.56 205.72 72.31 210.29
  C 70.04 218.59 61.92 220.91 54.14 223.06
  A 2.87 2.87 0.0 0 0 52.05 226.03
  C 52.68 234.67 60.25 235.69 67.12 233.40
  C 76.18 230.37 82.61 223.47 84.38 214.06
  Q 85.43 208.45 85.36 206.97
  Q 84.53 190.41 72.21 180.41
  C 61.96 172.09 48.03 170.52 45.03 155.39
  A 0.34 0.34 0.0 0 1 45.67 155.18
  C 51.60 167.52 69.32 172.10 81.43 173.83
  Q 89.86 175.03 91.99 175.58
  Q 92.59 175.73 94.56 175.20
  A 0.56 0.55 72.2 0 0 94.93 174.47
  L 93.49 170.42
  A 0.49 0.49 0.0 0 1 94.20 169.83
  Q 96.54 171.17 97.53 173.44
  A 1.16 1.15 55.4 0 0 99.42 173.79
  Q 100.45 172.73 101.00 171.41
  C 102.22 168.54 99.01 164.23 96.89 163.10
  Q 88.47 158.65 79.27 161.28
  A 0.53 0.52 17.3 0 1 78.79 160.37
  L 81.97 157.77
  A 2.81 2.79 82.8 0 0 82.74 156.77
  C 87.32 147.06 83.85 134.33 75.13 128.37
  Q 72.84 126.81 71.05 125.74
  A 0.38 0.38 0.0 0 1 71.34 125.04
  Q 87.08 129.01 88.28 145.28
  Q 88.72 151.21 87.02 156.47
  A 0.80 0.80 0.0 0 0 87.74 157.51
  C 94.39 157.83 100.43 159.59 103.92 165.80
  Q 104.62 167.04 107.92 167.81
  A 0.34 0.33 -8.3 0 0 108.29 167.32
  L 107.51 165.91
  A 2.69 2.57 31.7 0 1 107.18 164.64
  L 107.18 157.71
  A 1.66 1.66 0.0 0 1 108.01 156.27
  L 108.36 156.07
  A 0.61 0.61 0.0 0 1 109.22 156.68
  Q 108.92 160.21 111.17 164.53
  C 113.39 168.79 118.74 170.33 123.13 170.29
  Q 131.47 170.22 142.20 170.61
  A 7.21 7.18 57.4 0 1 144.72 171.17
  Q 150.99 173.81 156.51 175.71
  Q 158.69 176.46 161.21 175.88
  A 0.96 0.95 -16.2 0 0 161.90 174.63
  L 160.00 169.30
  A 0.58 0.58 0.0 0 1 160.87 168.63
  Q 163.61 170.52 164.27 174.32
  A 0.41 0.41 0.0 0 0 164.98 174.52
  C 169.69 169.10 166.76 162.07 160.64 159.64
  C 149.21 155.11 138.32 156.84 130.47 148.41
  A 0.43 0.43 0.0 0 1 130.94 147.71
  C 138.67 150.61 146.10 152.88 154.26 152.91
  Q 161.95 152.94 166.52 152.56
  C 179.18 151.49 190.67 143.82 194.99 131.49
  Q 198.62 121.13 195.46 111.13
  C 194.70 108.70 194.51 106.51 195.56 104.55
  C 199.74 96.79 202.19 88.89 200.76 79.90
  A 0.69 0.68 -5.2 0 0 200.06 79.32
  Q 196.75 79.44 193.27 80.79
  Q 185.47 83.82 178.11 87.78
  A 2.01 2.00 45.1 0 1 176.19 87.77
  Q 164.44 81.33 150.77 81.92
  Q 148.80 82.00 145.18 82.14
  A 0.97 0.95 -19.6 0 1 144.38 81.77
  C 139.26 75.22 133.09 69.31 125.75 65.37
  A 1.03 1.03 0.0 0 0 124.36 65.77
  Q 121.31 71.20 120.48 76.99
  Q 119.27 85.52 118.97 93.17
  A 4.21 4.19 65.9 0 1 118.01 95.70
  C 106.57 109.63 106.02 128.97 121.61 140.31
  A 0.26 0.25 74.9 0 1 121.36 140.75
  Z
  M 166.13 158.33
  Q 170.75 162.17 171.57 166.76
  A 1.88 1.87 84.8 0 0 173.41 168.30
  L 179.97 168.30
  A 1.18 1.17 80.1 0 0 181.07 166.73
  L 179.65 162.73
  A 0.44 0.44 0.0 0 1 180.07 162.14
  L 180.57 162.14
  A 1.64 1.63 80.1 0 1 182.11 163.23
  L 183.12 166.06
  A 0.79 0.79 0.0 0 0 184.62 166.05
  Q 186.43 160.73 182.72 156.80
  C 181.02 155.00 179.50 154.26 176.96 155.23
  Q 172.73 156.84 166.46 157.29
  A 0.59 0.59 0.0 0 0 166.13 158.33
  Z"
/>
<path fill="#ffb96c" d="
  M 121.36 140.75
  A 0.26 0.25 74.9 0 0 121.61 140.31
  C 106.02 128.97 106.57 109.63 118.01 95.70
  A 4.21 4.19 65.9 0 0 118.97 93.17
  Q 119.27 85.52 120.48 76.99
  Q 121.31 71.20 124.36 65.77
  A 1.03 1.03 0.0 0 1 125.75 65.37
  C 133.09 69.31 139.26 75.22 144.38 81.77
  A 0.97 0.95 -19.6 0 0 145.18 82.14
  Q 148.80 82.00 150.77 81.92
  Q 164.44 81.33 176.19 87.77
  A 2.01 2.00 45.1 0 0 178.11 87.78
  Q 185.47 83.82 193.27 80.79
  Q 196.75 79.44 200.06 79.32
  A 0.69 0.68 -5.2 0 1 200.76 79.90
  C 202.19 88.89 199.74 96.79 195.56 104.55
  C 194.51 106.51 194.70 108.70 195.46 111.13
  Q 198.62 121.13 194.99 131.49
  C 190.67 143.82 179.18 151.49 166.52 152.56
  Q 161.95 152.94 154.26 152.91
  C 146.10 152.88 138.67 150.61 130.94 147.71
  A 0.43 0.43 0.0 0 0 130.47 148.41
  C 138.32 156.84 149.21 155.11 160.64 159.64
  C 166.76 162.07 169.69 169.10 164.98 174.52
  A 0.41 0.41 0.0 0 1 164.27 174.32
  Q 163.61 170.52 160.87 168.63
  A 0.58 0.58 0.0 0 0 160.00 169.30
  L 161.90 174.63
  A 0.96 0.95 -16.2 0 1 161.21 175.88
  Q 158.69 176.46 156.51 175.71
  Q 150.99 173.81 144.72 171.17
  A 7.21 7.18 57.4 0 0 142.20 170.61
  Q 131.47 170.22 123.13 170.29
  C 118.74 170.33 113.39 168.79 111.17 164.53
  Q 108.92 160.21 109.22 156.68
  A 0.61 0.61 0.0 0 0 108.36 156.07
  L 108.01 156.27
  A 1.66 1.66 0.0 0 0 107.18 157.71
  L 107.18 164.64
  A 2.69 2.57 31.7 0 0 107.51 165.91
  L 108.29 167.32
  A 0.34 0.33 -8.3 0 1 107.92 167.81
  Q 104.62 167.04 103.92 165.80
  C 100.43 159.59 94.39 157.83 87.74 157.51
  A 0.80 0.80 0.0 0 1 87.02 156.47
  Q 88.72 151.21 88.28 145.28
  Q 87.08 129.01 71.34 125.04
  A 0.38 0.38 0.0 0 0 71.05 125.74
  Q 72.84 126.81 75.13 128.37
  C 83.85 134.33 87.32 147.06 82.74 156.77
  A 2.81 2.79 82.8 0 1 81.97 157.77
  L 78.79 160.37
  A 0.53 0.52 17.3 0 0 79.27 161.28
  Q 88.47 158.65 96.89 163.10
  C 99.01 164.23 102.22 168.54 101.00 171.41
  Q 100.45 172.73 99.42 173.79
  A 1.16 1.15 55.4 0 1 97.53 173.44
  Q 96.54 171.17 94.20 169.83
  A 0.49 0.49 0.0 0 0 93.49 170.42
  L 94.93 174.47
  A 0.56 0.55 72.2 0 1 94.56 175.20
  Q 92.59 175.73 91.99 175.58
  Q 89.86 175.03 81.43 173.83
  C 69.32 172.10 51.60 167.52 45.67 155.18
  A 0.34 0.34 0.0 0 0 45.03 155.39
  C 48.03 170.52 61.96 172.09 72.21 180.41
  Q 84.53 190.41 85.36 206.97
  Q 85.43 208.45 84.38 214.06
  C 82.61 223.47 76.18 230.37 67.12 233.40
  C 60.25 235.69 52.68 234.67 52.05 226.03
  A 2.87 2.87 0.0 0 1 54.14 223.06
  C 61.92 220.91 70.04 218.59 72.31 210.29
  Q 73.56 205.72 71.92 200.78
  C 67.89 188.68 53.41 184.23 45.18 178.32
  Q 36.04 171.76 32.57 162.00
  Q 30.94 157.42 30.78 151.23
  Q 30.55 142.06 30.78 140.25
  Q 32.04 130.09 38.12 120.00
  Q 50.69 99.13 74.25 97.65
  C 85.70 96.93 96.13 98.50 106.54 103.60
  A 1.46 1.45 -68.6 0 1 107.29 105.33
  C 102.43 121.05 106.41 134.10 121.36 140.75
  Z
  M 124.43 88.35
  A 1.69 1.69 0.0 0 0 126.59 89.41
  L 137.43 85.54
  A 1.37 1.37 0.0 0 0 137.93 83.27
  Q 133.14 78.57 129.73 72.90
  A 1.77 1.77 0.0 0 0 126.63 73.01
  C 124.48 77.29 122.89 83.70 124.43 88.35
  Z
  M 192.45 101.49
  A 0.83 0.83 0.0 0 0 193.90 101.43
  Q 197.78 93.57 197.31 84.99
  A 0.79 0.79 0.0 0 0 196.21 84.32
  Q 189.98 87.08 186.68 88.91
  Q 184.75 89.98 184.38 91.30
  A 0.96 0.95 28.9 0 0 184.67 92.27
  Q 189.35 96.39 192.45 101.49
  Z
  M 150.66 116.37
  Q 150.31 116.74 149.41 118.16
  C 148.16 120.14 145.52 121.29 142.99 120.49
  Q 138.54 119.07 137.58 114.31
  A 1.39 1.36 59.7 0 0 135.19 113.65
  Q 134.49 114.49 134.54 116.02
  C 134.76 123.41 141.46 125.35 147.90 123.67
  Q 153.12 122.30 152.15 116.83
  A 0.88 0.88 0.0 0 0 150.66 116.37
  Z
  M 189.23 123.70
  C 188.11 124.39 186.60 126.12 184.81 126.94
  Q 178.24 129.94 175.67 122.85
  A 0.88 0.87 45.6 0 0 174.03 122.83
  C 170.66 131.57 187.55 135.35 190.60 124.74
  A 0.92 0.92 0.0 0 0 189.23 123.70
  Z
  M 160.32 136.21
  Q 159.99 138.31 159.32 139.51
  A 1.33 1.29 -85.3 0 1 158.61 140.13
  Q 152.31 142.48 148.35 138.41
  A 1.19 1.19 0.0 0 0 146.46 138.65
  L 146.39 138.79
  A 2.05 2.04 -51.8 0 0 146.67 141.18
  C 151.04 145.92 155.24 145.08 160.78 143.18
  A 1.16 1.15 -36.6 0 1 161.82 143.33
  Q 166.41 146.60 172.36 144.50
  A 2.12 2.11 -9.8 0 0 173.77 142.51
  L 173.77 141.63
  A 0.90 0.90 0.0 0 0 172.31 140.92
  C 170.81 142.09 168.49 143.63 166.63 142.58
  Q 163.17 140.62 164.43 137.73
  A 1.26 1.26 0.0 0 1 165.13 137.06
  C 167.12 136.28 171.47 133.93 169.04 131.14
  Q 167.18 129.01 164.80 127.98
  C 157.46 124.81 155.19 134.95 159.77 135.48
  A 0.63 0.63 0.0 0 1 160.32 136.21
  Z"
/>
<path fill="#e7b5e2" d="
  M 61.04 68.39
  Q 58.03 77.13 57.97 83.50
  Q 57.92 89.74 57.93 96.48
  Q 40.47 104.57 32.05 122.00
  Q 19.93 134.05 10.38 147.98
  Q 5.73 131.11 5.80 114.02
  Q 17.24 101.55 31.11 89.61
  Q 45.21 77.48 61.04 68.39
  Z"
/>
<path fill="#fb8466" d="
  M 124.43 88.35
  C 122.89 83.70 124.48 77.29 126.63 73.01
  A 1.77 1.77 0.0 0 1 129.73 72.90
  Q 133.14 78.57 137.93 83.27
  A 1.37 1.37 0.0 0 1 137.43 85.54
  L 126.59 89.41
  A 1.69 1.69 0.0 0 1 124.43 88.35
  Z"
/>
<path fill="#fb8466" d="
  M 192.45 101.49
  Q 189.35 96.39 184.67 92.27
  A 0.96 0.95 28.9 0 1 184.38 91.30
  Q 184.75 89.98 186.68 88.91
  Q 189.98 87.08 196.21 84.32
  A 0.79 0.79 0.0 0 1 197.31 84.99
  Q 197.78 93.57 193.90 101.43
  A 0.83 0.83 0.0 0 1 192.45 101.49
  Z"
/>
<path fill="#884b65" d="
  M 150.66 116.37
  A 0.88 0.88 0.0 0 1 152.15 116.83
  Q 153.12 122.30 147.90 123.67
  C 141.46 125.35 134.76 123.41 134.54 116.02
  Q 134.49 114.49 135.19 113.65
  A 1.39 1.36 59.7 0 1 137.58 114.31
  Q 138.54 119.07 142.99 120.49
  C 145.52 121.29 148.16 120.14 149.41 118.16
  Q 150.31 116.74 150.66 116.37
  Z"
/>
<path fill="#feb4c3" d="
  M 32.05 122.00
  Q 23.32 140.60 27.26 159.47
  Q 29.67 170.96 38.46 179.12
  C 47.44 187.45 68.15 191.61 68.19 205.54
  Q 68.20 210.09 65.05 213.04
  Q 28.71 194.30 13.67 157.08
  Q 12.90 155.17 10.38 147.98
  Q 19.93 134.05 32.05 122.00
  Z"
/>
<path fill="#884b65" d="
  M 189.23 123.70
  A 0.92 0.92 0.0 0 1 190.60 124.74
  C 187.55 135.35 170.66 131.57 174.03 122.83
  A 0.88 0.87 45.6 0 1 175.67 122.85
  Q 178.24 129.94 184.81 126.94
  C 186.60 126.12 188.11 124.39 189.23 123.70
  Z"
/>
<path fill="#884b65" d="
  M 159.77 135.48
  C 155.19 134.95 157.46 124.81 164.80 127.98
  Q 167.18 129.01 169.04 131.14
  C 171.47 133.93 167.12 136.28 165.13 137.06
  A 1.26 1.26 0.0 0 0 164.43 137.73
  Q 163.17 140.62 166.63 142.58
  C 168.49 143.63 170.81 142.09 172.31 140.92
  A 0.90 0.90 0.0 0 1 173.77 141.63
  L 173.77 142.51
  A 2.12 2.11 -9.8 0 1 172.36 144.50
  Q 166.41 146.60 161.82 143.33
  A 1.16 1.15 -36.6 0 0 160.78 143.18
  C 155.24 145.08 151.04 145.92 146.67 141.18
  A 2.05 2.04 -51.8 0 1 146.39 138.79
  L 146.46 138.65
  A 1.19 1.19 0.0 0 1 148.35 138.41
  Q 152.31 142.48 158.61 140.13
  A 1.33 1.29 -85.3 0 0 159.32 139.51
  Q 159.99 138.31 160.32 136.21
  A 0.63 0.63 0.0 0 0 159.77 135.48
  Z"
/>
<path fill="#feb4c3" d="
  M 87.16 220.93
  C 87.77 218.67 88.64 216.41 88.98 214.23
  Q 92.21 193.45 77.41 178.83
  A 0.36 0.36 0.0 0 1 77.63 178.21
  C 80.19 177.92 82.76 177.97 85.74 178.73
  C 91.37 180.17 97.38 179.93 102.05 176.37
  A 3.40 3.32 -1.8 0 0 102.77 175.62
  L 104.97 172.54
  A 1.12 1.11 18.1 0 1 105.90 172.07
  Q 110.92 172.15 111.84 172.45
  C 119.81 175.04 126.11 175.06 134.23 175.06
  C 137.85 175.06 141.00 175.67 144.57 176.18
  A 5.68 5.47 59.3 0 1 145.91 176.55
  Q 150.74 178.51 154.03 179.68
  Q 155.89 180.35 161.22 180.09
  Q 167.80 179.77 171.06 173.73
  A 1.51 1.50 17.2 0 1 172.55 172.95
  C 180.17 173.74 188.57 172.05 189.57 162.76
  C 196.37 158.90 204.67 154.52 209.55 148.56
  Q 211.34 146.37 213.18 144.99
  A 0.96 0.96 0.0 0 1 214.68 145.50
  C 215.65 149.01 212.62 155.51 211.00 159.01
  Q 191.50 201.18 148.98 217.64
  Q 133.34 223.70 114.21 224.42
  C 107.46 224.67 98.66 223.27 93.49 222.57
  Q 90.35 222.15 87.16 220.93
  Z"
/>
<path fill="#ffb96c" d="
  M 166.13 158.33
  A 0.59 0.59 0.0 0 1 166.46 157.29
  Q 172.73 156.84 176.96 155.23
  C 179.50 154.26 181.02 155.00 182.72 156.80
  Q 186.43 160.73 184.62 166.05
  A 0.79 0.79 0.0 0 1 183.12 166.06
  L 182.11 163.23
  A 1.64 1.63 80.1 0 0 180.57 162.14
  L 180.07 162.14
  A 0.44 0.44 0.0 0 0 179.65 162.73
  L 181.07 166.73
  A 1.18 1.17 80.1 0 1 179.97 168.30
  L 173.41 168.30
  A 1.88 1.87 84.8 0 1 171.57 166.76
  Q 170.75 162.17 166.13 158.33
  Z"
/>
</svg>
