<?xml version="1.0" encoding="UTF-8" standalone="no"?>
<!DOCTYPE svg PUBLIC "-//W3C//DTD SVG 1.1//EN" "http://www.w3.org/Graphics/SVG/1.1/DTD/svg11.dtd">
<svg xmlns="http://www.w3.org/2000/svg" version="1.1" viewBox="0.00 0.00 500.00 500.00">
<g stroke-width="2.00" fill="none" stroke-linecap="butt">
<path stroke="#d9b1e5" vector-effect="non-scaling-stroke" d="
  M 198.85 139.45
  C 177.92 151.51 160.53 167.33 143.96 184.75"
/>
<path stroke="#f3b5d3" vector-effect="non-scaling-stroke" d="
  M 170.53 192.05
  Q 158.75 204.67 148.45 218.82"
/>
<path stroke="#c38094" vector-effect="non-scaling-stroke" d="
  M 327.58 233.83
  Q 326.85 242.64 317.54 243.81
  Q 312.69 244.42 310.23 243.95
  A 0.72 0.72 0.0 0 0 309.46 244.32
  C 305.68 251.47 299.97 251.91 292.71 250.94
  A 6.72 6.49 -29.3 0 1 291.11 250.52
  L 283.71 247.53
  A 4.23 4.21 -31.1 0 0 282.57 247.25
  Q 281.18 247.12 278.10 246.60
  C 272.08 245.58 264.73 246.28 260.42 245.86
  Q 254.37 245.28 250.19 243.61
  A 3.47 3.29 -31.0 0 0 249.10 243.37
  L 243.92 243.11
  A 1.01 1.00 -73.1 0 0 243.01 243.60
  Q 240.93 247.08 239.18 248.16
  C 235.14 250.68 230.14 251.32 225.26 250.15
  C 221.69 249.29 219.00 248.74 215.68 249.21
  A 0.33 0.33 0.0 0 0 215.49 249.77
  Q 230.19 264.09 227.19 284.89
  Q 226.95 286.55 226.32 288.41
  Q 225.74 290.18 225.17 291.87"
/>
<path stroke="#c38094" vector-effect="non-scaling-stroke" d="
  M 202.74 283.82
  L 203.45 283.61
  A 1.37 1.35 6.0 0 0 204.20 283.01
  C 209.46 274.02 203.26 266.23 195.54 261.95
  Q 184.92 256.06 181.97 254.27
  Q 169.63 246.79 165.63 232.52
  C 164.91 229.97 164.98 228.06 164.49 225.57
  Q 164.02 223.22 163.97 220.32
  Q 163.69 205.43 170.53 192.05"
/>
<path stroke="#b880a4" vector-effect="non-scaling-stroke" d="
  M 170.53 192.05
  Q 178.82 175.12 195.91 167.41"
/>
<path stroke="#c48269" vector-effect="non-scaling-stroke" d="
  M 259.86 211.64
  A 0.27 0.26 -12.7 0 1 259.58 212.08
  Q 253.41 209.53 249.09 204.74
  C 242.40 197.31 241.78 185.78 245.20 176.62
  A 1.57 1.56 26.3 0 0 244.56 174.75
  C 241.98 173.12 238.82 172.16 233.34 170.49
  Q 228.56 169.04 223.53 168.82
  Q 216.86 168.54 212.38 168.69
  Q 206.65 168.88 201.51 170.54
  Q 183.48 176.38 174.59 193.83
  Q 170.08 202.68 168.93 210.15
  Q 168.53 212.74 169.04 227.01
  A 6.61 6.37 -55.7 0 0 169.34 228.76
  Q 172.02 237.24 174.01 240.05
  Q 179.09 247.21 187.76 252.24
  C 196.58 257.35 205.97 261.27 209.56 270.46
  Q 212.20 277.20 209.82 283.09
  C 207.02 290.02 199.33 292.29 192.08 294.14
  A 2.45 2.45 0.0 0 0 190.24 296.35
  C 189.68 304.35 197.07 306.76 203.76 304.76
  Q 215.92 301.13 220.59 290.72
  Q 221.73 288.17 222.15 285.86
  C 223.04 281.04 223.69 278.45 222.98 273.96
  Q 220.16 256.18 204.05 247.43
  C 194.18 242.07 185.01 238.10 182.87 225.94
  A 0.29 0.29 0.0 0 1 183.42 225.76
  C 187.29 233.43 195.33 238.30 203.39 241.08
  Q 207.50 242.49 218.80 244.73
  C 221.45 245.25 225.47 245.28 228.73 246.29
  Q 230.24 246.75 232.50 246.22
  A 0.63 0.63 0.0 0 0 232.94 245.35
  L 231.27 241.47
  A 0.64 0.64 0.0 0 1 232.18 240.67
  Q 234.90 242.29 235.56 244.37
  A 1.08 1.08 0.0 0 0 237.45 244.69
  L 238.39 243.44
  A 4.08 4.06 -37.0 0 0 238.95 239.54
  Q 237.48 235.65 235.23 234.38
  Q 226.86 229.66 217.17 232.37
  A 0.54 0.54 0.0 0 1 216.58 231.53
  Q 217.32 230.51 218.51 229.80
  C 220.49 228.63 220.79 227.91 221.50 225.72
  Q 223.89 218.36 221.43 210.79
  C 219.20 203.90 215.05 200.07 208.79 196.84
  A 0.36 0.36 0.0 0 1 208.90 196.16
  Q 209.80 196.02 211.13 196.41
  C 225.18 200.57 228.97 214.67 225.03 227.77
  A 0.42 0.41 11.8 0 0 225.38 228.30
  C 232.13 229.10 238.04 229.92 241.48 235.98
  C 242.69 238.11 243.72 238.17 246.04 238.69
  A 0.28 0.27 -11.0 0 0 246.33 238.27
  L 245.38 236.93
  A 1.41 1.40 -63.2 0 1 245.11 236.10
  L 245.11 228.67
  A 1.70 1.69 78.4 0 1 246.13 227.11
  L 246.61 226.90
  A 0.51 0.51 0.0 0 1 247.32 227.42
  Q 246.85 232.75 250.80 237.83
  A 2.69 2.61 84.6 0 0 251.56 238.48
  Q 256.52 241.20 259.30 241.19
  Q 271.95 241.15 280.27 241.47
  A 5.58 5.49 55.6 0 1 282.00 241.81
  Q 285.41 243.08 292.87 246.12
  Q 296.27 247.51 299.04 246.95
  A 1.17 1.16 72.6 0 0 299.88 245.34
  L 297.76 240.42
  A 0.76 0.76 0.0 0 1 298.90 239.49
  Q 301.82 241.55 302.31 245.21
  A 0.41 0.41 0.0 0 0 303.04 245.41
  C 308.23 239.07 303.83 232.40 297.19 230.07
  Q 291.59 228.10 285.28 227.15
  C 279.19 226.24 272.14 224.17 268.32 219.31
  A 0.47 0.47 0.0 0 1 268.85 218.58
  C 275.96 221.27 282.80 223.61 290.10 223.76
  Q 298.88 223.94 303.59 223.60
  C 316.41 222.66 328.52 215.31 332.87 202.65
  Q 336.76 191.34 333.08 181.25
  Q 331.85 177.88 334.35 173.71
  Q 335.68 171.48 337.82 165.18
  C 339.39 160.55 339.31 155.40 338.80 151.07
  A 0.73 0.73 0.0 0 0 338.01 150.42
  Q 333.69 150.74 329.51 152.52
  Q 322.32 155.59 315.91 158.92
  A 1.70 1.69 45.2 0 1 314.33 158.91
  Q 299.98 151.16 283.30 153.32
  A 0.97 0.96 67.6 0 1 282.41 152.94
  Q 277.09 145.98 269.61 140.14
  Q 266.93 138.05 263.98 136.57
  A 1.41 1.40 -64.2 0 0 262.07 137.24
  C 260.64 140.35 259.18 143.59 258.68 147.19
  Q 257.26 157.26 256.96 164.66
  A 3.54 3.50 66.9 0 1 256.10 166.83
  C 247.14 177.04 244.61 191.37 251.98 203.20
  C 254.11 206.62 256.21 208.40 259.86 211.64"
/>
<path stroke="#c48269" vector-effect="non-scaling-stroke" d="
  M 304.01 229.16
  Q 308.86 232.69 309.78 238.18
  A 1.48 1.48 0.0 0 0 311.32 239.41
  L 318.25 239.03
  A 1.00 0.99 76.6 0 0 319.10 237.64
  L 317.40 233.70
  A 0.55 0.54 -4.3 0 1 318.04 232.96
  L 318.66 233.13
  A 2.34 2.33 85.6 0 1 320.20 234.46
  L 321.27 236.92
  A 0.76 0.76 0.0 0 0 322.70 236.83
  Q 324.57 230.41 318.93 226.41
  A 3.44 3.41 -37.4 0 0 315.76 226.00
  L 311.91 227.42
  A 1.47 1.35 29.0 0 1 311.62 227.49
  Q 307.22 227.85 304.13 228.58
  A 0.33 0.33 0.0 0 0 304.01 229.16"
/>
<path stroke="#fd9f69" vector-effect="non-scaling-stroke" d="
  M 275.20 156.69
  C 276.34 156.40 276.72 155.12 275.84 154.30
  Q 271.38 150.15 267.61 143.86
  A 1.66 1.66 0.0 0 0 264.73 143.93
  C 262.82 147.50 260.82 155.15 262.48 159.31
  A 1.85 1.85 0.0 0 0 265.02 160.28
  Q 269.06 158.28 275.20 156.69"
/>
<path stroke="#fd9f69" vector-effect="non-scaling-stroke" d="
  M 331.79 172.42
  Q 335.68 165.13 335.26 156.08
  A 0.74 0.74 0.0 0 0 334.66 155.38
  Q 334.30 155.31 333.80 155.55
  Q 327.54 158.55 326.33 159.08
  Q 323.94 160.13 322.73 161.64
  A 1.33 1.33 0.0 0 0 322.92 163.49
  Q 327.84 167.56 330.41 172.42
  A 0.78 0.78 0.0 0 0 331.79 172.42"
/>
<path stroke="#c48269" vector-effect="non-scaling-stroke" d="
  M 290.05 187.78
  A 0.86 0.86 0.0 0 0 288.42 187.64
  C 287.18 190.49 284.20 192.67 281.12 191.67
  Q 276.31 190.11 275.49 185.29
  A 1.31 1.31 0.0 0 0 273.14 184.74
  Q 272.63 185.44 272.61 187.04
  C 272.50 194.61 280.86 196.76 286.86 194.29
  Q 291.16 192.51 290.05 187.78"
/>
<path stroke="#c48269" vector-effect="non-scaling-stroke" d="
  M 328.43 195.13
  A 0.69 0.69 0.0 0 0 327.28 194.74
  C 325.56 196.33 323.88 197.82 321.81 198.48
  Q 315.78 200.41 313.73 194.04
  A 0.93 0.93 0.0 0 0 311.96 194.02
  C 310.28 198.88 315.24 202.13 319.55 202.23
  Q 325.23 202.35 328.05 197.28
  Q 328.61 196.28 328.43 195.13"
/>
<path stroke="#c48269" vector-effect="non-scaling-stroke" d="
  M 311.63 213.80
  L 311.63 212.41
  A 0.71 0.70 -20.5 0 0 310.46 211.88
  Q 305.32 216.31 302.34 211.57
  Q 301.66 210.49 302.27 208.77
  A 1.11 1.09 88.3 0 1 302.86 208.13
  C 305.81 206.80 309.98 204.63 306.19 201.33
  Q 303.50 198.97 301.50 198.63
  C 296.79 197.82 294.97 200.89 295.77 205.07
  Q 295.97 206.08 296.96 206.20
  Q 297.56 206.27 298.08 206.42
  A 0.57 0.57 0.0 0 1 298.48 207.11
  L 297.72 209.95
  A 2.69 2.66 -17.2 0 1 297.15 211.02
  Q 296.71 211.59 293.77 211.94
  Q 288.59 212.56 286.23 209.37
  A 1.01 1.00 37.7 0 0 284.49 209.59
  L 284.38 209.85
  A 2.38 2.38 0.0 0 0 284.95 212.46
  C 289.42 216.68 293.74 216.32 298.73 214.03
  A 0.93 0.92 51.2 0 1 299.69 214.14
  Q 304.16 217.64 310.51 215.38
  A 1.69 1.67 -9.9 0 0 311.63 213.80"
/>
</g>
<path fill="#cbace7" d="
  M 198.85 139.45
  C 177.92 151.51 160.53 167.33 143.96 184.75
  Q 143.77 182.20 144.04 179.76
  Q 145.07 170.47 145.79 166.74
  C 151.84 135.62 169.02 110.65 195.62 93.43
  Q 214.30 81.34 236.41 76.23
  C 240.77 75.22 244.33 74.98 248.88 74.32
  Q 250.94 74.03 251.99 74.51
  C 253.98 75.42 253.45 78.18 251.77 79.06
  Q 245.23 82.52 241.24 84.97
  Q 209.77 104.31 198.85 139.45
  Z"
/>
<path fill="#884b65" d="
  M 327.58 233.83
  Q 326.85 242.64 317.54 243.81
  Q 312.69 244.42 310.23 243.95
  A 0.72 0.72 0.0 0 0 309.46 244.32
  C 305.68 251.47 299.97 251.91 292.71 250.94
  A 6.72 6.49 -29.3 0 1 291.11 250.52
  L 283.71 247.53
  A 4.23 4.21 -31.1 0 0 282.57 247.25
  Q 281.18 247.12 278.10 246.60
  C 272.08 245.58 264.73 246.28 260.42 245.86
  Q 254.37 245.28 250.19 243.61
  A 3.47 3.29 -31.0 0 0 249.10 243.37
  L 243.92 243.11
  A 1.01 1.00 -73.1 0 0 243.01 243.60
  Q 240.93 247.08 239.18 248.16
  C 235.14 250.68 230.14 251.32 225.26 250.15
  C 221.69 249.29 219.00 248.74 215.68 249.21
  A 0.33 0.33 0.0 0 0 215.49 249.77
  Q 230.19 264.09 227.19 284.89
  Q 226.95 286.55 226.32 288.41
  Q 225.74 290.18 225.17 291.87
  Q 221.83 299.60 214.62 304.61
  Q 207.56 309.52 199.87 309.61
  Q 193.97 309.69 190.35 306.95
  Q 186.03 303.70 185.80 298.40
  Q 185.53 292.39 190.33 290.03
  Q 191.50 289.46 197.33 287.72
  A 5.27 4.94 -65.3 0 0 198.24 287.35
  C 199.32 286.80 202.60 285.64 202.74 283.82
  L 203.45 283.61
  A 1.37 1.35 6.0 0 0 204.20 283.01
  C 209.46 274.02 203.26 266.23 195.54 261.95
  Q 184.92 256.06 181.97 254.27
  Q 169.63 246.79 165.63 232.52
  C 164.91 229.97 164.98 228.06 164.49 225.57
  Q 164.02 223.22 163.97 220.32
  Q 163.69 205.43 170.53 192.05
  Q 178.82 175.12 195.91 167.41
  Q 198.08 166.66 200.40 165.94
  Q 211.59 162.50 222.74 163.56
  Q 227.55 164.01 234.76 165.81
  Q 241.98 167.61 247.00 170.41
  A 0.62 0.61 -56.6 0 0 247.80 170.24
  L 252.36 164.19
  A 1.30 1.22 -27.1 0 0 252.62 163.46
  Q 252.99 153.71 253.68 149.67
  Q 254.92 142.51 257.36 136.60
  Q 258.14 134.72 260.35 132.62
  A 1.96 1.93 -72.0 0 1 261.31 132.12
  Q 264.09 131.57 265.57 132.36
  C 272.69 136.10 278.37 142.03 283.59 148.58
  A 1.96 1.95 62.9 0 0 285.65 149.25
  Q 290.03 148.04 294.27 148.53
  Q 305.94 149.88 314.16 153.60
  A 2.66 2.65 -48.2 0 0 316.63 153.46
  Q 325.59 148.08 334.95 146.09
  C 337.88 145.47 341.62 145.45 342.70 148.56
  C 343.45 150.68 343.92 153.65 343.42 156.50
  Q 341.72 166.08 339.92 171.21
  Q 339.85 171.43 337.30 178.55
  A 2.07 2.04 47.3 0 0 337.26 179.83
  Q 339.74 188.54 338.70 197.58
  Q 338.38 200.42 337.66 202.19
  C 336.90 204.06 336.63 206.13 335.55 208.17
  C 332.32 214.27 327.31 218.75 321.46 222.77
  A 0.45 0.45 0.0 0 0 321.45 223.51
  Q 327.07 227.50 327.58 233.83
  Z
  M 259.86 211.64
  A 0.27 0.26 -12.7 0 1 259.58 212.08
  Q 253.41 209.53 249.09 204.74
  C 242.40 197.31 241.78 185.78 245.20 176.62
  A 1.57 1.56 26.3 0 0 244.56 174.75
  C 241.98 173.12 238.82 172.16 233.34 170.49
  Q 228.56 169.04 223.53 168.82
  Q 216.86 168.54 212.38 168.69
  Q 206.65 168.88 201.51 170.54
  Q 183.48 176.38 174.59 193.83
  Q 170.08 202.68 168.93 210.15
  Q 168.53 212.74 169.04 227.01
  A 6.61 6.37 -55.7 0 0 169.34 228.76
  Q 172.02 237.24 174.01 240.05
  Q 179.09 247.21 187.76 252.24
  C 196.58 257.35 205.97 261.27 209.56 270.46
  Q 212.20 277.20 209.82 283.09
  C 207.02 290.02 199.33 292.29 192.08 294.14
  A 2.45 2.45 0.0 0 0 190.24 296.35
  C 189.68 304.35 197.07 306.76 203.76 304.76
  Q 215.92 301.13 220.59 290.72
  Q 221.73 288.17 222.15 285.86
  C 223.04 281.04 223.69 278.45 222.98 273.96
  Q 220.16 256.18 204.05 247.43
  C 194.18 242.07 185.01 238.10 182.87 225.94
  A 0.29 0.29 0.0 0 1 183.42 225.76
  C 187.29 233.43 195.33 238.30 203.39 241.08
  Q 207.50 242.49 218.80 244.73
  C 221.45 245.25 225.47 245.28 228.73 246.29
  Q 230.24 246.75 232.50 246.22
  A 0.63 0.63 0.0 0 0 232.94 245.35
  L 231.27 241.47
  A 0.64 0.64 0.0 0 1 232.18 240.67
  Q 234.90 242.29 235.56 244.37
  A 1.08 1.08 0.0 0 0 237.45 244.69
  L 238.39 243.44
  A 4.08 4.06 -37.0 0 0 238.95 239.54
  Q 237.48 235.65 235.23 234.38
  Q 226.86 229.66 217.17 232.37
  A 0.54 0.54 0.0 0 1 216.58 231.53
  Q 217.32 230.51 218.51 229.80
  C 220.49 228.63 220.79 227.91 221.50 225.72
  Q 223.89 218.36 221.43 210.79
  C 219.20 203.90 215.05 200.07 208.79 196.84
  A 0.36 0.36 0.0 0 1 208.90 196.16
  Q 209.80 196.02 211.13 196.41
  C 225.18 200.57 228.97 214.67 225.03 227.77
  A 0.42 0.41 11.8 0 0 225.38 228.30
  C 232.13 229.10 238.04 229.92 241.48 235.98
  C 242.69 238.11 243.72 238.17 246.04 238.69
  A 0.28 0.27 -11.0 0 0 246.33 238.27
  L 245.38 236.93
  A 1.41 1.40 -63.2 0 1 245.11 236.10
  L 245.11 228.67
  A 1.70 1.69 78.4 0 1 246.13 227.11
  L 246.61 226.90
  A 0.51 0.51 0.0 0 1 247.32 227.42
  Q 246.85 232.75 250.80 237.83
  A 2.69 2.61 84.6 0 0 251.56 238.48
  Q 256.52 241.20 259.30 241.19
  Q 271.95 241.15 280.27 241.47
  A 5.58 5.49 55.6 0 1 282.00 241.81
  Q 285.41 243.08 292.87 246.12
  Q 296.27 247.51 299.04 246.95
  A 1.17 1.16 72.6 0 0 299.88 245.34
  L 297.76 240.42
  A 0.76 0.76 0.0 0 1 298.90 239.49
  Q 301.82 241.55 302.31 245.21
  A 0.41 0.41 0.0 0 0 303.04 245.41
  C 308.23 239.07 303.83 232.40 297.19 230.07
  Q 291.59 228.10 285.28 227.15
  C 279.19 226.24 272.14 224.17 268.32 219.31
  A 0.47 0.47 0.0 0 1 268.85 218.58
  C 275.96 221.27 282.80 223.61 290.10 223.76
  Q 298.88 223.94 303.59 223.60
  C 316.41 222.66 328.52 215.31 332.87 202.65
  Q 336.76 191.34 333.08 181.25
  Q 331.85 177.88 334.35 173.71
  Q 335.68 171.48 337.82 165.18
  C 339.39 160.55 339.31 155.40 338.80 151.07
  A 0.73 0.73 0.0 0 0 338.01 150.42
  Q 333.69 150.74 329.51 152.52
  Q 322.32 155.59 315.91 158.92
  A 1.70 1.69 45.2 0 1 314.33 158.91
  Q 299.98 151.16 283.30 153.32
  A 0.97 0.96 67.6 0 1 282.41 152.94
  Q 277.09 145.98 269.61 140.14
  Q 266.93 138.05 263.98 136.57
  A 1.41 1.40 -64.2 0 0 262.07 137.24
  C 260.64 140.35 259.18 143.59 258.68 147.19
  Q 257.26 157.26 256.96 164.66
  A 3.54 3.50 66.9 0 1 256.10 166.83
  C 247.14 177.04 244.61 191.37 251.98 203.20
  C 254.11 206.62 256.21 208.40 259.86 211.64
  Z
  M 304.01 229.16
  Q 308.86 232.69 309.78 238.18
  A 1.48 1.48 0.0 0 0 311.32 239.41
  L 318.25 239.03
  A 1.00 0.99 76.6 0 0 319.10 237.64
  L 317.40 233.70
  A 0.55 0.54 -4.3 0 1 318.04 232.96
  L 318.66 233.13
  A 2.34 2.33 85.6 0 1 320.20 234.46
  L 321.27 236.92
  A 0.76 0.76 0.0 0 0 322.70 236.83
  Q 324.57 230.41 318.93 226.41
  A 3.44 3.41 -37.4 0 0 315.76 226.00
  L 311.91 227.42
  A 1.47 1.35 29.0 0 1 311.62 227.49
  Q 307.22 227.85 304.13 228.58
  A 0.33 0.33 0.0 0 0 304.01 229.16
  Z"
/>
<path fill="#ffb96c" d="
  M 259.86 211.64
  C 256.21 208.40 254.11 206.62 251.98 203.20
  C 244.61 191.37 247.14 177.04 256.10 166.83
  A 3.54 3.50 66.9 0 0 256.96 164.66
  Q 257.26 157.26 258.68 147.19
  C 259.18 143.59 260.64 140.35 262.07 137.24
  A 1.41 1.40 -64.2 0 1 263.98 136.57
  Q 266.93 138.05 269.61 140.14
  Q 277.09 145.98 282.41 152.94
  A 0.97 0.96 67.6 0 0 283.30 153.32
  Q 299.98 151.16 314.33 158.91
  A 1.70 1.69 45.2 0 0 315.91 158.92
  Q 322.32 155.59 329.51 152.52
  Q 333.69 150.74 338.01 150.42
  A 0.73 0.73 0.0 0 1 338.80 151.07
  C 339.31 155.40 339.39 160.55 337.82 165.18
  Q 335.68 171.48 334.35 173.71
  Q 331.85 177.88 333.08 181.25
  Q 336.76 191.34 332.87 202.65
  C 328.52 215.31 316.41 222.66 303.59 223.60
  Q 298.88 223.94 290.10 223.76
  C 282.80 223.61 275.96 221.27 268.85 218.58
  A 0.47 0.47 0.0 0 0 268.32 219.31
  C 272.14 224.17 279.19 226.24 285.28 227.15
  Q 291.59 228.10 297.19 230.07
  C 303.83 232.40 308.23 239.07 303.04 245.41
  A 0.41 0.41 0.0 0 1 302.31 245.21
  Q 301.82 241.55 298.90 239.49
  A 0.76 0.76 0.0 0 0 297.76 240.42
  L 299.88 245.34
  A 1.17 1.16 72.6 0 1 299.04 246.95
  Q 296.27 247.51 292.87 246.12
  Q 285.41 243.08 282.00 241.81
  A 5.58 5.49 55.6 0 0 280.27 241.47
  Q 271.95 241.15 259.30 241.19
  Q 256.52 241.20 251.56 238.48
  A 2.69 2.61 84.6 0 1 250.80 237.83
  Q 246.85 232.75 247.32 227.42
  A 0.51 0.51 0.0 0 0 246.61 226.90
  L 246.13 227.11
  A 1.70 1.69 78.4 0 0 245.11 228.67
  L 245.11 236.10
  A 1.41 1.40 -63.2 0 0 245.38 236.93
  L 246.33 238.27
  A 0.28 0.27 -11.0 0 1 246.04 238.69
  C 243.72 238.17 242.69 238.11 241.48 235.98
  C 238.04 229.92 232.13 229.10 225.38 228.30
  A 0.42 0.41 11.8 0 1 225.03 227.77
  C 228.97 214.67 225.18 200.57 211.13 196.41
  Q 209.80 196.02 208.90 196.16
  A 0.36 0.36 0.0 0 0 208.79 196.84
  C 215.05 200.07 219.20 203.90 221.43 210.79
  Q 223.89 218.36 221.50 225.72
  C 220.79 227.91 220.49 228.63 218.51 229.80
  Q 217.32 230.51 216.58 231.53
  A 0.54 0.54 0.0 0 0 217.17 232.37
  Q 226.86 229.66 235.23 234.38
  Q 237.48 235.65 238.95 239.54
  A 4.08 4.06 -37.0 0 1 238.39 243.44
  L 237.45 244.69
  A 1.08 1.08 0.0 0 1 235.56 244.37
  Q 234.90 242.29 232.18 240.67
  A 0.64 0.64 0.0 0 0 231.27 241.47
  L 232.94 245.35
  A 0.63 0.63 0.0 0 1 232.50 246.22
  Q 230.24 246.75 228.73 246.29
  C 225.47 245.28 221.45 245.25 218.80 244.73
  Q 207.50 242.49 203.39 241.08
  C 195.33 238.30 187.29 233.43 183.42 225.76
  A 0.29 0.29 0.0 0 0 182.87 225.94
  C 185.01 238.10 194.18 242.07 204.05 247.43
  Q 220.16 256.18 222.98 273.96
  C 223.69 278.45 223.04 281.04 222.15 285.86
  Q 221.73 288.17 220.59 290.72
  Q 215.92 301.13 203.76 304.76
  C 197.07 306.76 189.68 304.35 190.24 296.35
  A 2.45 2.45 0.0 0 1 192.08 294.14
  C 199.33 292.29 207.02 290.02 209.82 283.09
  Q 212.20 277.20 209.56 270.46
  C 205.97 261.27 196.58 257.35 187.76 252.24
  Q 179.09 247.21 174.01 240.05
  Q 172.02 237.24 169.34 228.76
  A 6.61 6.37 -55.7 0 1 169.04 227.01
  Q 168.53 212.74 168.93 210.15
  Q 170.08 202.68 174.59 193.83
  Q 183.48 176.38 201.51 170.54
  Q 206.65 168.88 212.38 168.69
  Q 216.86 168.54 223.53 168.82
  Q 228.56 169.04 233.34 170.49
  C 238.82 172.16 241.98 173.12 244.56 174.75
  A 1.57 1.56 26.3 0 1 245.20 176.62
  C 241.78 185.78 242.40 197.31 249.09 204.74
  Q 253.41 209.53 259.58 212.08
  A 0.27 0.26 -12.7 0 0 259.86 211.64
  Z
  M 275.20 156.69
  C 276.34 156.40 276.72 155.12 275.84 154.30
  Q 271.38 150.15 267.61 143.86
  A 1.66 1.66 0.0 0 0 264.73 143.93
  C 262.82 147.50 260.82 155.15 262.48 159.31
  A 1.85 1.85 0.0 0 0 265.02 160.28
  Q 269.06 158.28 275.20 156.69
  Z
  M 331.79 172.42
  Q 335.68 165.13 335.26 156.08
  A 0.74 0.74 0.0 0 0 334.66 155.38
  Q 334.30 155.31 333.80 155.55
  Q 327.54 158.55 326.33 159.08
  Q 323.94 160.13 322.73 161.64
  A 1.33 1.33 0.0 0 0 322.92 163.49
  Q 327.84 167.56 330.41 172.42
  A 0.78 0.78 0.0 0 0 331.79 172.42
  Z
  M 290.05 187.78
  A 0.86 0.86 0.0 0 0 288.42 187.64
  C 287.18 190.49 284.20 192.67 281.12 191.67
  Q 276.31 190.11 275.49 185.29
  A 1.31 1.31 0.0 0 0 273.14 184.74
  Q 272.63 185.44 272.61 187.04
  C 272.50 194.61 280.86 196.76 286.86 194.29
  Q 291.16 192.51 290.05 187.78
  Z
  M 328.43 195.13
  A 0.69 0.69 0.0 0 0 327.28 194.74
  C 325.56 196.33 323.88 197.82 321.81 198.48
  Q 315.78 200.41 313.73 194.04
  A 0.93 0.93 0.0 0 0 311.96 194.02
  C 310.28 198.88 315.24 202.13 319.55 202.23
  Q 325.23 202.35 328.05 197.28
  Q 328.61 196.28 328.43 195.13
  Z
  M 311.63 213.80
  L 311.63 212.41
  A 0.71 0.70 -20.5 0 0 310.46 211.88
  Q 305.32 216.31 302.34 211.57
  Q 301.66 210.49 302.27 208.77
  A 1.11 1.09 88.3 0 1 302.86 208.13
  C 305.81 206.80 309.98 204.63 306.19 201.33
  Q 303.50 198.97 301.50 198.63
  C 296.79 197.82 294.97 200.89 295.77 205.07
  Q 295.97 206.08 296.96 206.20
  Q 297.56 206.27 298.08 206.42
  A 0.57 0.57 0.0 0 1 298.48 207.11
  L 297.72 209.95
  A 2.69 2.66 -17.2 0 1 297.15 211.02
  Q 296.71 211.59 293.77 211.94
  Q 288.59 212.56 286.23 209.37
  A 1.01 1.00 37.7 0 0 284.49 209.59
  L 284.38 209.85
  A 2.38 2.38 0.0 0 0 284.95 212.46
  C 289.42 216.68 293.74 216.32 298.73 214.03
  A 0.93 0.92 51.2 0 1 299.69 214.14
  Q 304.16 217.64 310.51 215.38
  A 1.69 1.67 -9.9 0 0 311.63 213.80
  Z"
/>
<path fill="#e7b5e2" d="
  M 198.85 139.45
  Q 196.06 149.18 195.99 154.25
  Q 195.90 160.57 195.91 167.41
  Q 178.82 175.12 170.53 192.05
  Q 158.75 204.67 148.45 218.82
  Q 146.62 212.58 146.15 209.84
  C 144.54 200.54 143.55 193.54 143.96 184.75
  C 160.53 167.33 177.92 151.51 198.85 139.45
  Z"
/>
<path fill="#fb8466" d="
  M 275.84 154.30
  C 276.72 155.12 276.34 156.40 275.20 156.69
  Q 269.06 158.28 265.02 160.28
  A 1.85 1.85 0.0 0 1 262.48 159.31
  C 260.82 155.15 262.82 147.50 264.73 143.93
  A 1.66 1.66 0.0 0 1 267.61 143.86
  Q 271.38 150.15 275.84 154.30
  Z"
/>
<path fill="#fb8466" d="
  M 331.79 172.42
  A 0.78 0.78 0.0 0 1 330.41 172.42
  Q 327.84 167.56 322.92 163.49
  A 1.33 1.33 0.0 0 1 322.73 161.64
  Q 323.94 160.13 326.33 159.08
  Q 327.54 158.55 333.80 155.55
  Q 334.30 155.31 334.66 155.38
  A 0.74 0.74 0.0 0 1 335.26 156.08
  Q 335.68 165.13 331.79 172.42
  Z"
/>
<path fill="#884b65" d="
  M 290.05 187.78
  Q 291.16 192.51 286.86 194.29
  C 280.86 196.76 272.50 194.61 272.61 187.04
  Q 272.63 185.44 273.14 184.74
  A 1.31 1.31 0.0 0 1 275.49 185.29
  Q 276.31 190.11 281.12 191.67
  C 284.20 192.67 287.18 190.49 288.42 187.64
  A 0.86 0.86 0.0 0 1 290.05 187.78
  Z"
/>
<path fill="#feb4c3" d="
  M 170.53 192.05
  Q 163.69 205.43 163.97 220.32
  Q 164.02 223.22 164.49 225.57
  C 164.98 228.06 164.91 229.97 165.63 232.52
  Q 169.63 246.79 181.97 254.27
  Q 184.92 256.06 195.54 261.95
  C 203.26 266.23 209.46 274.02 204.20 283.01
  A 1.37 1.35 6.0 0 1 203.45 283.61
  L 202.74 283.82
  C 176.31 270.67 156.76 247.07 148.45 218.82
  Q 158.75 204.67 170.53 192.05
  Z"
/>
<path fill="#884b65" d="
  M 328.43 195.13
  Q 328.61 196.28 328.05 197.28
  Q 325.23 202.35 319.55 202.23
  C 315.24 202.13 310.28 198.88 311.96 194.02
  A 0.93 0.93 0.0 0 1 313.73 194.04
  Q 315.78 200.41 321.81 198.48
  C 323.88 197.82 325.56 196.33 327.28 194.74
  A 0.69 0.69 0.0 0 1 328.43 195.13
  Z"
/>
<path fill="#884b65" d="
  M 311.63 213.80
  A 1.69 1.67 -9.9 0 1 310.51 215.38
  Q 304.16 217.64 299.69 214.14
  A 0.93 0.92 51.2 0 0 298.73 214.03
  C 293.74 216.32 289.42 216.68 284.95 212.46
  A 2.38 2.38 0.0 0 1 284.38 209.85
  L 284.49 209.59
  A 1.01 1.00 37.7 0 1 286.23 209.37
  Q 288.59 212.56 293.77 211.94
  Q 296.71 211.59 297.15 211.02
  A 2.69 2.66 -17.2 0 0 297.72 209.95
  L 298.48 207.11
  A 0.57 0.57 0.0 0 0 298.08 206.42
  Q 297.56 206.27 296.96 206.20
  Q 295.97 206.08 295.77 205.07
  C 294.97 200.89 296.79 197.82 301.50 198.63
  Q 303.50 198.97 306.19 201.33
  C 309.98 204.63 305.81 206.80 302.86 208.13
  A 1.11 1.09 88.3 0 0 302.27 208.77
  Q 301.66 210.49 302.34 211.57
  Q 305.32 216.31 310.46 211.88
  A 0.71 0.70 -20.5 0 1 311.63 212.41
  L 311.63 213.80
  Z"
/>
<path fill="#feb4c3" d="
  M 225.17 291.87
  Q 225.74 290.18 226.32 288.41
  Q 226.95 286.55 227.19 284.89
  Q 230.19 264.09 215.49 249.77
  A 0.33 0.33 0.0 0 1 215.68 249.21
  C 219.00 248.74 221.69 249.29 225.26 250.15
  C 230.14 251.32 235.14 250.68 239.18 248.16
  Q 240.93 247.08 243.01 243.60
  A 1.01 1.00 -73.1 0 1 243.92 243.11
  L 249.10 243.37
  A 3.47 3.29 -31.0 0 1 250.19 243.61
  Q 254.37 245.28 260.42 245.86
  C 264.73 246.28 272.08 245.58 278.10 246.60
  Q 281.18 247.12 282.57 247.25
  A 4.23 4.21 -31.1 0 1 283.71 247.53
  L 291.11 250.52
  A 6.72 6.49 -29.3 0 0 292.71 250.94
  C 299.97 251.91 305.68 251.47 309.46 244.32
  A 0.72 0.72 0.0 0 1 310.23 243.95
  Q 312.69 244.42 317.54 243.81
  Q 326.85 242.64 327.58 233.83
  Q 339.83 226.68 343.88 223.38
  Q 344.53 222.86 347.79 219.48
  A 2.75 2.67 84.0 0 0 348.19 218.97
  Q 349.50 216.90 351.19 215.91
  A 1.09 1.09 0.0 0 1 352.82 216.70
  Q 353.00 217.99 352.70 219.72
  Q 352.10 223.17 349.81 228.30
  Q 330.02 272.64 285.33 289.33
  Q 276.04 292.80 261.20 294.81
  Q 253.59 295.84 246.25 295.38
  Q 243.80 295.23 231.38 293.53
  Q 227.20 292.96 225.17 291.87
  Z"
/>
<path fill="#ffb96c" d="
  M 304.01 229.16
  A 0.33 0.33 0.0 0 1 304.13 228.58
  Q 307.22 227.85 311.62 227.49
  A 1.47 1.35 29.0 0 0 311.91 227.42
  L 315.76 226.00
  A 3.44 3.41 -37.4 0 1 318.93 226.41
  Q 324.57 230.41 322.70 236.83
  A 0.76 0.76 0.0 0 1 321.27 236.92
  L 320.20 234.46
  A 2.34 2.33 85.6 0 0 318.66 233.13
  L 318.04 232.96
  A 0.55 0.54 -4.3 0 0 317.40 233.70
  L 319.10 237.64
  A 1.00 0.99 76.6 0 1 318.25 239.03
  L 311.32 239.41
  A 1.48 1.48 0.0 0 1 309.78 238.18
  Q 308.86 232.69 304.01 229.16
  Z"
/>
<path fill="#b581be" d="
  M 116.65 368.79
  A 0.96 0.95 43.4 0 1 117.84 368.76
  Q 123.92 373.43 132.03 375.08
  C 136.71 376.03 138.50 375.49 143.30 374.31
  C 149.59 372.76 152.75 365.84 148.42 360.59
  C 146.09 357.78 139.06 356.08 133.77 354.50
  Q 126.34 352.30 120.53 347.97
  Q 114.21 343.26 113.85 334.72
  C 113.33 322.61 122.67 314.54 134.10 313.40
  C 143.50 312.47 152.20 313.57 160.24 318.34
  A 3.30 3.29 18.9 0 1 161.83 321.57
  Q 161.51 324.22 160.57 327.74
  Q 160.10 329.53 157.64 329.39
  A 1.37 1.30 -25.3 0 1 156.97 329.17
  C 150.74 325.10 144.36 324.35 137.18 324.85
  C 131.52 325.24 126.41 331.09 130.28 336.62
  C 132.26 339.44 140.07 341.82 144.05 343.01
  C 152.89 345.66 163.32 351.52 164.76 361.47
  Q 167.02 377.12 153.52 383.78
  C 146.37 387.32 138.04 388.21 129.73 386.46
  C 124.74 385.41 115.28 383.34 112.85 378.65
  A 1.42 1.39 42.0 0 1 112.78 377.53
  Q 113.95 374.44 114.89 371.41
  Q 115.38 369.85 116.65 368.79
  Z"
/>
<path fill="#b581be" d="
  M 258.56 334.64
  A 0.55 0.54 88.3 0 0 259.10 335.16
  L 272.86 335.16
  A 1.84 1.83 -0.0 0 1 274.70 336.99
  L 274.70 344.01
  A 1.63 1.63 0.0 0 1 273.15 345.64
  L 259.04 346.41
  A 0.63 0.63 0.0 0 0 258.44 347.04
  Q 258.39 363.57 258.45 383.00
  Q 258.46 385.68 255.58 385.84
  Q 250.99 386.10 246.97 385.89
  A 2.25 2.24 1.5 0 1 244.84 383.65
  L 244.84 346.91
  A 1.12 1.11 90.0 0 0 243.73 345.79
  L 238.28 345.79
  A 2.53 2.53 0.0 0 1 235.75 343.26
  L 235.75 337.38
  A 2.40 2.40 0.0 0 1 238.15 334.98
  L 243.92 334.98
  A 0.83 0.83 0.0 0 0 244.75 334.18
  C 244.86 331.09 244.95 325.76 246.31 323.06
  Q 249.13 317.44 253.40 315.58
  Q 262.15 311.77 271.79 313.90
  A 2.87 2.85 1.4 0 1 273.98 316.19
  Q 274.52 319.33 273.46 322.72
  A 0.97 0.96 -87.3 0 1 272.75 323.37
  C 269.90 323.95 266.91 323.92 264.83 324.66
  Q 258.23 327.01 258.56 334.64
  Z"
/>
<rect fill="#b581be" x="-6.84" y="-35.99" transform="translate(322.64,350.19) rotate(0.1)" width="13.68" height="71.98" rx="3.35"/>
<path fill="#b581be" d="
  M 293.63 317.08
  Q 295.59 314.62 298.24 314.36
  Q 305.15 313.67 304.57 320.07
  C 304.08 325.55 298.39 329.62 293.88 332.33
  A 1.91 1.90 45.7 0 1 291.87 332.30
  C 287.93 329.76 282.96 326.38 281.65 322.17
  C 280.73 319.18 282.04 315.63 285.00 314.47
  C 287.75 313.40 290.83 315.12 292.80 317.12
  A 0.56 0.55 42.1 0 0 293.63 317.08
  Z"
/>
<path fill="#b581be" d="
  M 230.9978 360.2158
  A 28.99 27.15 -0.7 0 1 202.3417 387.7180
  A 28.99 27.15 -0.7 0 1 173.0222 360.9242
  A 28.99 27.15 -0.7 0 1 201.6783 333.4220
  A 28.99 27.15 -0.7 0 1 230.9978 360.2158
  Z
  M 201.8047 345.0706
  A 15.50 14.68 -90.5 0 0 187.2606 360.6981
  A 15.50 14.68 -90.5 0 0 202.0753 376.0694
  A 15.50 14.68 -90.5 0 0 216.6194 360.4419
  A 15.50 14.68 -90.5 0 0 201.8047 345.0706
  Z"
/>
<path fill="#b581be" d="
  M 380.13 380.97
  A 0.91 0.91 0.0 0 0 378.59 380.32
  Q 372.47 386.21 363.73 387.28
  C 356.01 388.22 346.52 385.05 343.41 377.43
  Q 341.39 372.45 341.19 365.24
  Q 340.83 351.43 342.00 337.53
  Q 342.20 335.15 344.60 334.86
  Q 347.61 334.50 352.51 334.76
  Q 356.08 334.95 356.06 338.49
  Q 356.00 351.45 356.05 366.14
  Q 356.07 370.16 356.78 371.71
  C 358.57 375.58 362.57 376.75 366.78 376.29
  C 376.34 375.26 378.57 368.53 378.39 359.60
  Q 378.21 350.50 378.45 339.77
  Q 378.50 337.38 379.47 335.76
  A 1.47 1.47 0.0 0 1 380.50 335.06
  Q 386.71 334.02 390.30 335.22
  A 3.29 3.29 0.0 0 1 392.55 338.34
  L 392.55 383.62
  A 2.37 2.37 0.0 0 1 390.18 385.99
  L 381.76 385.99
  A 1.64 1.63 -90.0 0 1 380.13 384.35
  L 380.13 380.97
  Z"
/>
<rect fill="#b581be" x="-7.13" y="-25.01" transform="translate(293.64,360.90) rotate(-0.3)" width="14.26" height="50.02" rx="3.68"/>
</svg>
