<?xml version="1.0" encoding="UTF-8" standalone="no"?>
<!DOCTYPE svg PUBLIC "-//W3C//DTD SVG 1.1//EN" "http://www.w3.org/Graphics/SVG/1.1/DTD/svg11.dtd">
<svg xmlns="http://www.w3.org/2000/svg" version="1.1" viewBox="0.00 0.00 283.00 319.00">
<g stroke-width="2.00" fill="none" stroke-linecap="butt">
<path stroke="#dab2e1" vector-effect="non-scaling-stroke" d="
  M 87.07 70.14
  C 66.34 80.81 47.20 94.84 32.30 112.60"
/>
<path stroke="#c4818f" vector-effect="non-scaling-stroke" d="
  M 215.89 164.03
  Q 215.71 168.87 212.31 171.50
  C 208.94 174.09 203.74 174.43 199.29 174.10
  A 1.75 1.73 18.5 0 0 197.69 174.89
  C 195.73 177.96 192.90 180.87 189.12 181.12
  Q 184.86 181.39 180.92 181.05
  A 2.81 2.75 58.6 0 1 180.09 180.84
  L 172.02 177.37
  A 1.24 0.92 53.3 0 0 171.82 177.31
  Q 163.88 175.87 153.99 176.07
  C 150.04 176.15 145.57 175.10 142.95 174.97
  A 4.36 4.28 59.2 0 1 141.31 174.54
  Q 137.60 172.70 132.22 173.23
  A 1.27 1.27 0.0 0 0 131.25 173.84
  C 126.21 182.50 117.53 181.36 108.92 179.11
  A 1.40 0.95 41.7 0 0 108.61 179.07
  L 103.92 179.07
  A 0.34 0.34 0.0 0 0 103.68 179.66
  Q 113.30 188.76 115.66 201.23
  Q 116.21 204.14 115.79 214.67
  A 1.73 1.68 55.5 0 1 115.72 215.08
  L 113.77 222.09"
/>
<path stroke="#bc829a" vector-effect="non-scaling-stroke" d="
  M 91.51 214.00
  Q 93.59 211.90 94.16 208.96
  Q 95.36 202.79 91.55 198.45
  C 83.05 188.75 68.48 186.09 60.47 175.62
  Q 57.39 171.58 54.27 163.30
  C 53.21 160.49 53.48 158.48 52.83 155.31
  Q 52.37 153.07 52.31 149.22
  Q 52.16 139.20 56.85 126.91
  Q 64.61 106.61 83.60 97.85
  A 1.30 1.29 -86.9 0 0 84.19 97.32
  L 84.37 97.01"
/>
<path stroke="#c48464" vector-effect="non-scaling-stroke" d="
  M 134.48 168.22
  L 133.67 166.81
  A 2.23 2.20 -56.2 0 1 133.40 165.39
  Q 133.63 163.71 133.39 159.96
  C 133.28 158.17 133.66 157.14 135.52 157.01
  A 0.39 0.39 0.0 0 1 135.92 157.51
  Q 135.30 159.50 135.91 161.31
  Q 137.06 164.67 139.05 167.71
  A 2.42 2.35 -3.1 0 0 140.01 168.55
  Q 145.43 171.12 146.51 171.13
  Q 152.53 171.23 164.24 171.17
  Q 168.85 171.15 171.34 172.14
  Q 181.42 176.15 182.31 176.43
  Q 185.20 177.32 187.72 176.76
  A 0.67 0.67 0.0 0 0 188.21 175.88
  L 186.31 170.53
  A 0.71 0.71 0.0 0 1 187.52 169.82
  C 189.16 171.70 190.41 171.78 190.65 174.69
  A 0.64 0.63 61.1 0 0 191.79 175.02
  Q 195.41 170.21 192.06 164.86
  C 189.16 160.24 181.11 158.29 175.81 157.53
  C 168.53 156.48 161.56 154.84 156.61 149.38
  A 0.49 0.49 0.0 0 1 157.15 148.59
  Q 162.49 150.55 166.84 151.86
  Q 172.58 153.58 176.88 153.72
  Q 180.65 153.84 190.45 153.80
  A 26.37 26.21 36.2 0 0 198.11 152.64
  Q 203.64 150.94 203.68 150.93
  Q 206.31 149.87 212.19 145.69
  C 220.57 139.73 223.80 127.75 223.09 117.97
  A 11.50 11.41 33.5 0 0 222.47 114.99
  Q 221.19 111.28 220.91 107.99
  A 2.07 1.89 -42.4 0 1 220.98 107.23
  C 221.37 105.87 222.72 104.37 223.24 102.96
  Q 225.93 95.64 227.20 92.53
  A 1.13 1.11 57.0 0 0 227.29 92.09
  L 227.29 81.46
  A 1.13 1.12 -4.2 0 0 226.00 80.35
  C 218.41 81.47 211.85 85.49 205.03 88.60
  A 3.83 3.82 -43.6 0 1 201.71 88.52
  Q 187.70 81.35 172.73 83.23
  A 2.73 2.72 -23.5 0 1 170.31 82.28
  Q 164.92 75.91 158.42 70.57
  Q 155.49 68.16 152.27 66.64
  A 1.32 1.32 0.0 0 0 150.52 67.23
  C 148.97 70.26 147.34 74.21 146.95 78.52
  Q 146.55 82.82 145.46 90.35
  C 145.32 91.37 145.48 93.81 145.36 94.96
  Q 145.27 95.78 143.70 97.86
  Q 138.86 104.26 137.81 108.31
  C 136.46 113.47 134.84 117.75 136.11 121.47
  Q 137.27 124.86 137.70 127.93
  A 3.48 3.46 28.9 0 0 137.98 128.89
  Q 141.47 136.29 148.11 141.49
  A 0.24 0.24 0.0 0 1 147.87 141.91
  Q 141.06 139.27 136.96 134.30
  Q 132.77 129.22 131.77 122.13
  Q 130.86 115.59 133.18 107.69
  Q 133.99 104.93 131.24 103.78
  Q 127.17 102.08 121.16 100.31
  Q 116.45 98.92 110.70 98.74
  Q 103.66 98.52 95.37 99.06
  A 6.25 6.11 -55.1 0 0 93.90 99.34
  C 89.35 100.75 83.53 102.57 78.85 105.77
  Q 66.53 114.19 61.22 127.47
  Q 57.81 136.00 57.51 138.78
  Q 56.96 143.80 57.30 154.10
  Q 57.46 158.71 58.88 162.42
  Q 61.18 168.44 62.42 170.12
  C 69.24 179.40 80.08 184.19 89.11 189.90
  C 97.74 195.35 103.35 208.08 95.84 216.91
  C 94.30 218.71 91.58 220.23 90.11 221.09
  A 8.27 8.27 0.0 0 1 88.25 221.90
  L 80.33 224.25
  A 2.30 2.30 0.0 0 0 78.69 226.31
  Q 78.31 232.54 83.40 234.61
  Q 86.31 235.79 88.01 235.55
  Q 100.62 233.77 107.20 223.92
  Q 109.67 220.22 110.79 215.19
  Q 111.94 210.03 111.45 205.80
  Q 110.45 197.21 107.97 192.78
  Q 101.89 181.93 89.91 175.88
  C 80.32 171.04 74.72 167.57 71.19 157.23
  A 1.03 1.01 -31.6 0 1 71.46 156.15
  L 71.50 156.11
  A 0.44 0.44 0.0 0 1 72.20 156.25
  Q 74.60 161.56 79.64 164.87
  Q 87.84 170.27 96.57 172.41
  C 100.34 173.34 106.21 174.79 111.36 175.21
  C 114.48 175.46 117.90 176.84 121.00 176.05
  A 0.61 0.61 0.0 0 0 121.34 175.10
  Q 119.74 172.95 119.31 171.07
  A 0.57 0.57 0.0 0 1 120.08 170.42
  Q 123.37 171.78 124.40 174.94
  A 0.48 0.48 0.0 0 0 125.20 175.13
  C 129.78 170.54 126.40 165.52 121.57 163.34
  C 116.05 160.84 111.38 161.14 105.65 162.11
  A 0.51 0.51 0.0 0 1 105.10 161.38
  Q 105.42 160.70 106.10 160.32
  Q 108.02 159.24 109.06 158.01
  A 2.37 2.36 -18.3 0 0 109.54 157.06
  L 111.15 150.36
  A 3.90 3.75 -40.5 0 0 111.26 149.23
  Q 110.79 140.01 106.11 133.68
  Q 103.31 129.88 97.46 127.15
  A 0.41 0.41 0.0 0 1 97.23 126.68
  L 97.30 126.40
  A 0.54 0.53 13.1 0 1 97.94 126.01
  Q 110.56 129.03 114.08 141.34
  Q 116.17 148.62 113.51 157.69
  A 0.47 0.46 12.5 0 0 113.89 158.28
  C 121.56 159.43 125.95 159.63 130.43 166.74
  Q 131.46 168.37 134.18 168.68
  A 0.31 0.30 78.5 0 0 134.48 168.22"
/>
<path stroke="#c48464" vector-effect="non-scaling-stroke" d="
  M 192.40 159.49
  Q 196.24 160.91 198.57 168.27
  A 1.02 1.01 -8.5 0 0 199.54 168.98
  L 206.50 168.98
  A 1.07 1.07 0.0 0 0 207.43 167.37
  L 205.50 164.03
  A 0.50 0.49 -15.0 0 1 205.93 163.29
  L 206.44 163.29
  A 2.28 2.28 0.0 0 1 208.41 164.42
  L 209.80 166.83
  A 0.83 0.83 0.0 0 0 211.34 166.56
  Q 212.65 159.37 206.71 156.17
  C 205.02 155.26 204.10 155.93 202.63 156.63
  Q 200.71 157.54 194.82 158.07
  Q 192.94 158.23 192.27 158.83
  A 0.40 0.39 34.1 0 0 192.40 159.49"
/>
<path stroke="#f8a268" vector-effect="non-scaling-stroke" d="
  M 163.63 86.62
  A 1.59 1.58 57.7 0 0 164.22 84.01
  L 158.99 78.79
  A 2.39 2.24 -83.7 0 1 158.60 78.27
  L 156.40 74.47
  A 1.82 1.82 0.0 0 0 153.28 74.42
  L 151.46 77.37
  A 2.28 2.26 65.3 0 0 151.16 78.19
  Q 150.65 81.44 149.93 84.43
  Q 149.42 86.56 150.24 88.73
  A 2.54 2.53 69.9 0 0 153.46 90.23
  L 163.63 86.62"
/>
<path stroke="#f8a268" vector-effect="non-scaling-stroke" d="
  M 223.81 85.79
  A 1.66 1.65 -36.2 0 0 221.89 85.50
  Q 217.09 87.98 213.17 89.85
  C 210.25 91.25 211.32 93.33 213.24 95.07
  Q 217.03 98.51 217.91 101.92
  A 1.21 1.21 0.0 0 0 220.12 102.22
  Q 224.41 94.78 224.03 86.06
  A 0.12 0.10 -72.1 0 0 224.00 85.98
  L 223.81 85.79"
/>
<path stroke="#c48464" vector-effect="non-scaling-stroke" d="
  M 178.15 117.54
  A 0.67 0.67 0.0 0 0 176.92 117.56
  C 174.72 122.83 168.85 123.25 165.37 118.90
  A 1.81 1.32 75.7 0 1 165.24 118.69
  L 163.35 114.65
  A 1.11 1.11 0.0 0 0 161.25 114.92
  C 159.76 123.15 166.16 126.30 173.24 124.92
  Q 176.70 124.25 178.31 121.90
  A 1.58 1.56 -27.4 0 0 178.59 121.04
  Q 178.64 118.60 178.15 117.54"
/>
<path stroke="#c48464" vector-effect="non-scaling-stroke" d="
  M 200.52 124.20
  A 2.23 2.22 -35.4 0 0 200.04 127.01
  Q 201.95 131.25 205.77 132.03
  Q 212.67 133.43 216.82 127.02
  Q 217.24 126.36 217.00 125.60
  A 1.16 1.11 -33.8 0 0 215.04 125.26
  C 211.58 129.25 204.66 131.36 202.44 124.43
  A 1.03 1.02 60.9 0 0 200.80 123.96
  L 200.52 124.20"
/>
<path stroke="#c48464" vector-effect="non-scaling-stroke" d="
  M 186.78 137.10
  L 185.94 140.61
  A 0.81 0.81 0.0 0 1 185.60 141.08
  C 183.88 142.20 182.18 141.62 180.72 141.86
  Q 177.39 142.42 174.78 139.37
  A 1.21 1.20 -52.6 0 0 172.78 139.64
  L 172.76 139.69
  A 2.37 2.37 0.0 0 0 173.25 142.42
  Q 178.57 147.55 184.89 144.90
  Q 186.95 144.04 187.12 143.97
  A 1.12 1.08 54.2 0 1 188.19 144.16
  C 191.05 146.51 194.81 146.77 198.19 145.54
  Q 200.05 144.86 200.28 142.84
  A 0.93 0.93 0.0 0 0 198.72 142.05
  Q 196.28 144.32 193.54 143.83
  C 191.41 143.45 189.81 141.07 190.67 139.00
  A 1.27 1.24 86.3 0 1 191.18 138.41
  L 194.64 136.34
  A 2.81 2.80 -32.6 0 0 195.52 132.35
  Q 195.20 131.80 192.78 129.97
  Q 189.32 127.35 185.52 129.56
  A 1.81 1.79 88.3 0 0 184.82 130.31
  Q 184.06 131.80 184.20 134.92
  Q 184.26 136.08 185.51 136.03
  Q 185.74 136.02 186.33 136.25
  A 0.73 0.73 0.0 0 1 186.78 137.10"
/>
</g>
<path fill="#c8ace6" d="
  M 87.07 70.14
  C 66.34 80.81 47.20 94.84 32.30 112.60
  C 35.30 58.36 72.70 18.92 124.20 6.31
  Q 127.22 5.57 131.44 5.06
  Q 137.43 4.32 138.71 4.27
  C 142.40 4.12 142.64 7.70 139.75 9.24
  Q 131.96 13.40 126.52 17.01
  Q 97.18 36.47 87.07 70.14
  Z"
/>
<path fill="#8b4d59" d="
  M 215.89 164.03
  Q 215.71 168.87 212.31 171.50
  C 208.94 174.09 203.74 174.43 199.29 174.10
  A 1.75 1.73 18.5 0 0 197.69 174.89
  C 195.73 177.96 192.90 180.87 189.12 181.12
  Q 184.86 181.39 180.92 181.05
  A 2.81 2.75 58.6 0 1 180.09 180.84
  L 172.02 177.37
  A 1.24 0.92 53.3 0 0 171.82 177.31
  Q 163.88 175.87 153.99 176.07
  C 150.04 176.15 145.57 175.10 142.95 174.97
  A 4.36 4.28 59.2 0 1 141.31 174.54
  Q 137.60 172.70 132.22 173.23
  A 1.27 1.27 0.0 0 0 131.25 173.84
  C 126.21 182.50 117.53 181.36 108.92 179.11
  A 1.40 0.95 41.7 0 0 108.61 179.07
  L 103.92 179.07
  A 0.34 0.34 0.0 0 0 103.68 179.66
  Q 113.30 188.76 115.66 201.23
  Q 116.21 204.14 115.79 214.67
  A 1.73 1.68 55.5 0 1 115.72 215.08
  L 113.77 222.09
  Q 113.62 222.09 113.36 222.25
  A 0.92 0.92 0.0 0 0 113.02 222.65
  C 108.79 232.42 98.24 239.94 87.27 239.59
  Q 79.33 239.33 75.93 233.91
  C 73.42 229.90 73.12 222.92 78.19 220.40
  Q 81.24 218.88 82.01 218.75
  Q 87.90 217.74 91.51 214.00
  Q 93.59 211.90 94.16 208.96
  Q 95.36 202.79 91.55 198.45
  C 83.05 188.75 68.48 186.09 60.47 175.62
  Q 57.39 171.58 54.27 163.30
  C 53.21 160.49 53.48 158.48 52.83 155.31
  Q 52.37 153.07 52.31 149.22
  Q 52.16 139.20 56.85 126.91
  Q 64.61 106.61 83.60 97.85
  A 1.30 1.29 -86.9 0 0 84.19 97.32
  L 84.37 97.01
  Q 84.50 97.29 84.91 97.15
  C 91.76 94.83 98.23 93.27 105.18 93.33
  Q 121.11 93.48 135.67 100.38
  A 0.51 0.49 -58.6 0 0 136.28 100.22
  L 140.27 94.85
  A 3.77 3.72 -25.0 0 0 140.99 92.91
  Q 141.20 90.08 141.56 83.80
  C 141.78 80.02 142.90 75.13 143.80 72.04
  Q 145.09 67.59 146.92 64.61
  C 152.73 55.15 168.23 73.95 171.96 78.56
  A 1.99 1.98 -26.2 0 0 173.98 79.24
  Q 178.66 78.07 183.47 78.62
  Q 193.64 79.78 202.17 83.45
  A 3.64 3.63 41.0 0 0 205.49 83.22
  C 209.50 80.80 228.35 71.25 231.00 78.51
  C 232.05 81.38 232.29 83.50 231.77 86.85
  Q 230.06 97.77 225.75 108.15
  A 2.70 2.70 0.0 0 0 225.66 109.94
  C 228.79 120.54 228.00 132.91 221.73 141.79
  Q 217.45 147.84 209.75 152.73
  A 0.40 0.40 0.0 0 0 209.74 153.40
  Q 215.50 157.32 215.89 164.03
  Z
  M 134.48 168.22
  L 133.67 166.81
  A 2.23 2.20 -56.2 0 1 133.40 165.39
  Q 133.63 163.71 133.39 159.96
  C 133.28 158.17 133.66 157.14 135.52 157.01
  A 0.39 0.39 0.0 0 1 135.92 157.51
  Q 135.30 159.50 135.91 161.31
  Q 137.06 164.67 139.05 167.71
  A 2.42 2.35 -3.1 0 0 140.01 168.55
  Q 145.43 171.12 146.51 171.13
  Q 152.53 171.23 164.24 171.17
  Q 168.85 171.15 171.34 172.14
  Q 181.42 176.15 182.31 176.43
  Q 185.20 177.32 187.72 176.76
  A 0.67 0.67 0.0 0 0 188.21 175.88
  L 186.31 170.53
  A 0.71 0.71 0.0 0 1 187.52 169.82
  C 189.16 171.70 190.41 171.78 190.65 174.69
  A 0.64 0.63 61.1 0 0 191.79 175.02
  Q 195.41 170.21 192.06 164.86
  C 189.16 160.24 181.11 158.29 175.81 157.53
  C 168.53 156.48 161.56 154.84 156.61 149.38
  A 0.49 0.49 0.0 0 1 157.15 148.59
  Q 162.49 150.55 166.84 151.86
  Q 172.58 153.58 176.88 153.72
  Q 180.65 153.84 190.45 153.80
  A 26.37 26.21 36.2 0 0 198.11 152.64
  Q 203.64 150.94 203.68 150.93
  Q 206.31 149.87 212.19 145.69
  C 220.57 139.73 223.80 127.75 223.09 117.97
  A 11.50 11.41 33.5 0 0 222.47 114.99
  Q 221.19 111.28 220.91 107.99
  A 2.07 1.89 -42.4 0 1 220.98 107.23
  C 221.37 105.87 222.72 104.37 223.24 102.96
  Q 225.93 95.64 227.20 92.53
  A 1.13 1.11 57.0 0 0 227.29 92.09
  L 227.29 81.46
  A 1.13 1.12 -4.2 0 0 226.00 80.35
  C 218.41 81.47 211.85 85.49 205.03 88.60
  A 3.83 3.82 -43.6 0 1 201.71 88.52
  Q 187.70 81.35 172.73 83.23
  A 2.73 2.72 -23.5 0 1 170.31 82.28
  Q 164.92 75.91 158.42 70.57
  Q 155.49 68.16 152.27 66.64
  A 1.32 1.32 0.0 0 0 150.52 67.23
  C 148.97 70.26 147.34 74.21 146.95 78.52
  Q 146.55 82.82 145.46 90.35
  C 145.32 91.37 145.48 93.81 145.36 94.96
  Q 145.27 95.78 143.70 97.86
  Q 138.86 104.26 137.81 108.31
  C 136.46 113.47 134.84 117.75 136.11 121.47
  Q 137.27 124.86 137.70 127.93
  A 3.48 3.46 28.9 0 0 137.98 128.89
  Q 141.47 136.29 148.11 141.49
  A 0.24 0.24 0.0 0 1 147.87 141.91
  Q 141.06 139.27 136.96 134.30
  Q 132.77 129.22 131.77 122.13
  Q 130.86 115.59 133.18 107.69
  Q 133.99 104.93 131.24 103.78
  Q 127.17 102.08 121.16 100.31
  Q 116.45 98.92 110.70 98.74
  Q 103.66 98.52 95.37 99.06
  A 6.25 6.11 -55.1 0 0 93.90 99.34
  C 89.35 100.75 83.53 102.57 78.85 105.77
  Q 66.53 114.19 61.22 127.47
  Q 57.81 136.00 57.51 138.78
  Q 56.96 143.80 57.30 154.10
  Q 57.46 158.71 58.88 162.42
  Q 61.18 168.44 62.42 170.12
  C 69.24 179.40 80.08 184.19 89.11 189.90
  C 97.74 195.35 103.35 208.08 95.84 216.91
  C 94.30 218.71 91.58 220.23 90.11 221.09
  A 8.27 8.27 0.0 0 1 88.25 221.90
  L 80.33 224.25
  A 2.30 2.30 0.0 0 0 78.69 226.31
  Q 78.31 232.54 83.40 234.61
  Q 86.31 235.79 88.01 235.55
  Q 100.62 233.77 107.20 223.92
  Q 109.67 220.22 110.79 215.19
  Q 111.94 210.03 111.45 205.80
  Q 110.45 197.21 107.97 192.78
  Q 101.89 181.93 89.91 175.88
  C 80.32 171.04 74.72 167.57 71.19 157.23
  A 1.03 1.01 -31.6 0 1 71.46 156.15
  L 71.50 156.11
  A 0.44 0.44 0.0 0 1 72.20 156.25
  Q 74.60 161.56 79.64 164.87
  Q 87.84 170.27 96.57 172.41
  C 100.34 173.34 106.21 174.79 111.36 175.21
  C 114.48 175.46 117.90 176.84 121.00 176.05
  A 0.61 0.61 0.0 0 0 121.34 175.10
  Q 119.74 172.95 119.31 171.07
  A 0.57 0.57 0.0 0 1 120.08 170.42
  Q 123.37 171.78 124.40 174.94
  A 0.48 0.48 0.0 0 0 125.20 175.13
  C 129.78 170.54 126.40 165.52 121.57 163.34
  C 116.05 160.84 111.38 161.14 105.65 162.11
  A 0.51 0.51 0.0 0 1 105.10 161.38
  Q 105.42 160.70 106.10 160.32
  Q 108.02 159.24 109.06 158.01
  A 2.37 2.36 -18.3 0 0 109.54 157.06
  L 111.15 150.36
  A 3.90 3.75 -40.5 0 0 111.26 149.23
  Q 110.79 140.01 106.11 133.68
  Q 103.31 129.88 97.46 127.15
  A 0.41 0.41 0.0 0 1 97.23 126.68
  L 97.30 126.40
  A 0.54 0.53 13.1 0 1 97.94 126.01
  Q 110.56 129.03 114.08 141.34
  Q 116.17 148.62 113.51 157.69
  A 0.47 0.46 12.5 0 0 113.89 158.28
  C 121.56 159.43 125.95 159.63 130.43 166.74
  Q 131.46 168.37 134.18 168.68
  A 0.31 0.30 78.5 0 0 134.48 168.22
  Z
  M 192.40 159.49
  Q 196.24 160.91 198.57 168.27
  A 1.02 1.01 -8.5 0 0 199.54 168.98
  L 206.50 168.98
  A 1.07 1.07 0.0 0 0 207.43 167.37
  L 205.50 164.03
  A 0.50 0.49 -15.0 0 1 205.93 163.29
  L 206.44 163.29
  A 2.28 2.28 0.0 0 1 208.41 164.42
  L 209.80 166.83
  A 0.83 0.83 0.0 0 0 211.34 166.56
  Q 212.65 159.37 206.71 156.17
  C 205.02 155.26 204.10 155.93 202.63 156.63
  Q 200.71 157.54 194.82 158.07
  Q 192.94 158.23 192.27 158.83
  A 0.40 0.39 34.1 0 0 192.40 159.49
  Z"
/>
<path fill="#fdba6e" d="
  M 134.18 168.68
  Q 131.46 168.37 130.43 166.74
  C 125.95 159.63 121.56 159.43 113.89 158.28
  A 0.47 0.46 12.5 0 1 113.51 157.69
  Q 116.17 148.62 114.08 141.34
  Q 110.56 129.03 97.94 126.01
  A 0.54 0.53 13.1 0 0 97.30 126.40
  L 97.23 126.68
  A 0.41 0.41 0.0 0 0 97.46 127.15
  Q 103.31 129.88 106.11 133.68
  Q 110.79 140.01 111.26 149.23
  A 3.90 3.75 -40.5 0 1 111.15 150.36
  L 109.54 157.06
  A 2.37 2.36 -18.3 0 1 109.06 158.01
  Q 108.02 159.24 106.10 160.32
  Q 105.42 160.70 105.10 161.38
  A 0.51 0.51 0.0 0 0 105.65 162.11
  C 111.38 161.14 116.05 160.84 121.57 163.34
  C 126.40 165.52 129.78 170.54 125.20 175.13
  A 0.48 0.48 0.0 0 1 124.40 174.94
  Q 123.37 171.78 120.08 170.42
  A 0.57 0.57 0.0 0 0 119.31 171.07
  Q 119.74 172.95 121.34 175.10
  A 0.61 0.61 0.0 0 1 121.00 176.05
  C 117.90 176.84 114.48 175.46 111.36 175.21
  C 106.21 174.79 100.34 173.34 96.57 172.41
  Q 87.84 170.27 79.64 164.87
  Q 74.60 161.56 72.20 156.25
  A 0.44 0.44 0.0 0 0 71.50 156.11
  L 71.46 156.15
  A 1.03 1.01 -31.6 0 0 71.19 157.23
  C 74.72 167.57 80.32 171.04 89.91 175.88
  Q 101.89 181.93 107.97 192.78
  Q 110.45 197.21 111.45 205.80
  Q 111.94 210.03 110.79 215.19
  Q 109.67 220.22 107.20 223.92
  Q 100.62 233.77 88.01 235.55
  Q 86.31 235.79 83.40 234.61
  Q 78.31 232.54 78.69 226.31
  A 2.30 2.30 0.0 0 1 80.33 224.25
  L 88.25 221.90
  A 8.27 8.27 0.0 0 0 90.11 221.09
  C 91.58 220.23 94.30 218.71 95.84 216.91
  C 103.35 208.08 97.74 195.35 89.11 189.90
  C 80.08 184.19 69.24 179.40 62.42 170.12
  Q 61.18 168.44 58.88 162.42
  Q 57.46 158.71 57.30 154.10
  Q 56.96 143.80 57.51 138.78
  Q 57.81 136.00 61.22 127.47
  Q 66.53 114.19 78.85 105.77
  C 83.53 102.57 89.35 100.75 93.90 99.34
  A 6.25 6.11 -55.1 0 1 95.37 99.06
  Q 103.66 98.52 110.70 98.74
  Q 116.45 98.92 121.16 100.31
  Q 127.17 102.08 131.24 103.78
  Q 133.99 104.93 133.18 107.69
  Q 130.86 115.59 131.77 122.13
  Q 132.77 129.22 136.96 134.30
  Q 141.06 139.27 147.87 141.91
  A 0.24 0.24 0.0 0 0 148.11 141.49
  Q 141.47 136.29 137.98 128.89
  A 3.48 3.46 28.9 0 1 137.70 127.93
  Q 137.27 124.86 136.11 121.47
  C 134.84 117.75 136.46 113.47 137.81 108.31
  Q 138.86 104.26 143.70 97.86
  Q 145.27 95.78 145.36 94.96
  C 145.48 93.81 145.32 91.37 145.46 90.35
  Q 146.55 82.82 146.95 78.52
  C 147.34 74.21 148.97 70.26 150.52 67.23
  A 1.32 1.32 0.0 0 1 152.27 66.64
  Q 155.49 68.16 158.42 70.57
  Q 164.92 75.91 170.31 82.28
  A 2.73 2.72 -23.5 0 0 172.73 83.23
  Q 187.70 81.35 201.71 88.52
  A 3.83 3.82 -43.6 0 0 205.03 88.60
  C 211.85 85.49 218.41 81.47 226.00 80.35
  A 1.13 1.12 -4.2 0 1 227.29 81.46
  L 227.29 92.09
  A 1.13 1.11 57.0 0 1 227.20 92.53
  Q 225.93 95.64 223.24 102.96
  C 222.72 104.37 221.37 105.87 220.98 107.23
  A 2.07 1.89 -42.4 0 0 220.91 107.99
  Q 221.19 111.28 222.47 114.99
  A 11.50 11.41 33.5 0 1 223.09 117.97
  C 223.80 127.75 220.57 139.73 212.19 145.69
  Q 206.31 149.87 203.68 150.93
  Q 203.64 150.94 198.11 152.64
  A 26.37 26.21 36.2 0 1 190.45 153.80
  Q 180.65 153.84 176.88 153.72
  Q 172.58 153.58 166.84 151.86
  Q 162.49 150.55 157.15 148.59
  A 0.49 0.49 0.0 0 0 156.61 149.38
  C 161.56 154.84 168.53 156.48 175.81 157.53
  C 181.11 158.29 189.16 160.24 192.06 164.86
  Q 195.41 170.21 191.79 175.02
  A 0.64 0.63 61.1 0 1 190.65 174.69
  C 190.41 171.78 189.16 171.70 187.52 169.82
  A 0.71 0.71 0.0 0 0 186.31 170.53
  L 188.21 175.88
  A 0.67 0.67 0.0 0 1 187.72 176.76
  Q 185.20 177.32 182.31 176.43
  Q 181.42 176.15 171.34 172.14
  Q 168.85 171.15 164.24 171.17
  Q 152.53 171.23 146.51 171.13
  Q 145.43 171.12 140.01 168.55
  A 2.42 2.35 -3.1 0 1 139.05 167.71
  Q 137.06 164.67 135.91 161.31
  Q 135.30 159.50 135.92 157.51
  A 0.39 0.39 0.0 0 0 135.52 157.01
  C 133.66 157.14 133.28 158.17 133.39 159.96
  Q 133.63 163.71 133.40 165.39
  A 2.23 2.20 -56.2 0 0 133.67 166.81
  L 134.48 168.22
  A 0.31 0.30 78.5 0 1 134.18 168.68
  Z
  M 163.63 86.62
  A 1.59 1.58 57.7 0 0 164.22 84.01
  L 158.99 78.79
  A 2.39 2.24 -83.7 0 1 158.60 78.27
  L 156.40 74.47
  A 1.82 1.82 0.0 0 0 153.28 74.42
  L 151.46 77.37
  A 2.28 2.26 65.3 0 0 151.16 78.19
  Q 150.65 81.44 149.93 84.43
  Q 149.42 86.56 150.24 88.73
  A 2.54 2.53 69.9 0 0 153.46 90.23
  L 163.63 86.62
  Z
  M 223.81 85.79
  A 1.66 1.65 -36.2 0 0 221.89 85.50
  Q 217.09 87.98 213.17 89.85
  C 210.25 91.25 211.32 93.33 213.24 95.07
  Q 217.03 98.51 217.91 101.92
  A 1.21 1.21 0.0 0 0 220.12 102.22
  Q 224.41 94.78 224.03 86.06
  A 0.12 0.10 -72.1 0 0 224.00 85.98
  L 223.81 85.79
  Z
  M 178.15 117.54
  A 0.67 0.67 0.0 0 0 176.92 117.56
  C 174.72 122.83 168.85 123.25 165.37 118.90
  A 1.81 1.32 75.7 0 1 165.24 118.69
  L 163.35 114.65
  A 1.11 1.11 0.0 0 0 161.25 114.92
  C 159.76 123.15 166.16 126.30 173.24 124.92
  Q 176.70 124.25 178.31 121.90
  A 1.58 1.56 -27.4 0 0 178.59 121.04
  Q 178.64 118.60 178.15 117.54
  Z
  M 200.52 124.20
  A 2.23 2.22 -35.4 0 0 200.04 127.01
  Q 201.95 131.25 205.77 132.03
  Q 212.67 133.43 216.82 127.02
  Q 217.24 126.36 217.00 125.60
  A 1.16 1.11 -33.8 0 0 215.04 125.26
  C 211.58 129.25 204.66 131.36 202.44 124.43
  A 1.03 1.02 60.9 0 0 200.80 123.96
  L 200.52 124.20
  Z
  M 186.78 137.10
  L 185.94 140.61
  A 0.81 0.81 0.0 0 1 185.60 141.08
  C 183.88 142.20 182.18 141.62 180.72 141.86
  Q 177.39 142.42 174.78 139.37
  A 1.21 1.20 -52.6 0 0 172.78 139.64
  L 172.76 139.69
  A 2.37 2.37 0.0 0 0 173.25 142.42
  Q 178.57 147.55 184.89 144.90
  Q 186.95 144.04 187.12 143.97
  A 1.12 1.08 54.2 0 1 188.19 144.16
  C 191.05 146.51 194.81 146.77 198.19 145.54
  Q 200.05 144.86 200.28 142.84
  A 0.93 0.93 0.0 0 0 198.72 142.05
  Q 196.28 144.32 193.54 143.83
  C 191.41 143.45 189.81 141.07 190.67 139.00
  A 1.27 1.24 86.3 0 1 191.18 138.41
  L 194.64 136.34
  A 2.81 2.80 -32.6 0 0 195.52 132.35
  Q 195.20 131.80 192.78 129.97
  Q 189.32 127.35 185.52 129.56
  A 1.81 1.79 88.3 0 0 184.82 130.31
  Q 184.06 131.80 184.20 134.92
  Q 184.26 136.08 185.51 136.03
  Q 185.74 136.02 186.33 136.25
  A 0.73 0.73 0.0 0 1 186.78 137.10
  Z"
/>
<path fill="#ecb7db" d="
  M 87.07 70.14
  C 84.36 79.62 84.24 86.39 84.37 97.01
  L 84.19 97.32
  A 1.30 1.29 -86.9 0 1 83.60 97.85
  Q 64.61 106.61 56.85 126.91
  Q 52.16 139.20 52.31 149.22
  Q 52.37 153.07 52.83 155.31
  C 53.48 158.48 53.21 160.49 54.27 163.30
  Q 57.39 171.58 60.47 175.62
  C 68.48 186.09 83.05 188.75 91.55 198.45
  Q 95.36 202.79 94.16 208.96
  Q 93.59 211.90 91.51 214.00
  C 52.86 194.93 30.81 155.30 32.30 112.60
  C 47.20 94.84 66.34 80.81 87.07 70.14
  Z"
/>
<path fill="#f28a61" d="
  M 163.63 86.62
  L 153.46 90.23
  A 2.54 2.53 69.9 0 1 150.24 88.73
  Q 149.42 86.56 149.93 84.43
  Q 150.65 81.44 151.16 78.19
  A 2.28 2.26 65.3 0 1 151.46 77.37
  L 153.28 74.42
  A 1.82 1.82 0.0 0 1 156.40 74.47
  L 158.60 78.27
  A 2.39 2.24 -83.7 0 0 158.99 78.79
  L 164.22 84.01
  A 1.59 1.58 57.7 0 1 163.63 86.62
  Z"
/>
<path fill="#f28a61" d="
  M 223.81 85.79
  L 224.00 85.98
  A 0.12 0.10 -72.1 0 1 224.03 86.06
  Q 224.41 94.78 220.12 102.22
  A 1.21 1.21 0.0 0 1 217.91 101.92
  Q 217.03 98.51 213.24 95.07
  C 211.32 93.33 210.25 91.25 213.17 89.85
  Q 217.09 87.98 221.89 85.50
  A 1.66 1.65 -36.2 0 1 223.81 85.79
  Z"
/>
<path fill="#8b4d59" d="
  M 178.15 117.54
  Q 178.64 118.60 178.59 121.04
  A 1.58 1.56 -27.4 0 1 178.31 121.90
  Q 176.70 124.25 173.24 124.92
  C 166.16 126.30 159.76 123.15 161.25 114.92
  A 1.11 1.11 0.0 0 1 163.35 114.65
  L 165.24 118.69
  A 1.81 1.32 75.7 0 0 165.37 118.90
  C 168.85 123.25 174.72 122.83 176.92 117.56
  A 0.67 0.67 0.0 0 1 178.15 117.54
  Z"
/>
<path fill="#8b4d59" d="
  M 200.52 124.20
  L 200.80 123.96
  A 1.03 1.02 60.9 0 1 202.44 124.43
  C 204.66 131.36 211.58 129.25 215.04 125.26
  A 1.16 1.11 -33.8 0 1 217.00 125.60
  Q 217.24 126.36 216.82 127.02
  Q 212.67 133.43 205.77 132.03
  Q 201.95 131.25 200.04 127.01
  A 2.23 2.22 -35.4 0 1 200.52 124.20
  Z"
/>
<path fill="#8b4d59" d="
  M 186.33 136.25
  Q 185.74 136.02 185.51 136.03
  Q 184.26 136.08 184.20 134.92
  Q 184.06 131.80 184.82 130.31
  A 1.81 1.79 88.3 0 1 185.52 129.56
  Q 189.32 127.35 192.78 129.97
  Q 195.20 131.80 195.52 132.35
  A 2.81 2.80 -32.6 0 1 194.64 136.34
  L 191.18 138.41
  A 1.27 1.24 86.3 0 0 190.67 139.00
  C 189.81 141.07 191.41 143.45 193.54 143.83
  Q 196.28 144.32 198.72 142.05
  A 0.93 0.93 0.0 0 1 200.28 142.84
  Q 200.05 144.86 198.19 145.54
  C 194.81 146.77 191.05 146.51 188.19 144.16
  A 1.12 1.08 54.2 0 0 187.12 143.97
  Q 186.95 144.04 184.89 144.90
  Q 178.57 147.55 173.25 142.42
  A 2.37 2.37 0.0 0 1 172.76 139.69
  L 172.78 139.64
  A 1.21 1.20 -52.6 0 1 174.78 139.37
  Q 177.39 142.42 180.72 141.86
  C 182.18 141.62 183.88 142.20 185.60 141.08
  A 0.81 0.81 0.0 0 0 185.94 140.61
  L 186.78 137.10
  A 0.73 0.73 0.0 0 0 186.33 136.25
  Z"
/>
<path fill="#fcb5c5" d="
  M 113.77 222.09
  L 115.72 215.08
  A 1.73 1.68 55.5 0 0 115.79 214.67
  Q 116.21 204.14 115.66 201.23
  Q 113.30 188.76 103.68 179.66
  A 0.34 0.34 0.0 0 1 103.92 179.07
  L 108.61 179.07
  A 1.40 0.95 41.7 0 1 108.92 179.11
  C 117.53 181.36 126.21 182.50 131.25 173.84
  A 1.27 1.27 0.0 0 1 132.22 173.23
  Q 137.60 172.70 141.31 174.54
  A 4.36 4.28 59.2 0 0 142.95 174.97
  C 145.57 175.10 150.04 176.15 153.99 176.07
  Q 163.88 175.87 171.82 177.31
  A 1.24 0.92 53.3 0 1 172.02 177.37
  L 180.09 180.84
  A 2.81 2.75 58.6 0 0 180.92 181.05
  Q 184.86 181.39 189.12 181.12
  C 192.90 180.87 195.73 177.96 197.69 174.89
  A 1.75 1.73 18.5 0 1 199.29 174.10
  C 203.74 174.43 208.94 174.09 212.31 171.50
  Q 215.71 168.87 215.89 164.03
  L 218.23 162.26
  A 14.63 14.62 13.4 0 1 220.77 160.70
  Q 231.63 155.47 238.93 146.25
  A 1.28 1.28 0.0 0 1 241.21 146.90
  Q 241.47 149.15 240.42 152.21
  Q 232.47 175.36 214.77 193.08
  Q 183.25 224.63 138.02 225.55
  Q 132.63 225.66 116.85 223.18
  Q 116.02 223.05 113.77 222.09
  Z"
/>
<path fill="#fdba6e" d="
  M 192.27 158.83
  Q 192.94 158.23 194.82 158.07
  Q 200.71 157.54 202.63 156.63
  C 204.10 155.93 205.02 155.26 206.71 156.17
  Q 212.65 159.37 211.34 166.56
  A 0.83 0.83 0.0 0 1 209.80 166.83
  L 208.41 164.42
  A 2.28 2.28 0.0 0 0 206.44 163.29
  L 205.93 163.29
  A 0.50 0.49 -15.0 0 0 205.50 164.03
  L 207.43 167.37
  A 1.07 1.07 0.0 0 1 206.50 168.98
  L 199.54 168.98
  A 1.02 1.01 -8.5 0 1 198.57 168.27
  Q 196.24 160.91 192.40 159.49
  A 0.40 0.39 34.1 0 1 192.27 158.83
  Z"
/>
<path fill="#b583bd" d="
  M 4.74 298.99
  A 1.20 1.20 0.0 0 1 6.27 298.88
  Q 14.21 304.53 23.78 305.61
  Q 26.32 305.89 31.58 304.31
  Q 36.75 302.76 38.08 299.13
  C 40.67 292.14 35.71 288.64 29.67 286.86
  C 21.27 284.38 5.91 280.17 3.22 270.33
  Q 0.08 258.86 6.87 251.05
  Q 11.50 245.72 18.54 244.15
  Q 31.16 241.32 43.31 245.70
  Q 46.68 246.92 49.25 248.90
  A 2.95 2.94 25.8 0 1 50.31 251.92
  L 48.93 257.66
  A 2.25 2.25 0.0 0 1 46.06 259.28
  C 44.20 258.68 42.12 257.11 40.31 256.52
  Q 31.20 253.57 23.72 255.23
  C 17.27 256.66 14.48 264.89 21.33 268.73
  Q 24.61 270.56 34.18 273.59
  Q 39.41 275.25 45.23 279.29
  Q 54.01 285.39 53.45 296.78
  C 52.62 313.96 33.09 319.33 19.29 316.70
  C 13.69 315.63 6.49 313.93 2.31 310.36
  A 3.15 3.13 -60.6 0 1 1.38 306.98
  C 2.65 303.25 3.34 300.34 4.74 298.99
  Z"
/>
<path fill="#b583bd" d="
  M 133.25 263.96
  C 133.35 260.10 133.36 256.37 134.70 253.13
  C 138.71 243.40 151.35 241.89 160.52 243.99
  A 2.39 2.37 -87.1 0 1 162.35 246.03
  Q 162.80 249.94 162.13 252.04
  A 2.10 2.09 2.2 0 1 160.60 253.45
  C 158.29 253.98 155.07 254.01 152.91 254.82
  Q 146.99 257.02 146.82 264.28
  A 0.85 0.84 0.7 0 0 147.67 265.14
  L 161.23 265.14
  A 1.89 1.89 0.0 0 1 163.12 267.03
  L 163.12 274.09
  A 1.55 1.55 0.0 0 1 161.65 275.64
  L 147.17 276.40
  A 0.40 0.39 -6.0 0 0 146.80 276.85
  Q 146.84 277.14 146.83 313.25
  Q 146.83 315.75 143.65 315.87
  Q 139.47 316.03 135.76 315.93
  Q 133.20 315.86 133.22 313.26
  Q 133.32 293.41 133.28 276.99
  A 0.91 0.91 0.0 0 0 132.42 276.08
  Q 130.40 275.98 126.12 275.46
  Q 124.22 275.22 124.17 273.34
  C 124.08 269.75 122.96 265.09 127.51 265.01
  Q 130.99 264.94 132.42 264.84
  A 0.91 0.90 88.6 0 0 133.25 263.96
  Z"
/>
<path fill="#b583bd" d="
  M 181.38 247.05
  Q 181.69 247.04 181.72 247.02
  C 185.61 243.26 192.31 242.44 193.11 249.44
  Q 193.26 250.74 192.10 253.48
  C 190.76 256.63 186.39 259.71 183.58 261.65
  Q 182.37 262.49 181.51 262.50
  Q 180.65 262.50 179.42 261.68
  C 176.58 259.80 172.16 256.79 170.77 253.67
  Q 169.56 250.95 169.69 249.64
  C 170.36 242.63 177.08 243.33 181.03 247.02
  Q 181.06 247.05 181.38 247.05
  Z"
/>
<rect fill="#b583bd" x="-6.82" y="-35.96" transform="translate(211.04,280.21) rotate(0.2)" width="13.64" height="71.92" rx="3.21"/>
<path fill="#b583bd" d="
  M 119.3936 289.9429
  A 28.99 27.15 -1.2 0 1 90.9786 317.6940
  A 28.99 27.15 -1.2 0 1 61.4264 291.1571
  A 28.99 27.15 -1.2 0 1 89.8414 263.4060
  A 28.99 27.15 -1.2 0 1 119.3936 289.9429
  Z
  M 90.1237 275.0815
  A 15.49 14.68 -90.8 0 0 75.6614 290.7750
  A 15.49 14.68 -90.8 0 0 90.5563 306.0585
  A 15.49 14.68 -90.8 0 0 105.0186 290.3650
  A 15.49 14.68 -90.8 0 0 90.1237 275.0815
  Z"
/>
<path fill="#b583bd" d="
  M 267.49 310.40
  Q 267.45 310.43 264.06 312.73
  Q 252.71 320.46 240.35 315.58
  C 231.80 312.21 229.81 304.05 229.61 295.52
  Q 229.23 279.90 230.46 267.12
  A 2.37 2.36 86.2 0 1 232.26 265.06
  C 234.53 264.52 240.80 264.12 243.24 265.49
  A 2.30 2.30 0.0 0 1 244.41 267.46
  Q 244.44 269.18 244.47 296.35
  Q 244.48 300.38 245.31 302.02
  C 248.31 307.97 257.09 307.02 261.64 304.02
  C 265.88 301.22 266.69 296.66 266.74 291.44
  Q 266.83 279.99 266.81 271.25
  Q 266.81 269.43 267.21 267.09
  A 2.42 2.42 0.0 0 1 269.05 265.12
  C 271.77 264.47 280.87 263.34 280.89 268.49
  Q 281.05 309.31 280.96 313.48
  Q 280.92 315.77 278.74 315.91
  Q 273.71 316.25 269.64 315.80
  A 1.09 1.09 0.0 0 1 268.67 314.80
  L 268.38 310.83
  A 0.57 0.57 0.0 0 0 267.49 310.40
  Z"
/>
<rect fill="#b583bd" x="-7.10" y="-25.01" transform="translate(182.04,290.91) rotate(-0.2)" width="14.20" height="50.02" rx="3.54"/>
</svg>
